<svg width="33" height="33" viewBox="0 0 33 33" fill="none" xmlns="http://www.w3.org/2000/svg">
<g clip-path="url(#clip0_395_3214)">
<path d="M28.1673 4.83276C25.0509 1.71632 20.9073 0 16.5 0C12.0927 0 7.94913 1.71632 4.8327 4.83276C1.71626 7.9492 0 12.0927 0 16.5C0 20.9073 1.71626 25.0509 4.8327 28.1672C7.94913 31.2836 12.0927 33 16.5 33C20.9073 33 25.0509 31.2837 28.1673 28.1672C31.2837 25.0508 33 20.9073 33 16.5C33 12.0927 31.2837 7.94913 28.1673 4.83276ZM16.5 29.7614C9.1876 29.7614 3.23864 23.8123 3.23864 16.5C3.23864 16.488 3.23903 16.4762 3.23909 16.4643C3.23909 16.4613 3.23864 16.4584 3.23864 16.4553C3.23864 16.4502 3.23928 16.4453 3.23941 16.4403C3.27158 9.21557 9.11019 3.33764 16.3198 3.24096C16.3349 3.24025 16.3498 3.23871 16.3651 3.23871C16.3743 3.23871 16.3831 3.2398 16.3922 3.24006C16.4282 3.2398 16.464 3.23871 16.5001 3.23871C23.8125 3.23871 29.7614 9.18773 29.7614 16.5001C29.7614 23.8124 23.8124 29.7614 16.5 29.7614Z" fill="#CBEAA6"/>
<path d="M26.5738 17.2967C26.0346 17.2967 25.5975 16.8596 25.5975 16.3204C25.5975 15.7812 26.0346 15.3441 26.5738 15.3441H27.7506C27.1979 9.92509 22.8031 5.62626 17.342 5.22266V6.24714C17.342 6.78635 16.9049 7.22347 16.3656 7.22347C15.8264 7.22347 15.3893 6.78635 15.3893 6.24714V5.24599C10.009 5.77321 5.72334 10.0865 5.23846 15.479H6.2924C6.83161 15.479 7.26873 15.9161 7.26873 16.4553C7.26873 16.9945 6.83161 17.4316 6.2924 17.4316H5.23047C5.67938 22.9109 10.051 27.2959 15.5243 27.7662V26.5285C15.5243 25.9893 15.9614 25.5521 16.5006 25.5521C17.0398 25.5521 17.4769 25.9893 17.4769 26.5285V27.7662C22.995 27.292 27.3933 22.8387 27.7809 17.2967H26.5738ZM20.4529 13.9285L17.191 17.1904C17.0079 17.3736 16.7597 17.4764 16.5007 17.4764C16.2418 17.4764 15.9934 17.3736 15.8103 17.1904L10.1325 11.5126C9.75115 11.1313 9.75115 10.5132 10.1325 10.1319C10.5137 9.75055 11.1319 9.75055 11.5132 10.1319L16.5007 15.1194L19.0723 12.5478C19.4535 12.1665 20.0717 12.1665 20.453 12.5478C20.8342 12.9291 20.8342 13.5473 20.4529 13.9285Z" fill="#CBEAA6"/>
</g>
<defs>
<clipPath id="clip0_395_3214">
<rect width="33" height="33" fill="white"/>
</clipPath>
</defs>
</svg>
