<svg width="28" height="28" viewBox="0 0 28 28" fill="none" xmlns="http://www.w3.org/2000/svg">
<g clip-path="url(#clip0_391_1434)">
<path d="M24.3687 17.8101C24.7998 17.4739 25.1152 17.0115 25.2708 16.4874C25.4264 15.9633 25.4145 15.4037 25.2367 14.8867C25.0589 14.3697 24.7242 13.9211 24.2792 13.6035C23.8342 13.2859 23.3011 13.1153 22.7544 13.1153C22.2077 13.1153 21.6746 13.2859 21.2296 13.6035C20.7846 13.9211 20.4498 14.3697 20.272 14.8867C20.0943 15.4037 20.0823 15.9633 20.2379 16.4874C20.3935 17.0115 20.7089 17.4739 21.14 17.8101C20.5152 18.0581 19.9543 18.444 19.4994 18.9389L19.25 16.5764C19.2381 16.4689 19.1868 16.3696 19.106 16.2977C19.0252 16.2258 18.9207 16.1864 18.8125 16.187H18.375V14.8745C18.3741 13.9998 18.111 13.1454 17.6197 12.4217C17.1284 11.698 16.4314 11.1382 15.6188 10.8145C16.0488 10.4777 16.363 10.0151 16.5176 9.49118C16.6723 8.96729 16.6596 8.40821 16.4814 7.89185C16.3033 7.37549 15.9685 6.92757 15.5237 6.61051C15.0789 6.29345 14.5462 6.12305 14 6.12305C13.4538 6.12305 12.9211 6.29345 12.4763 6.61051C12.0315 6.92757 11.6967 7.37549 11.5186 7.89185C11.3404 8.40821 11.3277 8.96729 11.4824 9.49118C11.637 10.0151 11.9512 10.4777 12.3812 10.8145C11.5686 11.1382 10.8716 11.698 10.3803 12.4217C9.889 13.1454 9.6259 13.9998 9.625 14.8745V16.187H9.1875C9.07866 16.1865 8.97353 16.2265 8.89264 16.2993C8.81174 16.3721 8.76088 16.4725 8.75 16.5808L8.51375 18.9608C8.06247 18.4535 7.49717 18.0606 6.86437 17.8145C7.29493 17.478 7.60972 17.0155 7.76484 16.4915C7.91996 15.9675 7.90768 15.4081 7.72971 14.8914C7.55174 14.3748 7.21695 13.9265 6.77204 13.6092C6.32713 13.2919 5.79428 13.1213 5.24781 13.1213C4.70134 13.1213 4.16849 13.2919 3.72358 13.6092C3.27868 13.9265 2.94389 14.3748 2.76592 14.8914C2.58795 15.4081 2.57567 15.9675 2.73079 16.4915C2.88591 17.0155 3.2007 17.478 3.63125 17.8145C2.8186 18.1382 2.12162 18.698 1.63031 19.4217C1.13899 20.1454 0.875903 20.9998 0.875 21.8745V26.687C0.875 26.803 0.921094 26.9143 1.00314 26.9964C1.08519 27.0784 1.19647 27.1245 1.3125 27.1245H26.6875C26.8035 27.1245 26.9148 27.0784 26.9969 26.9964C27.0789 26.9143 27.125 26.803 27.125 26.687V21.8745C27.125 20.999 26.8623 20.1437 26.3709 19.4191C25.8795 18.6946 25.1821 18.1341 24.3687 17.8101ZM21 15.7495C21 15.4034 21.1026 15.065 21.2949 14.7773C21.4872 14.4895 21.7605 14.2652 22.0803 14.1327C22.4001 14.0003 22.7519 13.9656 23.0914 14.0331C23.4309 14.1007 23.7427 14.2673 23.9874 14.5121C24.2322 14.7568 24.3988 15.0686 24.4664 15.4081C24.5339 15.7476 24.4992 16.0994 24.3668 16.4192C24.2343 16.739 24.01 17.0123 23.7222 17.2046C23.4345 17.3969 23.0961 17.4995 22.75 17.4995C22.2859 17.4995 21.8408 17.3151 21.5126 16.9869C21.1844 16.6588 21 16.2136 21 15.7495ZM12.25 8.74951C12.25 8.40339 12.3526 8.06505 12.5449 7.77726C12.7372 7.48948 13.0105 7.26517 13.3303 7.13272C13.6501 7.00027 14.0019 6.96561 14.3414 7.03314C14.6809 7.10066 14.9927 7.26733 15.2374 7.51207C15.4822 7.75682 15.6489 8.06864 15.7164 8.4081C15.7839 8.74757 15.7492 9.09944 15.6168 9.41921C15.4843 9.73898 15.26 10.0123 14.9722 10.2046C14.6845 10.3969 14.3461 10.4995 14 10.4995C13.5359 10.4995 13.0908 10.3151 12.7626 9.98695C12.4344 9.65876 12.25 9.21364 12.25 8.74951ZM10.5 14.8745C10.5 13.9463 10.8687 13.056 11.5251 12.3996C12.1815 11.7433 13.0717 11.3745 14 11.3745C14.9283 11.3745 15.8185 11.7433 16.4749 12.3996C17.1313 13.056 17.5 13.9463 17.5 14.8745V16.187H16.7387L17.0625 14.0651C17.072 14.0024 17.0678 13.9384 17.0501 13.8775C17.0324 13.8166 17.0017 13.7603 16.9601 13.7124C16.9185 13.6645 16.867 13.6263 16.8091 13.6003C16.7512 13.5744 16.6884 13.5613 16.625 13.562H11.375C11.3116 13.5613 11.2488 13.5744 11.1909 13.6003C11.133 13.6263 11.0815 13.6645 11.0399 13.7124C10.9983 13.7603 10.9676 13.8166 10.9499 13.8775C10.9322 13.9384 10.928 14.0024 10.9375 14.0651L11.2612 16.187H10.5V14.8745ZM16.1175 14.437L15.7237 17.062H12.2762L11.8825 14.437H16.1175ZM11.375 17.062L11.4494 17.5651C11.4652 17.6695 11.5182 17.7646 11.5986 17.8329C11.679 17.9012 11.7814 17.9382 11.8869 17.937H16.0869C16.1924 17.9382 16.2948 17.9012 16.3752 17.8329C16.4556 17.7646 16.5086 17.6695 16.5244 17.5651L16.625 17.062H18.4187L18.7556 20.2251L18.9088 21.9751L16.9006 22.7801C16.8192 22.8126 16.7494 22.8687 16.7003 22.9412C16.6511 23.0138 16.6249 23.0994 16.625 23.187V24.4995C16.625 24.5627 16.6387 24.6251 16.6651 24.6825C16.6915 24.7399 16.7301 24.7909 16.7781 24.832C16.8574 24.8998 16.9582 24.937 17.0625 24.937H17.1281L19.1406 24.6264L19.2806 26.2495H8.71938L8.85938 24.622L10.8719 24.9326H10.9375C11.0418 24.9326 11.1426 24.8954 11.2219 24.8276C11.2693 24.787 11.3076 24.7368 11.334 24.6802C11.3604 24.6236 11.3744 24.562 11.375 24.4995V23.187C11.3751 23.0994 11.3489 23.0138 11.2997 22.9412C11.2506 22.8687 11.1808 22.8126 11.0994 22.7801L9.09562 21.9795L9.58562 17.062H11.375ZM3.5 15.7495C3.5 15.4034 3.60264 15.065 3.79493 14.7773C3.98722 14.4895 4.26053 14.2652 4.5803 14.1327C4.90007 14.0003 5.25194 13.9656 5.59141 14.0331C5.93087 14.1007 6.24269 14.2673 6.48744 14.5121C6.73218 14.7568 6.89885 15.0686 6.96637 15.4081C7.0339 15.7476 6.99924 16.0994 6.86679 16.4192C6.73434 16.739 6.51003 17.0123 6.22225 17.2046C5.93446 17.3969 5.59612 17.4995 5.25 17.4995C4.78587 17.4995 4.34075 17.3151 4.01256 16.9869C3.68437 16.6588 3.5 16.2136 3.5 15.7495ZM1.75 21.8745C1.75 20.9463 2.11875 20.056 2.77513 19.3996C3.4315 18.7433 4.32174 18.3745 5.25 18.3745C5.90069 18.3745 6.53851 18.5558 7.09185 18.8981C7.64518 19.2405 8.09213 19.7303 8.3825 20.3126L8.25125 21.6251L7 21.1395V20.1245H6.125V21.437C6.12492 21.5246 6.15114 21.6103 6.20029 21.6828C6.24943 21.7553 6.31922 21.8115 6.40063 21.8439L10.5 23.4845V23.9876L5.53875 23.2264L4.76438 21.6776L3.98562 22.0714L4.86062 23.8214C4.89186 23.8837 4.93754 23.9377 4.99386 23.9788C5.05017 24.0199 5.11549 24.0469 5.18438 24.0576L7.99312 24.4951L7.84 26.2451H1.75V21.8745ZM26.25 26.2495H20.16L20.0069 24.4995L22.8156 24.062C22.8845 24.0513 22.9498 24.0242 23.0061 23.9831C23.0625 23.942 23.1081 23.8881 23.1394 23.8258L24.0144 22.0758L23.2356 21.682L22.4613 23.2308L17.5 23.9876V23.4845L21.5994 21.8439C21.6808 21.8115 21.7506 21.7553 21.7997 21.6828C21.8489 21.6103 21.8751 21.5246 21.875 21.437V20.1245H21V21.1395L19.7575 21.6383L19.6394 20.282C19.9323 19.7087 20.3776 19.2274 20.9264 18.8908C21.4752 18.5543 22.1062 18.3756 22.75 18.3745C23.6783 18.3745 24.5685 18.7433 25.2249 19.3996C25.8813 20.056 26.25 20.9463 26.25 21.8745V26.2495Z" fill="#C0D88D"/>
<path d="M1.3125 10.5H3.71875L4.9 12.075C4.94075 12.1293 4.9936 12.1734 5.05434 12.2038C5.11509 12.2342 5.18208 12.25 5.25 12.25C5.31792 12.25 5.38491 12.2342 5.44566 12.2038C5.5064 12.1734 5.55925 12.1293 5.6 12.075L6.78125 10.5H9.1875C9.30353 10.5 9.41481 10.4539 9.49686 10.3719C9.57891 10.2898 9.625 10.1785 9.625 10.0625V1.3125C9.625 1.19647 9.57891 1.08519 9.49686 1.00314C9.41481 0.921094 9.30353 0.875 9.1875 0.875H1.3125C1.19647 0.875 1.08519 0.921094 1.00314 1.00314C0.921094 1.08519 0.875 1.19647 0.875 1.3125V10.0625C0.875 10.1785 0.921094 10.2898 1.00314 10.3719C1.08519 10.4539 1.19647 10.5 1.3125 10.5ZM1.75 1.75H8.75V9.625H6.5625C6.49458 9.625 6.42759 9.64081 6.36684 9.67119C6.3061 9.70156 6.25325 9.74566 6.2125 9.8L5.25 11.0819L4.2875 9.8C4.24675 9.74566 4.19391 9.70156 4.13316 9.67119C4.07241 9.64081 4.00542 9.625 3.9375 9.625H1.75V1.75Z" fill="#C0D88D"/>
<path d="M2.625 7.875H7.875V8.75H2.625V7.875Z" fill="#C0D88D"/>
<path d="M2.625 6.125H7.875V7H2.625V6.125Z" fill="#C0D88D"/>
<path d="M2.625 4.375H7.875V5.25H2.625V4.375Z" fill="#C0D88D"/>
<path d="M7 2.625H7.875V3.5H7V2.625Z" fill="#C0D88D"/>
<path d="M4.375 2.625H6.125V3.5H4.375V2.625Z" fill="#C0D88D"/>
<path d="M2.625 2.625H3.5V3.5H2.625V2.625Z" fill="#C0D88D"/>
<path d="M26.6875 0.875H18.8125C18.6965 0.875 18.5852 0.921094 18.5031 1.00314C18.4211 1.08519 18.375 1.19647 18.375 1.3125V10.0625C18.375 10.1785 18.4211 10.2898 18.5031 10.3719C18.5852 10.4539 18.6965 10.5 18.8125 10.5H21.2188L22.4 12.075C22.4408 12.1293 22.4936 12.1734 22.5543 12.2038C22.6151 12.2342 22.6821 12.25 22.75 12.25C22.8179 12.25 22.8849 12.2342 22.9457 12.2038C23.0064 12.1734 23.0592 12.1293 23.1 12.075L24.2812 10.5H26.6875C26.8035 10.5 26.9148 10.4539 26.9969 10.3719C27.0789 10.2898 27.125 10.1785 27.125 10.0625V1.3125C27.125 1.19647 27.0789 1.08519 26.9969 1.00314C26.9148 0.921094 26.8035 0.875 26.6875 0.875ZM26.25 9.625H24.0625C23.9946 9.625 23.9276 9.64081 23.8668 9.67119C23.8061 9.70156 23.7533 9.74566 23.7125 9.8L22.75 11.0819L21.7875 9.8C21.7467 9.74566 21.6939 9.70156 21.6332 9.67119C21.5724 9.64081 21.5054 9.625 21.4375 9.625H19.25V1.75H26.25V9.625Z" fill="#C0D88D"/>
<path d="M20.125 2.625H25.375V3.5H20.125V2.625Z" fill="#C0D88D"/>
<path d="M20.125 4.375H25.375V5.25H20.125V4.375Z" fill="#C0D88D"/>
<path d="M20.125 6.125H25.375V7H20.125V6.125Z" fill="#C0D88D"/>
<path d="M20.125 7.875H21V8.75H20.125V7.875Z" fill="#C0D88D"/>
<path d="M21.875 7.875H23.625V8.75H21.875V7.875Z" fill="#C0D88D"/>
<path d="M24.5 7.875H25.375V8.75H24.5V7.875Z" fill="#C0D88D"/>
</g>
<defs>
<clipPath id="clip0_391_1434">
<rect width="28" height="28" fill="white"/>
</clipPath>
</defs>
</svg>
