<svg width="29" height="29" viewBox="0 0 29 29" fill="none" xmlns="http://www.w3.org/2000/svg">
<g clip-path="url(#clip0_391_1178)">
<path d="M14.4998 7.54691L17.9432 4.67742H22.4514V0H11.2256V4.67742H14.4998V7.54691ZM12.1611 3.74194V0.935484H21.5159V3.74194H17.6047L15.4353 5.54987V3.74194H12.1611Z" fill="#CBEAA6"/>
<path d="M13.0967 1.87109H14.0322V2.80658H13.0967V1.87109Z" fill="#CBEAA6"/>
<path d="M14.9678 1.87109H18.7097V2.80658H14.9678V1.87109Z" fill="#CBEAA6"/>
<path d="M19.6455 1.87109H20.581V2.80658H19.6455V1.87109Z" fill="#CBEAA6"/>
<path d="M23.8103 28.064L23.4321 24.2775C24.9938 24.0307 26.1936 22.6784 26.1936 21.0479V14.9672H24.3226V14.3209C24.3226 13.6851 23.9731 13.1141 23.4113 12.8213C23.9699 12.3081 24.3226 11.5743 24.3226 10.7576V9.82208C24.3226 8.27428 23.0639 7.01562 21.5161 7.01562C19.9683 7.01562 18.7097 8.27428 18.7097 9.82208V10.7576C18.7097 11.9685 19.4819 12.9994 20.5587 13.3923L18.0483 15.9027H15.4252C15.3729 15.123 14.8373 14.4433 14.0786 14.2263L12.1613 13.6791V12.8437C12.7339 12.3296 13.0968 11.5864 13.0968 10.7576V9.82208C13.0968 8.27428 11.8381 7.01562 10.2903 7.01562C8.74253 7.01562 7.48387 8.27428 7.48387 9.82208V10.7576C7.48387 11.5859 7.84678 12.3291 8.41936 12.8437V13.6796L6.50202 14.2268C5.70312 14.4545 5.14516 15.1945 5.14516 16.0258V17.7737H3.27419V20.5801H4.20968V28.064H0V28.9995H29V28.064H23.8103ZM19.6452 20.5801V18.4351L22.9596 15.1207C23.1991 14.8811 23.3417 14.5593 23.3736 14.2236C23.3777 14.2563 23.3871 14.2871 23.3871 14.3209V20.1124C23.3871 20.886 22.7574 21.5156 21.9839 21.5156H18.2419V20.5801H19.6452ZM18.2419 24.3221H20.6252L20.9993 28.064H18.2419V24.3221ZM21.5652 24.3221H22.4962L22.8703 28.064H21.9393L21.5652 24.3221ZM24.3226 20.1124V15.9027H25.2581V21.0479C25.2581 22.3374 24.2088 23.3866 22.9194 23.3866H18.2419V22.4511H21.9839C23.2734 22.4511 24.3226 21.4019 24.3226 20.1124ZM19.6452 10.7576V9.82208C19.6452 8.79021 20.4843 7.95111 21.5161 7.95111C22.548 7.95111 23.3871 8.79021 23.3871 9.82208V10.7576C23.3871 11.7894 22.548 12.6285 21.5161 12.6285C20.4843 12.6285 19.6452 11.7894 19.6452 10.7576ZM18.4356 16.8382L21.5563 13.7175C21.6541 13.6197 21.7893 13.564 21.9272 13.564C22.2164 13.564 22.4516 13.7993 22.4516 14.0884C22.4516 14.2263 22.3959 14.3615 22.2981 14.4593L18.9837 17.7737H14.0323C13.7742 17.7737 13.5645 17.564 13.5645 17.3059C13.5645 17.0479 13.7742 16.8382 14.0323 16.8382H18.4356ZM8.41936 9.82208C8.41936 8.79021 9.25846 7.95111 10.2903 7.95111C11.3222 7.95111 12.1613 8.79021 12.1613 9.82208V10.7576C12.1613 11.7894 11.3222 12.6285 10.2903 12.6285C9.25846 12.6285 8.41936 11.7894 8.41936 10.7576V9.82208ZM10.2903 13.564C10.6187 13.564 10.9326 13.5042 11.2258 13.4003V13.9027C11.1098 14.0818 10.7875 14.4995 10.2903 14.4995C9.79312 14.4995 9.47086 14.0818 9.35484 13.9027V13.4003C9.64809 13.5042 9.9619 13.564 10.2903 13.564ZM6.08065 16.0258C6.08065 15.6099 6.35997 15.2404 6.75896 15.1262L8.68589 14.5758C8.95721 14.9293 9.48525 15.435 10.2903 15.435C11.0954 15.435 11.6234 14.9293 11.8948 14.5753L13.8217 15.1257C14.18 15.2283 14.4299 15.5398 14.4799 15.9023H14.0323C13.2587 15.9023 12.629 16.5319 12.629 17.3055C12.629 17.4702 12.6626 17.6264 12.7151 17.7732H6.08065V16.0258ZM4.20968 18.7092H18.7097V19.6447H4.20968V18.7092ZM5.14516 22.4511H6.54839V21.5156H5.14516V20.5801H17.3065V21.5156H7.48387V22.4511H17.3065V28.064H16.1924L15.2569 26.193H7.19473L6.25925 28.064H5.14516V22.4511ZM15.1463 28.064H7.30527L7.77301 27.1285H14.6786L15.1463 28.064Z" fill="#CBEAA6"/>
</g>
<defs>
<clipPath id="clip0_391_1178">
<rect width="29" height="29" fill="white"/>
</clipPath>
</defs>
</svg>
