<svg width="31" height="31" viewBox="0 0 31 31" fill="none" xmlns="http://www.w3.org/2000/svg">
<g clip-path="url(#clip0_391_1225)">
<path d="M10.0021 1.54794C9.89131 1.29243 9.59433 1.17509 9.33882 1.28589C8.78997 1.5239 8.24892 1.79709 7.73076 2.09776C7.48978 2.23763 7.40793 2.54617 7.54773 2.78709C7.64133 2.94838 7.81044 3.03842 7.98433 3.03842C8.07031 3.03842 8.15737 3.01638 8.23705 2.97018C8.72137 2.68906 9.22705 2.4338 9.74001 2.21135C9.99557 2.10049 10.1129 1.80351 10.0021 1.54794Z" fill="#C0D88D"/>
<path d="M19.9206 0.651078C19.3466 0.480579 18.7562 0.342229 18.1658 0.239905C17.8916 0.192376 17.6302 0.376196 17.5827 0.650655C17.5351 0.925174 17.7189 1.18619 17.9934 1.23378C18.5452 1.32944 19.0969 1.45871 19.6333 1.61801C19.6813 1.63224 19.7296 1.63902 19.7772 1.63902C19.9947 1.63902 20.1953 1.49722 20.2605 1.2781C20.3398 1.01115 20.1876 0.730395 19.9206 0.651078Z" fill="#C0D88D"/>
<path d="M16.3764 0.0361191C16.0868 0.0199531 15.7921 0.0117188 15.5005 0.0117188C15.4999 0.0117188 15.4994 0.0117188 15.4988 0.0117188C15.1919 0.0117188 14.8811 0.0208008 14.5753 0.0389042C14.2972 0.0553124 14.0851 0.293988 14.1015 0.572018C14.1172 0.840059 14.3394 1.04671 14.6044 1.04671C14.6144 1.04671 14.6244 1.04646 14.6345 1.0458C14.9208 1.0289 15.2116 1.02037 15.4989 1.02037C15.4994 1.02037 15.4999 1.02037 15.5004 1.02037C15.7734 1.02037 16.0492 1.02806 16.3202 1.04319C16.5997 1.05912 16.8363 0.845871 16.8518 0.56778C16.8673 0.289689 16.6545 0.0516796 16.3764 0.0361191Z" fill="#C0D88D"/>
<path d="M30.8926 13.6817C30.8226 13.0863 30.7167 12.4892 30.5781 11.9072C30.5135 11.6362 30.2416 11.4687 29.9705 11.5334C29.6996 11.598 29.5323 11.87 29.5969 12.141C29.7265 12.685 29.8254 13.243 29.8909 13.7996C29.9211 14.0562 30.139 14.2451 30.3911 14.2451C30.4108 14.2451 30.4307 14.2439 30.4507 14.2416C30.7273 14.2089 30.9252 13.9583 30.8926 13.6817Z" fill="#C0D88D"/>
<path d="M30.2107 18.4784C29.94 18.4145 29.668 18.5822 29.604 18.8534C29.4753 19.3985 29.3129 19.9418 29.1214 20.4682C29.0261 20.7299 29.1611 21.0193 29.4229 21.1146C29.4798 21.1353 29.538 21.1451 29.5953 21.1451C29.8014 21.1451 29.9947 21.0179 30.0693 20.813C30.2743 20.2497 30.448 19.6683 30.5857 19.085C30.6497 18.814 30.4817 18.5424 30.2107 18.4784Z" fill="#C0D88D"/>
<path d="M23.2287 2.07345C22.7091 1.77398 22.1667 1.50231 21.6167 1.26587C21.3606 1.15556 21.0641 1.27411 20.9542 1.53004C20.8442 1.78591 20.9625 2.08253 21.2185 2.19254C21.7326 2.41354 22.2394 2.66753 22.7251 2.94738C22.8045 2.99309 22.891 3.01483 22.9765 3.01483C23.1509 3.01483 23.3206 2.92419 23.4139 2.76223C23.553 2.52089 23.4701 2.21252 23.2287 2.07345Z" fill="#C0D88D"/>
<path d="M1.88342 20.4818C1.69155 19.9561 1.52868 19.4134 1.39947 18.8685C1.33523 18.5975 1.06398 18.4299 0.792371 18.4942C0.521364 18.5585 0.35377 18.8303 0.41801 19.1013C0.556299 19.6844 0.730492 20.2652 0.935927 20.8278C1.01058 21.0324 1.20391 21.1593 1.40971 21.1593C1.4671 21.1593 1.52559 21.1495 1.58263 21.1286C1.84425 21.033 1.97897 20.7434 1.88342 20.4818Z" fill="#C0D88D"/>
<path d="M13.3692 0.658875C13.3207 0.384538 13.0593 0.201566 12.7848 0.249943C12.1945 0.354204 11.6045 0.494491 11.0312 0.666807C10.7644 0.747032 10.6132 1.02827 10.6934 1.29498C10.759 1.51331 10.9594 1.65426 11.1762 1.65426C11.2242 1.65426 11.2732 1.64736 11.3216 1.63277C11.8573 1.47178 12.4086 1.34069 12.9602 1.24321C13.2346 1.19484 13.4177 0.933152 13.3692 0.658875Z" fill="#C0D88D"/>
<path d="M30.4958 14.9766C30.2173 14.9766 29.9916 15.2023 29.9916 15.4809V15.5128C29.9916 16.0745 29.959 16.6406 29.895 17.1952C29.863 17.4719 30.0614 17.7222 30.338 17.7541C30.3577 17.7564 30.3772 17.7575 30.3966 17.7575C30.6492 17.7575 30.8672 17.5681 30.897 17.3111C30.9655 16.7182 31.0003 16.1131 31.0003 15.5128V15.4809C31.0001 15.2023 30.7744 14.9766 30.4958 14.9766Z" fill="#C0D88D"/>
<path d="M18.6077 30.1945C18.5596 29.9202 18.298 29.7368 18.0238 29.7851C17.4736 29.8816 16.9105 29.9471 16.3502 29.9795C16.0722 29.9956 15.8598 30.234 15.8759 30.512C15.8913 30.7802 16.1137 30.9872 16.3789 30.9872C16.3886 30.9872 16.3986 30.987 16.4085 30.9864C17.0075 30.9517 17.6098 30.8818 18.1983 30.7784C18.4726 30.7302 18.656 30.4689 18.6077 30.1945Z" fill="#C0D88D"/>
<path d="M14.6643 29.9796C14.1038 29.9477 13.5407 29.8829 12.9906 29.7869C12.7157 29.739 12.455 29.9227 12.407 30.197C12.3591 30.4714 12.5428 30.7326 12.8171 30.7805C13.4056 30.8832 14.0078 30.9526 14.6071 30.9866C14.6168 30.9872 14.6265 30.9874 14.6362 30.9874C14.9016 30.9874 15.124 30.78 15.1392 30.5117C15.155 30.2336 14.9423 29.9954 14.6643 29.9796Z" fill="#C0D88D"/>
<path d="M11.3515 29.402C10.815 29.242 10.2821 29.0484 9.76761 28.8265C9.51192 28.7163 9.21506 28.8341 9.10487 29.09C8.99449 29.3457 9.11249 29.6425 9.3683 29.7527C9.91898 29.9901 10.4892 30.1972 11.0633 30.3685C11.1114 30.3828 11.1599 30.3897 11.2077 30.3897C11.4249 30.3897 11.6255 30.2481 11.6908 30.0293C11.7703 29.7625 11.6184 29.4816 11.3515 29.402Z" fill="#C0D88D"/>
<path d="M1.01621 11.5799C0.745081 11.5161 0.473529 11.6844 0.409834 11.9556C0.273119 12.538 0.16916 13.1354 0.100985 13.731C0.0692581 14.0077 0.267912 14.2577 0.544671 14.2894C0.564228 14.2917 0.583542 14.2927 0.602736 14.2927C0.855579 14.2927 1.07373 14.103 1.10309 13.8458C1.16685 13.2889 1.26397 12.7306 1.39184 12.1862C1.45554 11.915 1.2874 11.6436 1.01621 11.5799Z" fill="#C0D88D"/>
<path d="M21.9091 29.0836C21.7985 28.8279 21.5018 28.7103 21.2461 28.8209C20.7319 29.0431 20.1994 29.2372 19.6635 29.3977C19.3967 29.4776 19.2452 29.7587 19.325 30.0255C19.3904 30.2441 19.5909 30.3853 19.808 30.3853C19.8559 30.3853 19.9046 30.3784 19.9529 30.364C20.5265 30.1922 21.0963 29.9846 21.6464 29.7467C21.902 29.6361 22.0197 29.3392 21.9091 29.0836Z" fill="#C0D88D"/>
<path d="M1.10692 17.2097C1.04225 16.6551 1.00919 16.0891 1.00865 15.5272C1.00841 15.2489 0.782628 15.0234 0.504355 15.0234C0.504234 15.0234 0.504052 15.0234 0.50381 15.0234C0.225295 15.0237 -0.000241992 15.2497 1.94867e-07 15.5283C0.000605662 16.1286 0.035965 16.7336 0.105109 17.3265C0.13508 17.5834 0.352988 17.7724 0.605347 17.7724C0.624843 17.7724 0.644581 17.7714 0.66444 17.7691C0.941078 17.7368 1.13919 17.4864 1.10692 17.2097Z" fill="#C0D88D"/>
<path d="M8.06093 7.11521C7.97974 6.87739 7.72078 6.75042 7.48338 6.83155C7.24549 6.91274 7.11852 7.17128 7.19972 7.40917C7.29665 7.69313 7.34576 7.99102 7.34576 8.29436V9.50959C7.34576 9.5989 7.27316 9.6715 7.18385 9.6715H1.35695C1.26765 9.6715 1.19505 9.5989 1.19505 9.50959V8.29436C1.19505 7.51173 1.53115 6.77028 2.10731 6.25357C2.59477 6.90094 3.36947 7.32041 4.24043 7.32041C5.71214 7.32041 6.9094 6.12309 6.9094 4.65144C6.9094 3.17979 5.71214 1.98242 4.24055 1.98242C2.76897 1.98242 1.57159 3.17973 1.57159 4.65138C1.57159 4.91906 1.61161 5.17741 1.6853 5.42136C0.805435 6.1111 0.285156 7.17061 0.285156 8.29436V9.50959C0.285156 10.1005 0.765958 10.5815 1.35708 10.5815H7.18397C7.77503 10.5815 8.2559 10.1007 8.2559 9.50953V8.2943C8.25577 7.89076 8.19026 7.49405 8.06093 7.11521ZM4.24055 2.89238C5.21045 2.89238 5.99956 3.68142 5.99956 4.65138C5.99956 5.62134 5.21051 6.41039 4.24055 6.41039C3.27072 6.41039 2.48161 5.62134 2.48161 4.65138C2.48161 3.68142 3.27066 2.89238 4.24055 2.89238Z" fill="#C0D88D"/>
<path d="M30.5199 7.11711C30.4387 6.87928 30.1799 6.75231 29.9424 6.83344C29.7045 6.91464 29.5775 7.17317 29.6587 7.41106C29.7556 7.69502 29.8047 7.99291 29.8047 8.29625V9.51149C29.8047 9.60079 29.7321 9.67339 29.6428 9.67339H23.8159C23.7266 9.67339 23.654 9.60079 23.654 9.51149V8.29625C23.654 7.51363 23.9901 6.77217 24.5663 6.25546C25.0538 6.90283 25.8285 7.3223 26.6994 7.3223C28.1711 7.3223 29.3684 6.12499 29.3684 4.65334C29.3684 3.18169 28.1711 1.98438 26.6994 1.98438C25.2277 1.98438 24.0305 3.18169 24.0305 4.65334C24.0305 4.92101 24.0705 5.17937 24.1442 5.42331C23.2644 6.11306 22.7441 7.17251 22.7441 8.29625V9.51149C22.7441 10.1025 23.2249 10.5834 23.8161 10.5834H29.643C30.234 10.5834 30.7149 10.1026 30.7149 9.51149V8.29625C30.7148 7.89265 30.6492 7.49595 30.5199 7.11711ZM26.6994 2.89427C27.6693 2.89427 28.4584 3.68332 28.4584 4.65328C28.4584 5.62323 27.6694 6.41228 26.6994 6.41228C25.7296 6.41228 24.9405 5.62323 24.9405 4.65328C24.9405 3.68332 25.7296 2.89427 26.6994 2.89427Z" fill="#C0D88D"/>
<path d="M30.5199 25.5742C30.4388 25.3362 30.1799 25.2092 29.9424 25.2905C29.7045 25.3717 29.5776 25.6302 29.6588 25.8681C29.7556 26.1521 29.8048 26.4499 29.8048 26.7533V27.9685C29.8048 28.0578 29.7322 28.1304 29.6429 28.1304H23.816C23.7267 28.1304 23.6541 28.0578 23.6541 27.9685V26.7533C23.6541 25.9707 23.9902 25.2292 24.5664 24.7125C25.0538 25.3599 25.8285 25.7793 26.6995 25.7793C28.1711 25.7793 29.3684 24.582 29.3684 23.1104C29.3684 21.6387 28.1711 20.4414 26.6995 20.4414C25.2278 20.4414 24.0306 21.6387 24.0306 23.1104C24.0306 23.378 24.0706 23.6364 24.1443 23.8803C23.2644 24.5701 22.7441 25.6296 22.7441 26.7533V27.9686C22.7441 28.5596 23.2249 29.0405 23.8161 29.0405H29.643C30.234 29.0405 30.7149 28.5597 30.7149 27.9686V26.7533C30.7148 26.3497 30.6492 25.953 30.5199 25.5742ZM26.6995 21.3513C27.6694 21.3513 28.4585 22.1403 28.4585 23.1103C28.4585 24.0803 27.6694 24.8693 26.6995 24.8693C25.7296 24.8693 24.9405 24.0803 24.9405 23.1103C24.9405 22.1403 25.7296 21.3513 26.6995 21.3513Z" fill="#C0D88D"/>
<path d="M8.06093 25.5742C7.97974 25.3362 7.72078 25.2092 7.48344 25.2905C7.24555 25.3717 7.11858 25.6302 7.19978 25.8681C7.29671 26.1521 7.34582 26.4499 7.34582 26.7533V27.9685C7.34582 28.0578 7.27322 28.1304 7.18391 28.1304H1.35702C1.26771 28.1304 1.19511 28.0578 1.19511 27.9685V26.7533C1.19511 25.9707 1.53121 25.2292 2.10737 24.7125C2.59483 25.3599 3.36953 25.7793 4.24049 25.7793C5.71214 25.7793 6.90946 24.582 6.90946 23.1104C6.90946 21.6387 5.71214 20.4414 4.24049 20.4414C2.76884 20.4414 1.57159 21.6387 1.57159 23.1104C1.57159 23.378 1.61161 23.6364 1.6853 23.8803C0.805435 24.5701 0.285156 25.6296 0.285156 26.7533V27.9686C0.285156 28.5596 0.766019 29.0405 1.35708 29.0405H7.18397C7.77503 29.0405 8.2559 28.5597 8.2559 27.9686V26.7533C8.25577 26.3497 8.19026 25.953 8.06093 25.5742ZM4.24055 21.3513C5.21045 21.3513 5.99956 22.1403 5.99956 23.1103C5.99956 24.0803 5.21051 24.8693 4.24055 24.8693C3.27072 24.8693 2.48161 24.0803 2.48161 23.1103C2.48161 22.1403 3.27066 21.3513 4.24055 21.3513Z" fill="#C0D88D"/>
<path d="M19.8036 10.4844H14.9619C12.8697 10.4844 11.1292 12.0148 10.7986 14.0147H10.6335C8.74628 14.0147 7.21094 15.5936 7.21094 17.5343C7.21094 18.9015 7.96795 20.126 9.15631 20.7093C9.7404 22.1241 11.5628 22.8027 11.6435 22.8322C11.6944 22.8507 11.747 22.8597 11.7992 22.8597C11.9237 22.8597 12.0454 22.8085 12.1331 22.7139C12.2576 22.5794 12.2894 22.3834 12.2136 22.2166C12.0305 21.8133 11.9275 21.4237 11.9057 21.0539H14.4489C15.8556 21.0539 17.0663 20.1764 17.5918 18.9259H18.3162C18.3035 19.4242 18.1683 19.9508 17.9123 20.4969C17.8344 20.663 17.8639 20.8595 17.9869 20.9954C18.0748 21.0924 18.1981 21.145 18.3243 21.145C18.375 21.145 18.4261 21.1365 18.4757 21.1191C18.5767 21.0834 20.8736 20.2551 21.5784 18.5347C23.071 17.8443 24.0243 16.3629 24.0243 14.7052C24.0243 12.3778 22.1309 10.4844 19.8036 10.4844ZM21.0476 17.7733C20.9244 17.8234 20.828 17.923 20.7875 18.0497C20.5321 18.8469 19.7549 19.4403 19.1136 19.8106C19.2238 19.3363 19.2541 18.8723 19.2036 18.423C19.1775 18.1917 18.9838 18.0158 18.7511 18.0158H14.962C14.5263 18.0158 14.1103 17.9307 13.729 17.7769C13.5602 17.7088 13.3674 17.7459 13.2387 17.8746L13.2322 17.8811C13.0034 18.1099 13.0834 18.4972 13.3833 18.6188C13.8711 18.8166 14.404 18.9258 14.9619 18.9258H16.5727C16.1271 19.657 15.3418 20.1438 14.4488 20.1438H11.4628C11.2322 20.1438 11.0363 20.3165 11.0109 20.5458C10.9765 20.8566 10.987 21.1756 11.0422 21.5009C10.6005 21.2093 10.129 20.788 9.9557 20.2484C9.91368 20.1175 9.82093 20.0077 9.69414 19.9546C8.73835 19.554 8.12083 18.6039 8.12083 17.5343C8.12083 16.0954 9.24791 14.9248 10.6334 14.9248H10.747C10.7715 15.4003 10.8753 15.8552 11.0453 16.2767C11.1666 16.5777 11.5543 16.6591 11.7837 16.4296C11.786 16.4274 11.7882 16.4252 11.7904 16.423C11.9186 16.2948 11.9564 16.1028 11.8888 15.9346C11.7272 15.5328 11.6419 15.0926 11.652 14.6314C11.6918 12.8243 13.2012 11.3945 15.0088 11.3945H19.7479C21.5749 11.3945 23.1201 12.889 23.1143 14.7159C23.1101 16.0657 22.2997 17.265 21.0476 17.7733Z" fill="#C0D88D"/>
</g>
<defs>
<clipPath id="clip0_391_1225">
<rect width="31" height="31" fill="white"/>
</clipPath>
</defs>
</svg>
