<svg width="35" height="35" viewBox="0 0 35 35" fill="none" xmlns="http://www.w3.org/2000/svg">
<g clip-path="url(#clip0_391_1288)">
<path d="M11.4844 28.9844H12.5781V30.0781H11.4844V28.9844Z" fill="#C0D88D"/>
<path d="M11.4844 31.1719H12.5781V32.2656H11.4844V31.1719Z" fill="#C0D88D"/>
<path d="M24.086 18.0469C24.5815 18.0469 25.048 17.8287 25.3646 17.448L27.6002 14.7656H31.7188C33.2265 14.7656 34.4531 13.539 34.4531 12.0312V6.5625C34.4531 5.05477 33.2265 3.82812 31.7188 3.82812H28.9844C28.9844 2.01852 27.5127 0.546875 25.7031 0.546875C23.8935 0.546875 22.4219 2.01852 22.4219 3.82812H19.6875C18.1798 3.82812 16.9531 5.05477 16.9531 6.5625V9.5818C15.9124 8.72102 14.578 8.20312 13.125 8.20312H12.5781C10.7647 8.20312 9.02891 9.03711 7.89359 10.4448C6.16273 10.8626 4.92188 12.4255 4.92188 14.2188C4.92188 16.1066 5.73125 17.8763 7.13891 19.1237C7.32211 20.8245 8.37594 22.2638 9.84375 22.9961V24.1763L6.02766 25.0742C2.80055 25.8333 0.546875 28.6792 0.546875 31.9944V34.4531H23.5156V31.9944C23.5156 30.923 23.2772 29.9026 22.8501 28.9844H24.8998L27.1354 31.6663C27.452 32.0474 27.9185 32.2656 28.414 32.2656C29.3316 32.2656 30.0781 31.5191 30.0781 30.6015V28.9844H31.7188C33.2265 28.9844 34.4531 27.7577 34.4531 26.25V21.875C34.4531 20.3673 33.2265 19.1406 31.7188 19.1406H20.7812C19.2735 19.1406 18.0469 20.3673 18.0469 21.875V25.0775C18.0425 25.0764 18.0387 25.0748 18.0348 25.0742L14.2188 24.1763V22.9961C15.6866 22.2638 16.7404 20.8239 16.9236 19.1237C18.194 17.9977 18.9711 16.4462 19.1105 14.7656H22.4219V16.3827C22.4219 17.3004 23.1684 18.0469 24.086 18.0469ZM25.7031 1.64062C26.9095 1.64062 27.8906 2.62172 27.8906 3.82812C27.8906 5.03453 26.9095 6.01562 25.7031 6.01562C24.4967 6.01562 23.5156 5.03453 23.5156 3.82812C23.5156 2.62172 24.4967 1.64062 25.7031 1.64062ZM10.168 25.2235L11.3477 26.7969L10.074 28.4949L8.97258 25.5046L10.168 25.2235ZM12.0312 27.708L13.5384 29.7172L12.197 33.3594H11.8661L10.5246 29.7172L12.0312 27.708ZM1.64062 31.9944C1.64062 29.1889 3.54758 26.781 6.27867 26.1384L7.89906 25.7573L10.7002 33.3594H6.01562V30.0781H4.92188V33.3594H1.64062V31.9944ZM19.1406 21.875C19.1406 20.9705 19.8767 20.2344 20.7812 20.2344H31.7188C32.6233 20.2344 33.3594 20.9705 33.3594 21.875V26.25C33.3594 27.1545 32.6233 27.8906 31.7188 27.8906H28.9844V30.6015C28.9844 30.9159 28.7284 31.1719 28.414 31.1719C28.2439 31.1719 28.0842 31.097 27.9759 30.9668L25.4127 27.8906H22.2141C21.4545 26.8144 20.3995 25.9536 19.1406 25.4324V21.875ZM22.4219 31.9944V33.3594H19.1406V30.0781H18.0469V33.3594H13.3623L16.1629 25.7573L17.7833 26.1384C20.5149 26.7816 22.4219 29.1895 22.4219 31.9944ZM15.0905 25.5052L13.9891 28.4955L12.7148 26.7969L13.8945 25.2235L15.0905 25.5052ZM13.125 24.4273L12.0312 25.8858L10.9375 24.4273V23.3888C11.2897 23.4691 11.655 23.5156 12.0312 23.5156C12.4075 23.5156 12.7728 23.4691 13.125 23.3888V24.4273ZM15.8594 18.5938C15.8594 20.7047 14.1416 22.4219 12.0312 22.4219C9.92086 22.4219 8.20312 20.7047 8.20312 18.5938V16.0251C8.20312 15.6319 8.5225 15.3125 8.9157 15.3125C9.0568 15.3125 9.19351 15.3541 9.31109 15.4323L10.7718 16.4062H14.2188C15.1233 16.4062 15.8594 17.1423 15.8594 18.0469V18.5938ZM16.9045 17.5634C16.6742 16.2865 15.5608 15.3125 14.2188 15.3125H11.1032L9.91758 14.5223C9.62008 14.3238 9.27336 14.2188 8.9157 14.2188C7.9193 14.2188 7.10938 15.0287 7.10938 16.0251V17.4929C6.40719 16.5566 6.01562 15.4159 6.01562 14.2188C6.01562 12.8942 6.95844 11.7441 8.25781 11.4844L8.51594 11.4324L8.64062 11.2656C9.56539 10.033 11.0376 9.29688 12.5781 9.29688H13.125C15.8391 9.29688 18.0469 11.5052 18.0469 14.2188C18.0469 15.4454 17.6395 16.6146 16.9045 17.5634ZM19.1127 13.6719C19.0154 12.5989 18.6348 11.6074 18.0469 10.7707V6.5625C18.0469 5.65797 18.783 4.92188 19.6875 4.92188H22.6133C22.8233 5.51359 23.1968 6.02656 23.6819 6.40773C21.665 7.21328 20.2344 9.18312 20.2344 11.4844V12.5781H31.1719V11.4844C31.1719 9.18312 29.7412 7.21328 27.7244 6.40773C28.2095 6.02656 28.583 5.51359 28.793 4.92188H31.7188C32.6233 4.92188 33.3594 5.65797 33.3594 6.5625V12.0312C33.3594 12.9358 32.6233 13.6719 31.7188 13.6719H27.0873L24.5235 16.748C24.4158 16.8782 24.2561 16.9531 24.086 16.9531C23.7716 16.9531 23.5156 16.6972 23.5156 16.3827V13.6719H19.1127ZM25.7031 7.10938C28.1154 7.10938 30.0781 9.07211 30.0781 11.4844H21.3281C21.3281 9.07211 23.2909 7.10938 25.7031 7.10938Z" fill="#C0D88D"/>
<path d="M20.2344 21.3281H32.2656V22.4219H20.2344V21.3281Z" fill="#C0D88D"/>
<path d="M20.2344 23.5156H32.2656V24.6094H20.2344V23.5156Z" fill="#C0D88D"/>
<path d="M22.4219 25.7031H30.0781V26.7969H22.4219V25.7031Z" fill="#C0D88D"/>
<path d="M31.1719 25.7031H32.2656V26.7969H31.1719V25.7031Z" fill="#C0D88D"/>
</g>
<defs>
<clipPath id="clip0_391_1288">
<rect width="35" height="35" fill="white"/>
</clipPath>
</defs>
</svg>
