<svg width="31" height="31" viewBox="0 0 31 31" fill="none" xmlns="http://www.w3.org/2000/svg">
<g clip-path="url(#clip0_383_941)">
<path d="M20.607 10.4905V10.5154L20.6187 10.5374L30.8055 29.7126C30.9386 29.9631 30.9306 30.2651 30.7845 30.5082L30.7845 30.5082C30.6383 30.7513 30.3755 30.9 30.0918 30.9H0.908188C0.623373 30.9 0.35958 30.7501 0.213838 30.5054C0.0680867 30.2607 0.0618954 29.9573 0.197562 29.7069L0.109635 29.6592L0.197564 29.7069L8.06866 15.1756L7.98073 15.128L8.06866 15.1756C8.20994 14.9148 8.48267 14.7523 8.77928 14.7523C9.0759 14.7523 9.34869 14.9148 9.48996 15.1756L12.9477 21.5593L13.0365 21.7232L13.124 21.5586L18.9789 10.5374L18.9906 10.5154V10.4905V0.908203C18.9906 0.461861 19.3525 0.1 19.7988 0.1H27.0644C27.3706 0.1 27.6504 0.272958 27.7873 0.546762L27.7873 0.546776C27.9242 0.820603 27.8947 1.14824 27.711 1.39312L26.3033 3.27008L26.2583 3.33008L26.3033 3.39008L27.711 5.26703C27.8947 5.51197 27.9242 5.83962 27.7873 6.11337L27.7873 6.11339C27.6504 6.3872 27.3706 6.56016 27.0644 6.56016H20.707H20.607V6.66016V10.4905ZM19.8871 12.6057L19.7988 12.4395L19.7105 12.6057L17.0642 17.587L17.0097 17.6895L17.1191 17.7282C17.502 17.8637 17.8028 18.0344 18.0758 18.1896L18.0798 18.1918C18.3249 18.3311 18.5455 18.4564 18.8085 18.5456C19.0746 18.6358 19.3801 18.6879 19.7988 18.6879C20.2175 18.6879 20.5231 18.6358 20.7892 18.5456C21.0521 18.4564 21.2727 18.3311 21.5178 18.1919L21.5219 18.1896L21.4724 18.1026L21.5219 18.1895C21.7948 18.0344 22.0955 17.8637 22.4785 17.7282L22.5879 17.6895L22.5334 17.587L19.8871 12.6057ZM20.707 1.71641H20.607V1.81641V4.84375V4.94375H20.707H25.248H25.448L25.328 4.78375L24.6015 3.815L24.5215 3.875L24.6015 3.815C24.3859 3.52766 24.3859 3.1325 24.6015 2.84516L24.5215 2.78516L24.6015 2.84516L25.328 1.87641L25.448 1.71641H25.248H20.707ZM8.86721 17.4198L8.77928 17.2575L8.69135 17.4198L7.9522 18.7843L8.04012 18.832L7.9522 18.7843L7.00621 20.5308L6.96016 20.6158L7.04357 20.6647C7.20414 20.7588 7.34609 20.8565 7.47948 20.9483L7.48439 20.9517C7.67593 21.0836 7.84549 21.2003 8.04283 21.2824C8.24455 21.3663 8.47107 21.4125 8.77928 21.4125C9.08749 21.4125 9.31401 21.3663 9.51574 21.2824C9.71311 21.2003 9.8827 21.0835 10.0743 20.9516L10.0791 20.9483C10.2125 20.8564 10.3544 20.7588 10.515 20.6646L10.5984 20.6158L10.5524 20.5307L8.86721 17.4198ZM6.2804 22.0924L6.19038 22.0369L6.14003 22.1299L2.34513 29.136L2.26517 29.2836H2.43306H8.95989H9.02L9.0482 29.2305L12.1012 23.4838L12.1263 23.4365L12.1008 23.3893L11.4186 22.1298L11.3682 22.0369L11.2782 22.0923C11.187 22.1485 11.095 22.2113 10.9958 22.2796L11.0525 22.362L10.9958 22.2796C10.5045 22.6179 9.90774 23.0289 8.77928 23.0289C7.65099 23.0289 7.05428 22.6181 6.56298 22.2798L6.56276 22.2797C6.46354 22.2113 6.37162 22.1486 6.2804 22.0924ZM10.9285 29.1367L10.8504 29.2836H11.0168H28.5809H28.7473L28.6692 29.1367L23.4022 19.2224L23.3663 19.1548L23.2917 19.1718C22.9134 19.2579 22.6422 19.4121 22.3224 19.5938L22.3205 19.5949L22.3196 19.5954C21.7585 19.9142 21.072 20.3043 19.7988 20.3043C18.5257 20.3043 17.8391 19.9142 17.278 19.5954L17.2772 19.5949L17.275 19.5937C16.9553 19.412 16.6842 19.2579 16.3059 19.1718L16.2313 19.1548L16.1954 19.2224L13.7576 23.8112L13.7576 23.8111L13.7565 23.8134C13.7562 23.8138 13.756 23.8143 13.7558 23.8147L10.9285 29.1367Z" fill="#C0D88D" stroke="white" stroke-width="0.2"/>
</g>
<defs>
<clipPath id="clip0_383_941">
<rect width="31" height="31" fill="white"/>
</clipPath>
</defs>
</svg>
