<svg width="192" height="68" viewBox="0 0 192 68" fill="none" xmlns="http://www.w3.org/2000/svg">
<g clip-path="url(#clip0_498_10)">
<path fill-rule="evenodd" clip-rule="evenodd" d="M112.31 36.6376V1.98861C112.31 1.47568 112.498 1.02555 112.864 0.638239C113.23 0.250924 113.68 0.0625 114.203 0.0625H122.347C122.703 0.0625 123.069 0.146244 123.445 0.313732C123.832 0.481219 124.093 0.648707 124.229 0.837131L133.994 12.0693L144.241 0.88947C144.659 0.481219 145.129 0.250924 145.631 0.177648C146.143 0.104372 146.739 0.072968 147.44 0.072968H154.529C155.02 0.072968 155.449 0.261392 155.815 0.648707C156.18 1.03602 156.369 1.48615 156.369 1.99908V36.6376C156.369 37.1924 156.191 37.653 155.846 38.0403C155.501 38.4276 155.062 38.6161 154.529 38.6161H147.492C146.969 38.6161 146.499 38.4276 146.102 38.0403C145.694 37.653 145.495 37.182 145.495 36.6376V16.3611L137.037 27.5933C136.336 28.5877 135.448 29.0797 134.36 29.0797C133.838 29.0797 133.336 28.9646 132.865 28.7238C132.395 28.4831 132.018 28.1586 131.736 27.7608L123.069 16.3611L123.121 36.6272C123.121 37.182 122.943 37.6425 122.598 38.0299C122.243 38.4172 121.814 38.6056 121.281 38.6056H114.192C113.669 38.6056 113.22 38.4067 112.854 37.9985C112.488 37.5902 112.3 37.1401 112.3 36.6167L112.31 36.6376Z" fill="#C0D88D"/>
<path fill-rule="evenodd" clip-rule="evenodd" d="M96.5854 35.3081C96.1986 32.8062 95.404 31.079 94.1911 30.1055C92.9783 29.132 91.4728 28.5562 89.6849 28.3678C88.5662 28.2003 87.8344 28.3678 87.8344 29.1739V35.5279C87.8344 36.2293 87.7716 36.7841 87.6462 37.2028C87.5207 37.6215 87.1861 37.9774 86.6425 38.2496C86.0988 38.5218 85.2415 38.6578 84.0809 38.6578H79.1774C78.0901 38.6892 77.2223 38.4799 76.595 38.0193C75.9572 37.5587 75.6436 36.9306 75.6436 36.1141L75.6958 2.07225C75.6958 1.51744 75.9572 1.03592 76.4904 0.617197C77.0237 0.208945 77.6614 -0.000414197 78.3933 -0.000414197H90.3645C95.8535 -0.0422861 100.799 0.753281 103.705 4.47988C107.448 9.28469 107.344 17.0519 102.733 21.3543C102.221 21.8358 101.646 22.2964 101.018 22.7465L101.071 22.7988C102.796 23.6782 104.165 24.9448 105.18 26.5987C106.204 28.2527 106.894 29.9799 107.26 31.7804C107.626 33.5809 107.783 35.1929 107.71 36.6271C107.71 37.2551 107.501 37.7471 107.072 38.1135C106.654 38.4799 106.058 38.6683 105.284 38.6683H98.8542C97.9446 38.6683 97.3486 38.4275 97.0873 37.9565C96.8259 37.475 96.6795 36.9725 96.669 36.4386C96.6481 35.9048 96.6272 35.5279 96.5854 35.3081ZM95.8849 12.9485C95.8849 11.4097 95.4353 10.2268 94.5362 9.42077C93.637 8.61473 92.3406 8.20648 90.6573 8.20648H87.8657V18.0673C88.2944 18.0673 88.7231 18.0673 89.1413 18.0673C92.5601 18.0569 95.8744 17.8161 95.8744 12.9485H95.8849Z" fill="#C0D88D"/>
<path fill-rule="evenodd" clip-rule="evenodd" d="M30.1529 2.45006V7.40141C30.1529 8.06089 29.9229 8.6471 29.4629 9.16003C29.0028 9.67296 28.4801 9.93466 27.8946 9.93466H11.8249V15.0221H27.1209C27.7064 15.0221 28.2187 15.2419 28.6578 15.6816C29.0969 16.1212 29.3165 16.7074 29.3165 17.4402V22.402C29.3165 23.0615 29.0969 23.6477 28.6578 24.1607C28.2187 24.6736 27.7064 24.9353 27.1209 24.9353H11.8249V36.1151C11.8249 36.7746 11.5844 37.3608 11.1139 37.8737C10.633 38.3866 10.1102 38.6483 9.51427 38.6483H2.31061C1.68329 38.6483 1.15008 38.3866 0.690046 37.8737C0.230015 37.3608 0 36.7746 0 36.1151V2.38725C0 1.69636 0.21956 1.12062 0.65868 0.680967C1.0978 0.241312 1.65193 0.0214844 2.31061 0.0214844H27.8946C28.4801 0.0214844 29.0028 0.25178 29.4629 0.712371C29.9229 1.17296 30.1529 1.75917 30.1529 2.45006Z" fill="#C0D88D"/>
<path fill-rule="evenodd" clip-rule="evenodd" d="M52.7261 6.23962C55.2876 6.23962 57.3682 8.32275 57.3682 10.8874C57.3682 13.4521 55.2876 15.5352 52.7261 15.5352C50.1646 15.5352 48.084 13.4521 48.084 10.8874C48.084 8.32275 50.1646 6.23962 52.7261 6.23962ZM40.8594 26.9243C42.229 28.9551 44.0169 30.5358 46.0243 31.614C48.0944 32.7236 50.405 33.3203 52.7261 33.3412C54.7544 33.3726 57.1591 32.7655 59.4279 31.614C61.4353 30.5358 63.2232 28.9551 64.5928 26.9243C65.2515 25.9404 65.0005 24.59 64.0387 23.92C63.0663 23.2501 61.749 23.5013 61.0903 24.4853C60.1284 25.9194 58.8633 27.029 57.4519 27.7827C57.1487 27.9502 56.835 28.0968 56.5213 28.2224C54.5767 29.0284 54.859 27.7513 54.859 25.9194V24.7889C54.859 22.8523 54.8067 22.957 56.5423 22.2242C57.1382 21.973 57.7028 21.6694 58.2465 21.303C59.292 20.6017 60.233 19.6805 60.9857 18.5604C61.6444 17.5764 61.3935 16.2261 60.4316 15.5561C59.4593 14.8862 58.1419 15.1374 57.4832 16.1214C57.0546 16.7599 56.5109 17.2938 55.9045 17.7021C54.9531 18.3406 53.8448 18.686 52.7365 18.707C51.6283 18.686 50.52 18.3406 49.5686 17.7021C48.9622 17.2938 48.4185 16.7599 47.9899 16.1214C47.3312 15.1374 46.0138 14.8862 45.0415 15.5561C44.0692 16.2261 43.8287 17.5764 44.4874 18.5604C45.2401 19.6805 46.1811 20.6017 47.2266 21.303C47.7703 21.6694 48.3453 21.973 48.9308 22.2242C50.6664 22.957 50.6141 22.8418 50.6141 24.7889V25.9194C50.6141 27.7513 50.8964 29.0284 48.9518 28.2224C48.6381 28.0968 48.3244 27.9397 48.0212 27.7827C46.6098 27.0186 45.3447 25.909 44.3828 24.4853C43.7241 23.5013 42.4068 23.2501 41.4344 23.92C40.4621 24.59 40.2216 25.9404 40.8803 26.9243H40.8594ZM72.0996 19.2723C72.0996 15.7759 71.211 12.5623 69.4231 9.63124C67.6353 6.70021 65.2619 4.36585 62.2926 2.6177C59.3234 0.869545 56.1345 -0.00976562 52.7261 -0.00976562C49.3177 -0.00976562 45.8779 0.869545 42.9191 2.6177C39.9498 4.36585 37.6183 6.71068 35.9141 9.63124C34.2099 12.5623 33.3525 15.7759 33.3525 19.2723C33.3525 22.7686 34.1994 26.0032 35.9141 28.9761C37.6183 31.949 39.9602 34.3043 42.9191 36.0524C45.8884 37.8006 49.1504 38.6799 52.7261 38.6799C56.3018 38.6799 59.3234 37.8006 62.2926 36.0524C65.2619 34.3043 67.6353 31.949 69.4231 28.9761C71.211 26.0032 72.0996 22.779 72.0996 19.2723Z" fill="#C0D88D"/>
<path fill-rule="evenodd" clip-rule="evenodd" d="M173.4 9.7257V14.363H188.916C189.501 14.363 190.024 14.5933 190.484 15.0539C190.944 15.5145 191.174 16.0902 191.174 16.7916V21.5859C191.174 22.214 190.944 22.7688 190.484 23.2608C190.024 23.7528 189.501 24.004 188.916 24.004H173.4V28.903H189.69C190.317 28.903 190.85 29.1333 191.31 29.5939C191.77 30.0545 192 30.6512 192 31.3839V36.1155C192 36.775 191.77 37.3507 191.31 37.8532C190.85 38.3452 190.306 38.5964 189.69 38.5964H163.719C163.091 38.5964 162.558 38.3452 162.098 37.8532C161.638 37.3612 161.408 36.775 161.408 36.1155V2.50279C161.408 1.80144 161.638 1.2257 162.098 0.765105C162.558 0.304514 163.102 0.0742188 163.719 0.0742188H189.69C190.317 0.0742188 190.85 0.304514 191.31 0.765105C191.77 1.2257 192 1.80144 192 2.50279V7.29712C192 7.9252 191.76 8.48001 191.289 8.972C190.808 9.464 190.275 9.71523 189.69 9.71523H173.4V9.7257Z" fill="#C0D88D"/>
<path d="M11.218 63.3319C10.5698 63.6355 9.26286 63.9495 7.60048 63.9495C3.74249 63.9495 0.835938 61.6465 0.835938 57.407C0.835938 53.1675 3.74249 50.6133 7.98732 50.6133C9.69152 50.6133 10.7684 50.9587 11.2389 51.189L10.8102 52.5499C10.1411 52.2463 9.18967 52.016 8.05005 52.016C4.84029 52.016 2.70743 53.9526 2.70743 57.3442C2.70743 60.5055 4.64164 62.5468 7.96641 62.5468C9.0433 62.5468 10.1411 62.3374 10.8521 62.0129L11.218 63.3319Z" fill="#405161"/>
<path d="M14.1349 59.4263C14.1767 61.7084 15.7241 62.6505 17.5119 62.6505C18.7874 62.6505 19.5611 62.4411 20.2303 62.169L20.5335 63.3728C19.9062 63.6449 18.8293 63.9485 17.261 63.9485C14.229 63.9485 12.4307 62.0643 12.4307 59.2693C12.4307 56.4744 14.1767 54.2656 17.0414 54.2656C20.2512 54.2656 21.1085 56.935 21.1085 58.6412C21.1085 58.9867 21.0667 59.2589 21.0458 59.4263H14.1349ZM19.3729 58.2225C19.3939 57.1443 18.9025 55.4799 16.895 55.4799C15.0863 55.4799 14.2917 57.0501 14.1558 58.2225H19.3729Z" fill="#405161"/>
<path d="M23.3151 56.9873C23.3151 56.0242 23.2942 55.2391 23.2314 54.475H24.8206L24.9252 56.0138H24.967C25.4584 55.1345 26.5876 54.2656 28.2186 54.2656C29.5778 54.2656 31.6897 55.0298 31.6897 58.2121V63.7601H29.9019V58.4109C29.9019 56.914 29.3164 55.6683 27.6226 55.6683C26.4412 55.6683 25.5316 56.4534 25.2284 57.3956C25.1448 57.6049 25.1029 57.898 25.1029 58.1807V63.7601H23.3151V56.9873Z" fill="#405161"/>
<path d="M36.656 51.8054V54.4747H39.2175V55.7623H36.656V60.766C36.656 61.9175 37.001 62.5665 37.9943 62.5665C38.4647 62.5665 38.8098 62.5141 39.0293 62.4513L39.113 63.718C38.7679 63.854 38.2243 63.9482 37.5238 63.9482C36.6874 63.9482 36.0182 63.697 35.5896 63.2364C35.0773 62.734 34.8995 61.9175 34.8995 60.8183V55.7518H33.373V54.4643H34.8995V52.2346L36.6455 51.7949L36.656 51.8054Z" fill="#405161"/>
<path d="M41.2243 57.3746C41.2243 56.2859 41.2034 55.3438 41.1406 54.475H42.7089L42.7716 56.2964H42.8553C43.3049 55.0507 44.3818 54.2656 45.5736 54.2656C45.7723 54.2656 45.9187 54.2866 46.086 54.318V55.9091C45.8978 55.8672 45.72 55.8568 45.4796 55.8568C44.2249 55.8568 43.3258 56.757 43.0853 58.0236C43.0435 58.2539 43.0017 58.5261 43.0017 58.8087V63.7601H41.2347V57.3746H41.2243Z" fill="#405161"/>
<path d="M56.0915 61.2265C56.0915 62.1895 56.1124 63.0269 56.1751 63.7597H54.5859L54.4814 62.2418H54.4396C53.9691 62.9851 52.934 63.9691 51.188 63.9691C49.6406 63.9691 47.79 63.163 47.79 59.9075V54.4746H49.5779V59.6144C49.5779 61.3835 50.1425 62.5664 51.7735 62.5664C52.9758 62.5664 53.8018 61.7813 54.1259 61.0276C54.2305 60.7763 54.2932 60.4728 54.2932 60.1692V54.4746H56.081V61.2265H56.0915Z" fill="#405161"/>
<path d="M59.0504 56.9873C59.0504 56.0242 59.0295 55.2391 58.9668 54.475H60.5351L60.6187 55.9719H60.6815C61.2251 55.0926 62.1452 54.2656 63.7658 54.2656C65.104 54.2656 66.1182 55.0298 66.5468 56.1289H66.5887C66.8919 55.616 67.2787 55.2077 67.6865 54.9251C68.272 54.5064 68.9306 54.2761 69.8612 54.2761C71.1576 54.2761 73.0918 55.0821 73.0918 58.3063V63.7705H71.3458V58.5156C71.3458 56.7361 70.6558 55.6579 69.2129 55.6579C68.1988 55.6579 67.4042 56.3697 67.101 57.1967C67.0173 57.427 66.9546 57.7305 66.9546 58.0446V63.781H65.2086V58.2225C65.2086 56.7465 64.5185 55.6683 63.1593 55.6683C62.0406 55.6683 61.2251 56.5162 60.9428 57.3537C60.8383 57.6049 60.7965 57.8875 60.7965 58.1807V63.781H59.0504V57.0082V56.9873Z" fill="#405161"/>
<path d="M80.3477 50.9778C81.205 50.8417 82.3237 50.7266 83.7456 50.7266C85.4916 50.7266 86.7672 51.1139 87.5827 51.8048C88.3355 52.4224 88.785 53.354 88.785 54.5055C88.785 55.657 88.4191 56.5991 87.7291 57.2691C86.7985 58.2112 85.2721 58.6927 83.547 58.6927C83.0137 58.6927 82.5328 58.6718 82.1251 58.5775V63.7592H80.3581V50.9883L80.3477 50.9778ZM82.1146 57.2167C82.5014 57.3109 82.9928 57.3528 83.5783 57.3528C85.7112 57.3528 87.0076 56.3793 87.0076 54.5893C87.0076 52.7992 85.7321 52.056 83.777 52.056C83.0033 52.056 82.4178 52.1083 82.1146 52.1921V57.2167Z" fill="#405161"/>
<path d="M90.3952 62.0329C90.9284 62.3574 91.8589 62.7028 92.7476 62.7028C94.0441 62.7028 94.6609 62.0852 94.6609 61.321C94.6609 60.515 94.1591 60.0754 92.8312 59.6148C91.0643 59.0181 90.2279 58.0969 90.2279 56.9873C90.2279 55.4904 91.5034 54.2656 93.6258 54.2656C94.6191 54.2656 95.4973 54.5378 96.041 54.8414L95.5914 56.0661C95.2046 55.8358 94.4936 55.5322 93.584 55.5322C92.528 55.5322 91.9426 56.108 91.9426 56.7989C91.9426 57.563 92.528 57.9085 93.814 58.3691C95.5182 58.9867 96.3965 59.7927 96.3965 61.164C96.3965 62.797 95.0582 63.9485 92.7162 63.9485C91.6393 63.9485 90.6461 63.6973 89.9561 63.3204L90.4056 62.0329H90.3952Z" fill="#405161"/>
<path d="M99.335 54.4753L101.489 59.9605C101.708 60.5781 101.959 61.3004 102.116 61.8552H102.158C102.336 61.3004 102.545 60.5886 102.785 59.9187L104.74 54.4753H106.633L103.946 61.0911C102.67 64.2733 101.792 65.9063 100.569 66.9008C99.6905 67.6336 98.8227 67.9162 98.3731 67.9895L97.9236 66.5658C98.3731 66.4297 98.9586 66.168 99.4918 65.7389C99.9832 65.3725 100.59 64.7235 100.997 63.8546C101.081 63.6871 101.144 63.5511 101.144 63.4568C101.144 63.3626 101.102 63.2265 101.018 63.0172L97.3799 54.4648H99.335V54.4753Z" fill="#405161"/>
<path d="M115.049 63.4139C114.578 63.6442 113.543 63.9478 112.226 63.9478C109.257 63.9478 107.333 62.0531 107.333 59.2058C107.333 56.3585 109.403 54.2754 112.613 54.2754C113.669 54.2754 114.599 54.5266 115.091 54.7569L114.683 56.0654C114.254 55.8351 113.585 55.6258 112.613 55.6258C110.355 55.6258 109.142 57.196 109.142 59.1325C109.142 61.2785 110.605 62.6079 112.55 62.6079C113.564 62.6079 114.233 62.3567 114.746 62.1473L115.049 63.4139Z" fill="#405161"/>
<path d="M117.14 50.1413H118.928V55.9301H118.97C119.252 55.4486 119.702 55.0299 120.246 54.7368C120.779 54.4541 121.406 54.2552 122.075 54.2552C123.393 54.2552 125.505 55.0194 125.505 58.2226V63.7497H123.717V58.4215C123.717 56.9246 123.131 55.658 121.437 55.658C120.277 55.658 119.367 56.4221 119.043 57.3433C118.939 57.5736 118.918 57.8248 118.918 58.1493V63.7497H117.13V50.1309L117.14 50.1413Z" fill="#405161"/>
<path d="M137.309 59.039C137.309 62.4725 134.789 63.9694 132.416 63.9694C129.749 63.9694 127.7 62.1271 127.7 59.196C127.7 56.0871 129.854 54.2656 132.572 54.2656C135.291 54.2656 137.309 56.2022 137.309 59.039ZM129.509 59.1332C129.509 61.164 130.753 62.7028 132.499 62.7028C134.245 62.7028 135.489 61.185 135.489 59.1018C135.489 57.5316 134.653 55.5322 132.541 55.5322C130.429 55.5322 129.519 57.3746 129.519 59.1332H129.509Z" fill="#405161"/>
<path d="M141.71 51.8054V54.4747H144.271V55.7623H141.71V60.766C141.71 61.9175 142.055 62.5665 143.048 62.5665C143.518 62.5665 143.863 62.5141 144.083 62.4513L144.167 63.718C143.822 63.854 143.278 63.9482 142.577 63.9482C141.741 63.9482 141.072 63.697 140.643 63.2364C140.131 62.734 139.953 61.9175 139.953 60.8183V55.7518H138.427V54.4643H139.953V52.2346L141.699 51.7949L141.71 51.8054Z" fill="#405161"/>
<path d="M147.147 59.4263C147.188 61.7084 148.736 62.6505 150.524 62.6505C151.799 62.6505 152.573 62.4411 153.242 62.169L153.545 63.3728C152.918 63.6449 151.841 63.9485 150.273 63.9485C147.251 63.9485 145.442 62.0643 145.442 59.2693C145.442 56.4744 147.188 54.2656 150.053 54.2656C153.263 54.2656 154.12 56.935 154.12 58.6412C154.12 58.9867 154.078 59.2589 154.058 59.4263H147.147ZM152.385 58.2225C152.406 57.1443 151.914 55.4799 149.907 55.4799C148.098 55.4799 147.303 57.0501 147.167 58.2225H152.385Z" fill="#405161"/>
<path d="M156.326 57.3746C156.326 56.2859 156.305 55.3438 156.242 54.475H157.81L157.873 56.2964H157.957C158.406 55.0507 159.483 54.2656 160.675 54.2656C160.874 54.2656 161.02 54.2866 161.177 54.318V55.9091C160.999 55.8672 160.811 55.8568 160.571 55.8568C159.316 55.8568 158.417 56.757 158.176 58.0236C158.135 58.2539 158.093 58.5261 158.093 58.8087V63.7601H156.326V57.3746Z" fill="#405161"/>
<path d="M168.307 63.7601L168.161 62.5877H168.098C167.544 63.3204 166.499 63.9694 165.087 63.9694C163.101 63.9694 162.076 62.6505 162.076 61.3001C162.076 59.06 164.188 57.8247 167.983 57.8457V57.6573C167.983 56.8931 167.764 55.5113 165.746 55.5113C164.836 55.5113 163.874 55.7835 163.184 56.2022L162.777 55.0926C163.592 54.5901 164.763 54.2656 166.007 54.2656C169.018 54.2656 169.75 56.2022 169.75 58.0655V61.5409C169.75 62.3469 169.792 63.132 169.918 63.7705H168.287L168.307 63.7601ZM168.046 59.0181C166.091 58.9762 163.885 59.3112 163.885 61.1117C163.885 62.2004 164.659 62.7238 165.568 62.7238C166.844 62.7238 167.659 61.9596 167.942 61.1745C168.004 61.007 168.046 60.8081 168.046 60.6406V59.0286V59.0181Z" fill="#405161"/>
<path d="M172.647 57.5009C172.647 56.3076 172.605 55.355 172.563 54.4652H174.163L174.247 56.0563H174.289C175.02 54.9258 176.181 54.2559 177.781 54.2559C180.154 54.2559 181.942 56.1506 181.942 58.9769C181.942 62.3162 179.788 63.9597 177.467 63.9597C176.171 63.9597 175.031 63.4258 174.445 62.5046H174.404V67.5502H172.637V57.5009H172.647ZM174.414 59.9714C174.414 60.2226 174.456 60.4529 174.498 60.6623C174.822 61.8347 175.899 62.6407 177.185 62.6407C179.077 62.6407 180.175 61.1857 180.175 59.0502C180.175 57.1869 179.14 55.5958 177.247 55.5958C176.024 55.5958 174.895 56.4227 174.55 57.6894C174.487 57.8987 174.425 58.1499 174.425 58.3802V59.9714H174.414Z" fill="#405161"/>
<path d="M186.197 51.8678C186.218 52.4436 185.768 52.9041 185.057 52.9041C184.43 52.9041 183.98 52.4436 183.98 51.8678C183.98 51.2921 184.451 50.8105 185.099 50.8105C185.747 50.8105 186.197 51.2711 186.197 51.8678ZM184.21 63.7594V54.4743H185.998V63.7594H184.21Z" fill="#405161"/>
<path d="M190.943 51.8678C190.964 52.4436 190.514 52.9041 189.803 52.9041C189.176 52.9041 188.727 52.4436 188.727 51.8678C188.727 51.2921 189.197 50.8105 189.845 50.8105C190.494 50.8105 190.943 51.2711 190.943 51.8678ZM188.957 63.7594V54.4743H190.744V63.7594H188.957Z" fill="#405161"/>
</g>
<defs>
<clipPath id="clip0_498_10">
<rect width="192" height="68" fill="white"/>
</clipPath>
</defs>
</svg>
