<svg width="34" height="34" viewBox="0 0 34 34" fill="none" xmlns="http://www.w3.org/2000/svg">
<path d="M28.721 12.5663C29.616 12.335 30.3487 11.7049 30.7199 10.809C31.1938 9.6649 30.9442 8.41009 30.0685 7.53439L25.3548 2.82067C25.2613 2.7273 25.1347 2.67484 25.0026 2.67484C24.8704 2.67484 24.7438 2.7273 24.6503 2.82067L22.0193 5.45175C21.6472 5.12497 19.5438 3.29269 18.8776 2.6955C17.3159 1.29552 15.5102 0 12.8951 0C10.683 0 8.64172 1.0698 7.14704 3.01239C6.9793 3.23033 7.02007 3.54304 7.23809 3.71085C7.4561 3.87852 7.76881 3.83782 7.93655 3.6198C8.85747 2.42283 10.4653 0.996094 12.8951 0.996094C15.0483 0.996094 16.5782 1.97193 18.2128 3.43719C18.5392 3.72977 18.8713 4.02322 19.2038 4.31501L16.4477 5.67541C15.8513 5.12889 15.1509 4.82973 14.4539 4.82973C13.4188 4.82973 12.5768 5.64593 12.5768 6.64913C12.5768 6.91867 12.6383 7.17619 12.7483 7.40914H12.0389C11.7638 7.40914 11.5408 7.63207 11.5408 7.90719V14.8478C10.9169 14.2392 10.0625 13.3411 9.43487 12.4305C9.32829 12.276 9.14408 12.1947 8.95781 12.2197C8.77174 12.2449 8.61568 12.3727 8.55419 12.5501L7.99107 14.1749C7.26252 13.2006 6.0528 11.229 6.0528 8.88071C6.0528 7.74616 6.36431 6.46465 6.93003 5.27239C7.04797 5.0239 6.94211 4.72686 6.69355 4.60893C6.44513 4.49112 6.14803 4.59691 6.03009 4.84547C5.40235 6.16841 5.05664 7.60152 5.05664 8.88077C5.05664 12.636 7.7012 15.4061 7.81383 15.5221C7.93422 15.6462 8.11033 15.6989 8.27914 15.6616C8.44794 15.6243 8.58527 15.5019 8.64191 15.3385L9.18857 13.7614C10.3119 15.1546 11.6478 16.3104 11.7139 16.3673C11.806 16.4466 11.9218 16.4879 12.0389 16.4879C12.1092 16.4879 12.18 16.4729 12.2464 16.4425C12.4234 16.3613 12.5369 16.1845 12.5369 15.9898V14.185C13.5376 14.7462 14.5288 15.1823 15.3754 15.1823C15.5164 15.1823 15.6534 15.1702 15.7856 15.1446C16.318 15.0415 16.7813 14.7895 17.1849 14.3813C17.4075 14.9919 17.7573 15.5632 18.2241 16.0677V20.5114L14.4189 22.7083L10.0824 20.8222C9.83019 20.7124 9.53674 20.8281 9.42703 21.0803C9.31733 21.3325 9.43288 21.626 9.68509 21.7357L27.2821 29.3892C26.9327 29.8012 26.5581 30.1854 26.1613 30.5361C25.9552 30.7182 25.9358 31.0329 26.118 31.239C26.2164 31.3504 26.3536 31.4072 26.4914 31.4072C26.6086 31.4072 26.7263 31.3661 26.821 31.2823C28.167 30.0927 29.2802 28.555 30.0403 26.8354C30.8687 24.9615 31.2886 22.8966 31.2886 20.6978C31.2887 17.8413 30.4471 15.174 28.721 12.5663ZM19.7379 8.43731C19.5433 8.24274 19.2281 8.24281 19.0336 8.43751L18.7133 8.75786C17.5891 9.88211 16.9634 11.2003 16.9039 12.5698C16.8961 12.7501 16.8993 12.9293 16.912 13.1071C16.5359 13.7352 16.1259 14.0639 15.5963 14.1665C14.7804 14.3242 13.3384 13.5145 12.5369 13.0348V8.4053H14.0295C14.2423 8.4053 14.441 8.26798 14.507 8.05395C14.588 7.79111 14.4406 7.51234 14.1777 7.43132C13.816 7.31976 13.5729 7.00546 13.5729 6.64919C13.5729 6.19517 13.9681 5.82589 14.4539 5.82589C15.6258 5.82589 16.4962 7.16258 16.4962 7.57157C16.4962 7.84669 16.7192 8.06962 16.9943 8.06962C17.2693 8.06962 17.4923 7.84669 17.4923 7.57157C17.4923 7.24691 17.3494 6.84974 17.1059 6.46139L20.0161 5.02496C20.0951 5.09376 20.9587 5.84627 21.3135 6.15765L20.4112 7.05991C20.2167 7.25442 20.2167 7.56978 20.4112 7.76422C20.6057 7.95866 20.921 7.95879 21.1155 7.76429L25.0025 3.87726L29.3641 8.23889C30.0638 8.93861 30.0478 9.82852 29.7995 10.428C29.5513 11.0274 28.9333 11.668 27.9438 11.668H22.4249C20.5312 11.668 18.9268 12.9277 18.4042 14.6529C18.0409 14.0305 17.8675 13.3399 17.899 12.6131C17.9474 11.4968 18.4726 10.4073 19.4176 9.46236L19.7381 9.14175C19.9326 8.94705 19.9324 8.63168 19.7379 8.43731ZM29.1294 26.4325C28.7937 27.1919 28.3834 27.9117 27.9119 28.5767L21.4071 25.7475C24.6377 23.693 26.0896 21.4683 27.1705 17.1202C27.2368 16.8532 27.0742 16.583 26.8073 16.5167C26.5402 16.4499 26.2701 16.6129 26.2038 16.8799C25.1205 21.238 23.7232 23.2348 20.2924 25.2627L15.5551 23.2023L18.9713 21.23C19.1253 21.141 19.2203 20.9767 19.2203 20.7987V15.8685C19.2203 14.1015 20.6579 12.6639 22.4249 12.6639H27.5814C29.4051 15.2501 30.2927 17.8799 30.2927 20.6977C30.2926 22.7568 29.9013 24.6863 29.1294 26.4325Z" fill="#405161"/>
<path d="M24.6194 31.671C23.1712 32.5434 21.5847 33.0045 20.0315 33.0045C18.5244 33.0045 16.8293 32.605 14.9888 31.8173C14.9926 31.7627 14.9952 31.708 14.9952 31.6525C14.9952 30.5467 14.2105 29.58 13.1293 29.354C10.8792 28.8838 10.407 28.5019 9.69229 27.924C9.32247 27.6249 8.86221 27.2528 8.09748 26.8112C7.64671 26.551 7.14807 26.3647 6.64066 26.2642C5.89538 25.5532 5.61216 24.603 5.86556 23.6369C6.13909 22.5939 6.994 21.7503 7.99289 21.5378C8.2619 21.4806 8.43362 21.216 8.37638 20.9471C8.31907 20.678 8.05458 20.5069 7.78557 20.5636C6.40631 20.8571 5.27455 21.9643 4.90207 23.3843C4.63964 24.385 4.79098 25.3701 5.31419 26.2086C4.40901 26.3216 3.58803 26.7658 3.09137 27.626C2.59811 28.4803 2.58536 29.4785 3.05538 30.4366C3.43543 31.2112 4.10374 31.9155 4.88886 32.3688C7.49942 33.8758 10.0483 34.0006 12.6471 34.0006C13.5338 34.0006 14.3071 33.5065 14.7066 32.7792C16.6302 33.5894 18.4198 34.0006 20.0315 34.0006C21.7659 34.0006 23.5302 33.4901 25.1334 32.5241C25.369 32.3822 25.4449 32.0762 25.303 31.8406C25.1611 31.6048 24.855 31.5289 24.6194 31.671ZM12.6471 33.0045C9.69289 33.0045 7.55786 32.7594 5.38691 31.506C4.77776 31.1543 4.2404 30.5905 3.94961 29.9977C3.62116 29.3282 3.62262 28.6978 3.95393 28.1239C4.28523 27.55 4.83049 27.2336 5.5745 27.1832C5.63971 27.1788 5.70579 27.1767 5.77266 27.1767C6.38154 27.1767 7.05052 27.3569 7.59936 27.6738C8.2965 28.0763 8.70523 28.4068 9.06588 28.6985C9.86355 29.3435 10.4398 29.8095 12.9255 30.3291C13.5476 30.459 13.9991 31.0157 13.9991 31.6525C13.9991 32.398 13.3926 33.0045 12.6471 33.0045Z" fill="#405161"/>
</svg>
