<svg width="33" height="33" viewBox="0 0 33 33" fill="none" xmlns="http://www.w3.org/2000/svg">
<g clip-path="url(#clip0_391_1298)">
<path d="M1.44708 15.8826C0.385031 17.4985 0.149081 19.4543 1.35358 20.9228C0.816079 21.7296 0.535898 22.6804 0.550031 23.6497V31.3497C0.550031 31.7873 0.72387 32.207 1.0333 32.5165C1.34274 32.8259 1.76242 32.9997 2.20003 32.9997H12.1C12.5376 32.9997 12.9573 32.8259 13.2668 32.5165C13.5762 32.207 13.75 31.7873 13.75 31.3497V23.6497C13.7642 22.6804 13.484 21.7296 12.9465 20.9228C14.1532 19.4516 13.9156 17.4947 12.8524 15.8815C13.2817 15.7714 13.6596 15.516 13.9217 15.1586C14.1838 14.8013 14.3141 14.3642 14.2902 13.9217C14.2663 13.4791 14.0899 13.0586 13.7908 12.7315C13.4918 12.4044 13.0887 12.1911 12.65 12.1278V10.6428C12.65 3.04508 1.65003 3.03683 1.65003 10.6428V12.1278C1.19138 12.1893 0.770865 12.4158 0.467165 12.765C0.163465 13.1141 -0.00260478 13.562 3.08975e-05 14.0247C0.00154197 14.4509 0.144438 14.8645 0.406315 15.2008C0.668192 15.537 1.03424 15.7768 1.44708 15.8826V15.8826ZM12.65 31.3497C12.65 31.4956 12.5921 31.6355 12.4889 31.7386C12.3858 31.8418 12.2459 31.8997 12.1 31.8997H11.55V25.2997C11.55 25.1539 11.4921 25.014 11.3889 24.9108C11.2858 24.8077 11.1459 24.7497 11 24.7497C10.8542 24.7497 10.7143 24.8077 10.6111 24.9108C10.508 25.014 10.45 25.1539 10.45 25.2997V31.8997H3.85003V25.2997C3.85003 25.1539 3.79208 25.014 3.68894 24.9108C3.58579 24.8077 3.4459 24.7497 3.30003 24.7497C3.15416 24.7497 3.01427 24.8077 2.91112 24.9108C2.80798 25.014 2.75003 25.1539 2.75003 25.2997V31.8997H2.20003C2.05416 31.8997 1.91427 31.8418 1.81112 31.7386C1.70798 31.6355 1.65003 31.4956 1.65003 31.3497V23.6497C1.6387 22.9529 1.82563 22.2672 2.18903 21.6725C2.33151 21.7655 2.48038 21.8484 2.63453 21.9205C5.84213 23.3984 8.45793 23.3989 11.6655 21.9205C11.8197 21.8484 11.9686 21.7655 12.111 21.6725C12.4744 22.2672 12.6614 22.9529 12.65 23.6497V31.3497ZM12.4339 14.8437L12.5989 13.2338C12.7858 13.2855 12.9484 13.4016 13.0579 13.5617C13.1673 13.7219 13.2165 13.9156 13.1968 14.1085C13.177 14.3014 13.0895 14.4811 12.9499 14.6157C12.8102 14.7503 12.6274 14.831 12.4339 14.8437ZM2.75003 10.6422C2.75003 8.35643 4.11073 6.04973 7.15003 6.04973C10.1893 6.04973 11.55 8.35643 11.55 10.6422C11.6029 12.2147 11.5109 13.7886 11.275 15.3442C11.262 15.4818 11.3013 15.6192 11.385 15.7292C12.1506 16.7439 12.7864 17.647 12.6264 19.0132C12.571 19.4258 12.4113 19.8174 12.1624 20.151C11.9136 20.4847 11.5837 20.7494 11.2041 20.9201C8.28908 22.2648 6.01373 22.2654 3.09488 20.9201C2.71525 20.7494 2.38541 20.4847 2.13654 20.151C1.88767 19.8174 1.72799 19.4258 1.67258 19.0132C1.51308 17.6514 2.15438 16.7362 2.91393 15.7292C2.99767 15.6192 3.03694 15.4818 3.02393 15.3442C2.78847 13.7886 2.69678 12.2146 2.75003 10.6422V10.6422ZM1.70503 13.2338L1.87003 14.8437C1.67697 14.8303 1.49483 14.7492 1.35575 14.6146C1.21667 14.4801 1.12958 14.3007 1.10985 14.1082C1.09012 13.9157 1.13901 13.7224 1.24791 13.5624C1.3568 13.4024 1.5187 13.2861 1.70503 13.2338V13.2338Z" fill="#405161"/>
<path d="M30.238 10.9866C30.4898 10.7341 30.6664 10.4166 30.748 10.0695C30.8297 9.72247 30.8132 9.35952 30.7004 9.02129C30.5875 8.68307 30.3828 8.3829 30.1091 8.15437C29.8354 7.92584 29.5036 7.77796 29.1506 7.72727V7.14922C29.1506 7.13492 29.1435 7.12282 29.1424 7.10852C29.0566 3.98727 27.2696 2.19922 24.2006 2.19922C21.1547 2.19922 19.3199 4.05877 19.2567 7.17782H19.2506C19.2539 7.26417 19.2506 7.08817 19.2506 7.75092C18.8029 7.82619 18.3946 8.05306 18.0942 8.39351C17.7938 8.73395 17.6196 9.16729 17.6006 9.62092C17.6163 10.1054 17.8101 10.567 18.145 10.9173C18.48 11.2677 18.9324 11.4821 19.4156 11.5195C19.4464 11.6576 19.486 11.7945 19.5289 11.932C18.5598 12.6641 17.693 14.2778 18.441 16.5619C16.928 19.2624 17.297 23.0112 20.646 24.5765C22.4555 25.539 25.9892 25.5187 27.7542 24.5765C31.1092 23.0085 31.4617 19.2536 29.9503 16.5707C30.6301 14.5198 30.0488 12.8857 28.924 11.9782C28.9728 11.8312 29.0123 11.6813 29.0423 11.5294C29.492 11.4937 29.9151 11.3016 30.238 10.9866ZM29.1506 10.3997C29.1545 10.1599 29.1534 9.94267 29.1534 8.84982C29.3142 8.90613 29.4534 9.01109 29.5519 9.15013C29.6503 9.28916 29.703 9.45539 29.7027 9.62575C29.7024 9.7961 29.6491 9.96214 29.5502 10.1008C29.4513 10.2395 29.3116 10.344 29.1506 10.3997ZM27.1156 12.8104C26.2633 13.4149 25.2456 13.7427 24.2006 13.7492C23.1596 13.7258 22.148 13.3996 21.2895 12.8104C20.3506 11.8715 20.3506 10.5889 20.3506 9.34922V7.68657C22.5506 7.58372 23.6506 6.86652 24.2006 6.19772C24.7506 6.86652 25.8506 7.58427 28.0506 7.68657C28.0506 11.0042 28.2415 11.6807 27.1118 12.8104H27.1156ZM25.8226 14.6155C25.7471 14.99 25.5441 15.3268 25.248 15.5682C24.9519 15.8097 24.5813 15.941 24.1992 15.9396C23.8171 15.9383 23.4474 15.8044 23.1531 15.5608C22.8587 15.3172 22.6581 14.979 22.5853 14.6039C23.6388 14.9241 24.763 14.9281 25.8187 14.6155H25.8226ZM24.2006 3.29922C25.8138 3.29922 27.7069 3.89707 28.0055 6.58217C24.9706 6.41277 24.7561 4.96242 24.7506 4.90797C24.7427 4.76895 24.6823 4.63812 24.5817 4.54187C24.4811 4.44563 24.3477 4.39113 24.2084 4.38939C24.0692 4.38764 23.9345 4.43878 23.8315 4.53247C23.7285 4.62616 23.6648 4.75544 23.6534 4.89422C23.6451 4.95967 23.4295 6.40892 20.3974 6.57887C20.7241 3.75187 22.8746 3.29922 24.2006 3.29922ZM19.2506 8.89767C19.2506 9.23977 19.2506 9.30632 19.2506 9.37672C19.2506 9.69022 19.2506 10.0208 19.2693 10.3607C19.1084 10.3188 18.9657 10.2253 18.8631 10.0944C18.7606 9.96352 18.7039 9.80257 18.7018 9.6363C18.6996 9.47004 18.7522 9.30769 18.8514 9.17423C18.9505 9.04077 19.0908 8.9436 19.2506 8.89767V8.89767ZM20.0206 12.9677C20.2725 13.3984 20.637 13.7523 21.075 13.9912C20.4049 14.3487 19.8018 14.8194 19.2924 15.3827C19.2122 14.9518 19.2361 14.5079 19.3622 14.0881C19.4883 13.6683 19.7129 13.2847 20.0173 12.9693L20.0206 12.9677ZM28.0506 23.163V20.3492C28.0506 20.2034 27.9927 20.0635 27.8895 19.9603C27.7864 19.8572 27.6465 19.7992 27.5006 19.7992C27.3548 19.7992 27.2149 19.8572 27.1117 19.9603C27.0086 20.0635 26.9506 20.2034 26.9506 20.3492V23.7361C25.169 24.3516 23.2323 24.3516 21.4506 23.7361V20.3492C21.4506 20.2034 21.3927 20.0635 21.2895 19.9603C21.1864 19.8572 21.0465 19.7992 20.9006 19.7992C20.7548 19.7992 20.6149 19.8572 20.5117 19.9603C20.4086 20.0635 20.3506 20.2034 20.3506 20.3492V23.163C19.8102 22.7909 19.3746 22.286 19.0857 21.6969C18.7967 21.1078 18.6641 20.4543 18.7006 19.7992C18.6969 18.8146 18.9595 17.8472 19.4607 16.9996C19.9618 16.1521 20.6829 15.4558 21.5474 14.9845C21.6969 15.5737 22.0382 16.0965 22.5176 16.4702C22.9971 16.8439 23.5873 17.0474 24.1951 17.0485C24.803 17.0497 25.394 16.8484 25.8748 16.4764C26.3556 16.1045 26.6989 15.5831 26.8505 14.9944C27.713 15.4659 28.4327 16.1608 28.9342 17.0062C29.4357 17.8515 29.7004 18.8163 29.7006 19.7992C29.7371 20.4543 29.6046 21.1078 29.3156 21.6969C29.0266 22.286 28.591 22.7909 28.0506 23.163V23.163ZM29.1077 15.4047C28.5969 14.8423 27.9959 14.3689 27.3296 14.0039C27.7605 13.7518 28.1272 13.4033 28.401 12.9858C28.7028 13.3037 28.9244 13.689 29.0473 14.1097C29.1702 14.5304 29.1909 14.9744 29.1077 15.4047V15.4047Z" fill="#405161"/>
<path d="M30.2504 0H18.1504C17.4213 0.000873322 16.7223 0.290885 16.2068 0.806421C15.6913 1.32196 15.4013 2.02092 15.4004 2.75V24.75C15.4013 25.4791 15.6913 26.178 16.2068 26.6936C16.7223 27.2091 17.4213 27.4991 18.1504 27.5H30.2504C30.9795 27.4991 31.6784 27.2091 32.194 26.6936C32.7095 26.178 32.9995 25.4791 33.0004 24.75V2.75C32.9995 2.02092 32.7095 1.32196 32.194 0.806421C31.6784 0.290885 30.9795 0.000873322 30.2504 0V0ZM31.9004 24.75C31.9004 25.1876 31.7266 25.6073 31.4171 25.9167C31.1077 26.2262 30.688 26.4 30.2504 26.4H18.1504C17.7128 26.4 17.2931 26.2262 16.9837 25.9167C16.6742 25.6073 16.5004 25.1876 16.5004 24.75V2.75C16.5004 2.31239 16.6742 1.89271 16.9837 1.58327C17.2931 1.27384 17.7128 1.1 18.1504 1.1H30.2504C30.688 1.1 31.1077 1.27384 31.4171 1.58327C31.7266 1.89271 31.9004 2.31239 31.9004 2.75V24.75Z" fill="#405161"/>
<path d="M24.1993 10.4492C22.5658 10.4492 22.0439 12.6492 23.0993 12.6492C23.2452 12.6492 23.3851 12.5913 23.4882 12.4881C23.5914 12.385 23.6493 12.2451 23.6493 12.0992C23.6493 11.9533 23.7073 11.8135 23.8104 11.7103C23.9136 11.6072 24.0535 11.5492 24.1993 11.5492C24.3452 11.5492 24.4851 11.6072 24.5882 11.7103C24.6914 11.8135 24.7493 11.9533 24.7493 12.0992C24.7493 12.2451 24.8073 12.385 24.9104 12.4881C25.0136 12.5913 25.1535 12.6492 25.2993 12.6492C26.3493 12.6492 25.8356 10.4492 24.1993 10.4492Z" fill="#405161"/>
<path d="M23.1 9.35V8.8C23.1 8.65413 23.0421 8.51424 22.9389 8.41109C22.8358 8.30795 22.6959 8.25 22.55 8.25C22.4041 8.25 22.2642 8.30795 22.1611 8.41109C22.0579 8.51424 22 8.65413 22 8.8V9.35C22 9.49587 22.0579 9.63576 22.1611 9.73891C22.2642 9.84205 22.4041 9.9 22.55 9.9C22.6959 9.9 22.8358 9.84205 22.9389 9.73891C23.0421 9.63576 23.1 9.49587 23.1 9.35Z" fill="#405161"/>
<path d="M25.8508 8.25C25.7049 8.25 25.565 8.30795 25.4619 8.41109C25.3587 8.51424 25.3008 8.65413 25.3008 8.8V9.35C25.3008 9.49587 25.3587 9.63576 25.4619 9.73891C25.565 9.84205 25.7049 9.9 25.8508 9.9C25.9967 9.9 26.1365 9.84205 26.2397 9.73891C26.3428 9.63576 26.4008 9.49587 26.4008 9.35V8.8C26.4008 8.65413 26.3428 8.51424 26.2397 8.41109C26.1365 8.30795 25.9967 8.25 25.8508 8.25Z" fill="#405161"/>
</g>
<defs>
<clipPath id="clip0_391_1298">
<rect width="33" height="33" fill="white"/>
</clipPath>
</defs>
</svg>
