<svg width="33" height="33" viewBox="0 0 33 33" fill="none" xmlns="http://www.w3.org/2000/svg">
<g clip-path="url(#clip0_391_1161)">
<path d="M11.8594 28.8744C11.8598 28.4643 12.0229 28.0711 12.3129 27.7811C12.6029 27.4911 12.9961 27.328 13.4062 27.3276H19.5938C20.0039 27.328 20.3971 27.4911 20.6871 27.7811C20.9771 28.0711 21.1402 28.4643 21.1406 28.8744V32.4838H22.1719V28.8744C22.1711 28.1909 21.8992 27.5356 21.4159 27.0523C20.9326 26.569 20.2773 26.2971 19.5938 26.2963H18.7994C19.1995 25.8518 19.4622 25.3009 19.5557 24.7102C19.6492 24.1195 19.5695 23.5143 19.3262 22.968C19.0829 22.4217 18.6865 21.9576 18.1849 21.6319C17.6833 21.3062 17.0981 21.1328 16.5 21.1328C15.9019 21.1328 15.3167 21.3062 14.8151 21.6319C14.3135 21.9576 13.9171 22.4217 13.6738 22.968C13.4305 23.5143 13.3508 24.1195 13.4443 24.7102C13.5378 25.3009 13.8005 25.8518 14.2006 26.2963H13.4062C12.7227 26.2971 12.0674 26.569 11.5841 27.0523C11.1008 27.5356 10.8289 28.1909 10.8281 28.8744V32.4838H11.8594V28.8744ZM16.5 22.1713C16.9079 22.1713 17.3067 22.2923 17.6459 22.5189C17.985 22.7455 18.2494 23.0676 18.4055 23.4445C18.5616 23.8214 18.6025 24.2361 18.5229 24.6362C18.4433 25.0363 18.2469 25.4038 17.9584 25.6922C17.67 25.9807 17.3025 26.1771 16.9024 26.2567C16.5023 26.3363 16.0876 26.2954 15.7107 26.1393C15.3338 25.9832 15.0117 25.7188 14.7851 25.3797C14.5585 25.0405 14.4375 24.6417 14.4375 24.2338C14.4381 23.687 14.6556 23.1627 15.0422 22.776C15.4289 22.3894 15.9532 22.1719 16.5 22.1713V22.1713Z" fill="#405161"/>
<path d="M19.0781 28.875H20.1094V32.4844H19.0781V28.875Z" fill="#405161"/>
<path d="M12.8906 28.875H13.9219V32.4844H12.8906V28.875Z" fill="#405161"/>
<path d="M5.93393 12.8249C6.01085 12.868 6.09754 12.8906 6.1857 12.8906C6.27386 12.8906 6.36055 12.868 6.43747 12.8249C8.30168 11.7903 9.81 10.2169 10.7649 8.31065C11.8755 6.00955 12.1516 3.3939 11.5459 0.911628C11.5266 0.83054 11.4879 0.755349 11.4331 0.692498C11.3783 0.629648 11.3092 0.581013 11.2315 0.550764C11.1538 0.520515 11.0699 0.509554 10.9871 0.51882C10.9043 0.528086 10.8249 0.557302 10.7558 0.603965C9.38528 1.52669 7.77244 2.02344 6.12024 2.03173C4.5122 2.02499 2.94088 1.55042 1.59795 0.665897C1.52844 0.620563 1.44903 0.592661 1.36644 0.584558C1.28386 0.576455 1.20053 0.588389 1.12354 0.619349C1.04655 0.650308 0.978163 0.69938 0.924177 0.762401C0.870192 0.825423 0.832202 0.900535 0.81343 0.981367C0.227999 3.44307 0.508241 6.0313 1.60701 8.31065C2.56152 10.217 4.06972 11.7905 5.93393 12.8249V12.8249ZM1.68154 1.91669C3.04131 2.66561 4.56787 3.05985 6.12024 3.063C7.71924 3.05496 9.28996 2.64058 10.6848 1.8588C11.0394 3.89536 10.7444 5.99186 9.8414 7.85142C9.02439 9.4839 7.75547 10.8472 6.1857 11.779C4.61587 10.8471 3.34694 9.48358 2.53 7.85092C1.63676 6.00927 1.34016 3.93487 1.68154 1.91669V1.91669Z" fill="#405161"/>
<path d="M4.125 5.15625C4.26171 5.15639 4.39278 5.21075 4.48945 5.30742C4.58612 5.40409 4.64049 5.53516 4.64062 5.67188H5.67188C5.67188 5.26162 5.5089 4.86816 5.21881 4.57807C4.92871 4.28797 4.53526 4.125 4.125 4.125C3.71474 4.125 3.32129 4.28797 3.03119 4.57807C2.7411 4.86816 2.57812 5.26162 2.57812 5.67188H3.60938C3.60951 5.53516 3.66388 5.40409 3.76055 5.30742C3.85722 5.21075 3.98829 5.15639 4.125 5.15625Z" fill="#405161"/>
<path d="M4.64062 8.25C4.64062 8.66026 4.8036 9.05371 5.09369 9.34381C5.38379 9.6339 5.77724 9.79687 6.1875 9.79688C6.59776 9.79687 6.99121 9.6339 7.28131 9.34381C7.5714 9.05371 7.73438 8.66026 7.73438 8.25H6.70312C6.70312 8.38675 6.6488 8.5179 6.5521 8.6146C6.4554 8.7113 6.32425 8.76562 6.1875 8.76562C6.05075 8.76562 5.9196 8.7113 5.8229 8.6146C5.7262 8.5179 5.67188 8.38675 5.67188 8.25H4.64062Z" fill="#405161"/>
<path d="M8.25 5.15625C8.38671 5.15639 8.51778 5.21075 8.61445 5.30742C8.71112 5.40409 8.76549 5.53516 8.76562 5.67188H9.79688C9.79687 5.26162 9.6339 4.86816 9.34381 4.57807C9.05371 4.28797 8.66026 4.125 8.25 4.125C7.83974 4.125 7.44629 4.28797 7.15619 4.57807C6.8661 4.86816 6.70312 5.26162 6.70312 5.67188H7.73438C7.73451 5.53516 7.78888 5.40409 7.88555 5.30742C7.98222 5.21075 8.11329 5.15639 8.25 5.15625Z" fill="#405161"/>
<path d="M22.2229 10.9784C22.1534 10.9331 22.074 10.9052 21.9914 10.8971C21.9089 10.889 21.8255 10.9009 21.7485 10.9318C21.6716 10.9628 21.6032 11.0119 21.5492 11.0749C21.4952 11.1379 21.4572 11.213 21.4384 11.2939C20.853 13.7556 21.1332 16.3438 22.232 18.6231C23.1865 20.5295 24.6947 22.103 26.5589 23.1374C26.6358 23.1805 26.7225 23.2031 26.8107 23.2031C26.8989 23.2031 26.9856 23.1805 27.0625 23.1374C28.9267 22.1028 30.435 20.5294 31.3899 18.6231C32.5005 16.322 32.7766 13.7064 32.1709 11.2241C32.1516 11.143 32.1129 11.0678 32.0581 11.005C32.0033 10.9421 31.9342 10.8935 31.8565 10.8633C31.7788 10.833 31.6949 10.8221 31.6121 10.8313C31.5293 10.8406 31.4499 10.8698 31.3808 10.9165C30.0103 11.8392 28.3974 12.3359 26.7452 12.3442C25.1372 12.3375 23.5659 11.8629 22.2229 10.9784V10.9784ZM30.4664 18.1639C29.6494 19.7964 28.3805 21.1597 26.8107 22.0915C25.2409 21.1596 23.9719 19.7961 23.155 18.1634C22.2618 16.3218 21.9652 14.2474 22.3065 12.2292C23.6663 12.9781 25.1929 13.3723 26.7452 13.3755C28.3442 13.3675 29.915 12.9531 31.3098 12.1713C31.6644 14.2079 31.3694 16.3044 30.4664 18.1639V18.1639Z" fill="#405161"/>
<path d="M28.875 16.5C29.2851 16.4996 29.6783 16.3364 29.9683 16.0464C30.2583 15.7564 30.4214 15.3632 30.4219 14.9531H29.3906C29.3906 15.0899 29.3363 15.221 29.2396 15.3177C29.1429 15.4144 29.0118 15.4688 28.875 15.4688C28.7382 15.4688 28.6071 15.4144 28.5104 15.3177C28.4137 15.221 28.3594 15.0899 28.3594 14.9531H27.3281C27.3286 15.3632 27.4917 15.7564 27.7817 16.0464C28.0717 16.3364 28.4649 16.4996 28.875 16.5Z" fill="#405161"/>
<path d="M25.2656 20.1094H26.2969C26.2969 19.9726 26.3512 19.8415 26.4479 19.7448C26.5446 19.6481 26.6757 19.5938 26.8125 19.5938C26.9493 19.5938 27.0804 19.6481 27.1771 19.7448C27.2738 19.8415 27.3281 19.9726 27.3281 20.1094H28.3594C28.3594 19.6991 28.1964 19.3057 27.9063 19.0156C27.6162 18.7255 27.2228 18.5625 26.8125 18.5625C26.4022 18.5625 26.0088 18.7255 25.7187 19.0156C25.4286 19.3057 25.2656 19.6991 25.2656 20.1094Z" fill="#405161"/>
<path d="M26.2969 14.9531H25.2656C25.2656 15.0899 25.2113 15.221 25.1146 15.3177C25.0179 15.4144 24.8868 15.4688 24.75 15.4688C24.6132 15.4688 24.4821 15.4144 24.3854 15.3177C24.2887 15.221 24.2344 15.0899 24.2344 14.9531H23.2031C23.2031 15.3634 23.3661 15.7568 23.6562 16.0469C23.9463 16.337 24.3397 16.5 24.75 16.5C25.1603 16.5 25.5537 16.337 25.8438 16.0469C26.1339 15.7568 26.2969 15.3634 26.2969 14.9531Z" fill="#405161"/>
<path d="M16.4998 2.5781C18.9772 2.58671 21.3695 3.48321 23.2424 5.10491C25.1153 6.72661 26.3447 8.96602 26.7076 11.4167L27.7288 11.2707C27.488 9.61078 26.8824 8.02482 25.9556 6.62685C25.0287 5.22887 23.8037 4.05362 22.3684 3.18557C20.9332 2.31753 19.3235 1.77826 17.655 1.60654C15.9865 1.43481 14.3007 1.6349 12.7188 2.19241L13.0622 3.16475C14.1663 2.775 15.3289 2.5766 16.4998 2.5781V2.5781Z" fill="#405161"/>
<path d="M6.23325 13.873L5.20703 13.9702C5.39929 16.0259 6.15061 17.9897 7.37955 19.6487C8.60848 21.3078 10.2681 22.5987 12.1785 23.3816L12.5713 22.4284C10.8346 21.7166 9.32594 20.5431 8.20869 19.035C7.09144 17.5269 6.40828 15.7417 6.23325 13.873V13.873Z" fill="#405161"/>
<path d="M22.3925 21.3555C21.7788 21.7835 21.1203 22.1436 20.4287 22.4293L20.8215 23.3825C21.5826 23.0684 22.3073 22.6724 22.9827 22.2014L22.3925 21.3555Z" fill="#405161"/>
<path d="M17.0159 12.8906V5.15625H15.9846V12.5872L11.6094 15.0181L12.1099 15.9194L16.7505 13.3413C16.8309 13.2967 16.8979 13.2313 16.9446 13.1521C16.9912 13.0729 17.0159 12.9826 17.0159 12.8906Z" fill="#405161"/>
</g>
<defs>
<clipPath id="clip0_391_1161">
<rect width="33" height="33" fill="white"/>
</clipPath>
</defs>
</svg>
