<svg width="36" height="36" viewBox="0 0 36 36" fill="none" xmlns="http://www.w3.org/2000/svg">
<g clip-path="url(#clip0_391_1403)">
<path d="M12.9434 28.3778H10.397C10.3866 28.1649 10.3896 27.9512 10.4061 27.738C11.9983 26.4126 12.7731 25.2448 12.7731 24.1721C12.7731 24.0556 12.7684 23.9414 12.7585 23.8266C12.7252 23.486 12.7131 22.3381 12.7295 21.1874C13.5676 20.7653 14.1439 19.8962 14.1439 18.895C14.1439 18.1059 13.7745 17.3645 13.17 16.8836C13.2459 16.6874 13.2857 16.4772 13.2857 16.2629C13.2857 15.3155 12.5154 14.5447 11.5686 14.5447C11.5152 14.5447 11.4622 14.5471 11.4097 14.552C11.0522 13.927 10.3796 13.5215 9.63513 13.5215C9.162 13.5215 8.71411 13.6829 8.35692 13.9701C7.99959 13.6829 7.55177 13.5215 7.07864 13.5215C6.47726 13.5215 5.91855 13.7835 5.53556 14.2266C5.38439 14.1894 5.22858 14.1703 5.07227 14.1703C4.00402 14.1703 3.13488 15.04 3.13488 16.1089C3.13488 16.434 3.21792 16.7525 3.37085 17.0344C2.86713 17.5137 2.56992 18.1865 2.56992 18.895C2.56992 19.8964 3.14634 20.7654 3.98447 21.1875C4.00078 22.3396 3.98876 23.4887 3.95487 23.8345C3.94559 23.9412 3.94088 24.0548 3.94088 24.1721C3.94088 25.245 4.71565 26.4127 6.30773 27.7377C6.32433 27.9509 6.32735 28.1648 6.3168 28.3779H3.77058C1.69151 28.3778 0 30.0707 0 32.1515C0 32.3321 0.0924609 32.5002 0.245109 32.5969C1.08563 33.1295 1.98148 33.5802 2.90784 33.9367C2.97014 33.9607 3.03413 33.972 3.09705 33.972C3.30891 33.972 3.50866 33.8434 3.58938 33.6339C3.69394 33.3621 3.55845 33.0569 3.28655 32.9523C2.51972 32.6572 1.77525 32.2926 1.06938 31.8666C1.21205 30.5008 2.36897 29.4324 3.77051 29.4324H6.33607C6.57014 30.3302 7.38745 30.9948 8.35692 30.9948C9.32639 30.9948 10.1437 30.3302 10.3778 29.4324H12.9433C14.3448 29.4324 15.5017 30.5008 15.6444 31.8666C13.4501 33.1911 10.9373 33.8896 8.35713 33.8896C7.39062 33.8896 6.42495 33.7915 5.48691 33.5979C5.20221 33.5392 4.92286 33.7225 4.86387 34.0078C4.80502 34.2931 4.98853 34.5719 5.27379 34.6308C6.28179 34.8388 7.31925 34.9443 8.3572 34.9443C11.24 34.9443 14.045 34.1325 16.4687 32.5968C16.6214 32.5002 16.7138 32.332 16.7138 32.1514C16.714 30.0707 15.0225 28.3778 12.9434 28.3778ZM4.37295 17.5914C4.51624 17.5074 4.61166 17.3608 4.63029 17.1958C4.64906 17.0308 4.58887 16.8665 4.46794 16.7526C4.28843 16.5835 4.18964 16.3549 4.18964 16.1089C4.18964 15.6214 4.58564 15.2249 5.07234 15.2249C5.21909 15.2249 5.35859 15.2598 5.48712 15.3286C5.61115 15.395 5.7567 15.409 5.89106 15.3677C6.02557 15.3263 6.13793 15.2329 6.20318 15.1082C6.37488 14.7801 6.71034 14.5762 7.07864 14.5762C7.41544 14.5762 7.72608 14.7457 7.90945 15.0295C8.00663 15.1798 8.17341 15.2706 8.35235 15.2706H8.36142C8.54044 15.2706 8.70715 15.1798 8.80432 15.0295C8.9877 14.7457 9.29827 14.5763 9.63506 14.5763C10.0807 14.5763 10.4731 14.8766 10.5893 15.3065C10.6293 15.4542 10.7314 15.5772 10.8691 15.6437C11.0068 15.7102 11.1665 15.7136 11.3072 15.6531C11.3895 15.6176 11.4774 15.5996 11.5684 15.5996C11.9336 15.5996 12.2309 15.8972 12.2309 16.263C12.2309 16.4262 12.1712 16.5831 12.0627 16.7047C11.9524 16.8286 11.9067 16.9971 11.9395 17.1597C11.9722 17.3222 12.0795 17.46 12.2292 17.5314C12.7515 17.7809 13.089 18.3162 13.089 18.8952C13.089 19.7277 12.4125 20.405 11.5811 20.405C10.9619 20.405 10.3963 20.0165 10.1735 19.4381C10.114 19.2837 9.98536 19.166 9.82624 19.1206C9.77857 19.107 9.72991 19.1004 9.6814 19.1004C9.56805 19.1004 9.45619 19.137 9.36352 19.2069C9.07179 19.4272 8.7236 19.5437 8.35678 19.5437C7.98996 19.5437 7.64177 19.4272 7.34991 19.2068C7.21779 19.107 7.04637 19.075 6.88732 19.1206C6.72806 19.166 6.59946 19.2837 6.54005 19.4381C6.31737 20.0165 5.7517 20.4049 5.13246 20.4049C4.30102 20.4049 3.62461 19.7276 3.62461 18.8951C3.62482 18.3613 3.91148 17.8618 4.37295 17.5914ZM8.35699 29.9402C7.79794 29.9402 7.34119 29.4934 7.32396 28.9376C7.39195 28.4308 7.39561 27.9158 7.33479 27.406C7.31855 27.2697 7.24971 27.1451 7.14298 27.0587C5.36822 25.6214 4.9957 24.6955 4.9957 24.172C4.9957 24.0852 4.99908 24.0023 5.0052 23.9317C5.04408 23.5357 5.0528 22.4552 5.04267 21.4579C5.07256 21.459 5.10251 21.4596 5.1326 21.4596C5.9772 21.4596 6.76301 21.0344 7.236 20.3585C7.5851 20.5165 7.96451 20.5983 8.35692 20.5983C8.74934 20.5983 9.12874 20.5165 9.47777 20.3585C9.95084 21.0343 10.7366 21.4596 11.5812 21.4596C11.6113 21.4596 11.6414 21.459 11.6713 21.4579C11.6612 22.4539 11.6698 23.5322 11.7081 23.923C11.7148 24.0016 11.7183 24.0855 11.7183 24.1721C11.7183 24.6955 11.3457 25.6214 9.5708 27.0592C9.46406 27.1457 9.39537 27.2703 9.37906 27.4065C9.31831 27.9161 9.32189 28.431 9.38988 28.9377C9.37287 29.4934 8.91612 29.9402 8.35699 29.9402Z" fill="#405161"/>
<path d="M34.7979 29.3919C34.379 28.3755 34.0215 23.1551 33.8934 18.626C33.899 17.2318 33.4622 16.0828 32.5949 15.2107C31.5115 14.1214 29.7526 13.5215 27.6421 13.5215C25.5316 13.5215 23.7726 14.1214 22.6893 15.2107C21.822 16.0829 21.3851 17.2319 21.3909 18.6261C21.2628 23.155 20.9053 28.3751 20.4864 29.3919C19.7477 30.0813 19.2852 31.0634 19.2852 32.1516C19.2852 32.3322 19.3776 32.5003 19.5303 32.597C21.9541 34.1327 24.759 34.9444 27.6418 34.9444C28.6798 34.9444 29.7172 34.839 30.7252 34.631C31.0105 34.5721 31.194 34.2931 31.1351 34.0079C31.0762 33.7227 30.7972 33.5392 30.5121 33.598C29.5741 33.7916 28.6084 33.8898 27.6419 33.8898C25.0618 33.8898 22.5489 33.1912 20.3546 31.8668C20.4973 30.5009 21.6542 29.4325 23.0557 29.4325H25.6207C25.7128 29.7888 25.8985 30.1155 26.1654 30.3826C26.5598 30.7774 27.0842 30.9949 27.6421 30.9949C28.6116 30.9949 29.4289 30.3303 29.663 29.4325H32.2286C33.6301 29.4325 34.787 30.5008 34.9297 31.8668C34.2238 32.2927 33.4794 32.6574 32.7125 32.9525C32.4407 33.057 32.3051 33.3622 32.4097 33.634C32.4903 33.8436 32.6901 33.9722 32.902 33.9722C32.965 33.9722 33.029 33.9608 33.0912 33.9369C34.0176 33.5804 34.9134 33.1296 35.754 32.5971C35.9066 32.5004 35.9991 32.3323 35.9991 32.1516C35.9991 31.0633 35.5365 30.0813 34.7979 29.3919ZM27.6421 29.9402C27.3661 29.9402 27.1066 29.8326 26.9115 29.6372C26.7238 29.4494 26.6171 29.2021 26.609 28.9377C26.677 28.4308 26.6807 27.9157 26.6198 27.406C26.6036 27.2697 26.5347 27.1451 26.4281 27.0587C24.6533 25.6213 24.2807 24.6955 24.2807 24.172C24.2807 24.085 24.2841 24.0024 24.2903 23.9316C24.3294 23.5324 24.338 22.4418 24.3275 21.4401H27.5366C28.164 21.4401 28.7282 21.164 29.1141 20.7268C29.5002 21.164 30.0643 21.4401 30.6917 21.4401H30.9567C30.9463 22.441 30.9548 23.5298 30.9933 23.9229C31.0001 24.0016 31.0035 24.0854 31.0035 24.1721C31.0035 24.6955 30.6309 25.6213 28.856 27.0592C28.7493 27.1456 28.6806 27.2702 28.6643 27.4064C28.6035 27.916 28.6071 28.4309 28.675 28.9376C28.658 29.4934 28.2011 29.9402 27.6421 29.9402ZM29.6821 28.3778C29.6716 28.1649 29.6747 27.9512 29.6912 27.738C31.2834 26.4126 32.0582 25.2448 32.0582 24.1721C32.0582 24.0556 32.0535 23.9414 32.0436 23.8266C32.0076 23.4597 31.9965 22.1569 32.0188 20.9224H32.0188C32.0188 20.9192 32.0189 20.916 32.0189 20.9129C32.0189 20.6216 31.7829 20.3855 31.4915 20.3855H30.6917C30.1126 20.3855 29.6414 19.9137 29.6414 19.3338C29.6414 19.0426 29.4054 18.8065 29.1141 18.8065C28.8228 18.8065 28.5867 19.0426 28.5867 19.3338C28.5867 19.9137 28.1156 20.3855 27.5365 20.3855H23.7926C23.5013 20.3855 23.2653 20.6216 23.2653 20.9129C23.2653 20.916 23.2653 20.9193 23.2654 20.9224H23.2653C23.2877 22.1575 23.2766 23.4614 23.2401 23.8341C23.2307 23.9407 23.226 24.0544 23.226 24.1721C23.226 25.2449 24.0008 26.4127 25.5929 27.7377C25.6095 27.9509 25.6125 28.1648 25.602 28.3779H23.0556C22.5939 28.3779 22.1513 28.4614 21.7421 28.6141C22.2195 25.7972 22.4073 19.9944 22.4453 18.6471C22.4454 18.6412 22.4455 18.6353 22.4455 18.6294C22.4394 17.5221 22.7729 16.6222 23.437 15.9545C24.3209 15.0657 25.8143 14.5762 27.642 14.5762C29.4697 14.5762 30.9631 15.0657 31.847 15.9545C32.511 16.6222 32.8446 17.5221 32.8386 18.6294C32.8386 18.6353 32.8387 18.6412 32.8388 18.6471C32.8395 18.6715 32.9094 21.1139 33.0673 23.6916C33.2215 26.211 33.3846 27.7039 33.5361 28.6119C33.1286 28.4606 32.688 28.3779 32.2285 28.3779H29.6821V28.3778Z" fill="#405161"/>
<path d="M20.3699 20.6353C20.3144 20.3494 20.0376 20.1629 19.7518 20.2181C19.1788 20.3292 18.5896 20.3856 18.0005 20.3856C17.1106 20.3856 16.2313 20.2581 15.387 20.0065C15.1076 19.9233 14.8142 20.0822 14.7311 20.3613C14.6479 20.6404 14.8067 20.9341 15.0859 21.0173C16.0279 21.298 17.0086 21.4403 18.0005 21.4403C18.6569 21.4403 19.3137 21.3775 19.9527 21.2535C20.2386 21.198 20.4253 20.9213 20.3699 20.6353Z" fill="#405161"/>
<path d="M11.7641 4.56715C13.4614 2.98223 15.6758 2.10945 17.9994 2.10945C23.0382 2.10945 27.1376 6.2088 27.1376 11.2476C27.1376 11.4746 27.1292 11.7044 27.1125 11.9306C27.0911 12.221 27.3092 12.4739 27.5996 12.4952C27.6128 12.4962 27.6259 12.4967 27.639 12.4967C27.9127 12.4967 28.1439 12.2854 28.1644 12.0081C28.183 11.7562 28.1924 11.5003 28.1924 11.2475C28.1924 5.62718 23.6199 1.05469 17.9994 1.05469C15.4077 1.05469 12.9377 2.0283 11.0443 3.79617C10.8315 3.99495 10.8201 4.32865 11.0189 4.54155C11.2177 4.75446 11.5513 4.76592 11.7641 4.56715Z" fill="#405161"/>
<path d="M8.38707 12.7995C8.40549 12.7995 8.42413 12.7985 8.4429 12.7965C8.73252 12.766 8.94261 12.5065 8.91216 12.2168C8.87848 11.8971 8.8614 11.5711 8.8614 11.2479C8.8614 9.41672 9.40098 7.65005 10.4218 6.1391C10.5848 5.89772 10.5213 5.56992 10.28 5.40687C10.0386 5.24374 9.71077 5.30731 9.54779 5.54862C8.40873 7.23464 7.80664 9.20543 7.80664 11.2479C7.80664 11.6079 7.8257 11.971 7.86317 12.3273C7.89179 12.5982 8.12059 12.7995 8.38707 12.7995Z" fill="#405161"/>
<path d="M17.9571 14.918C17.0847 14.918 16.375 15.6277 16.375 16.5001C16.375 17.3724 17.0847 18.0822 17.9571 18.0822C18.8295 18.0822 19.5393 17.3724 19.5393 16.5001C19.5393 15.6277 18.8295 14.918 17.9571 14.918ZM17.9571 17.0276C17.6663 17.0276 17.4297 16.791 17.4297 16.5001C17.4297 16.2093 17.6663 15.9727 17.9571 15.9727C18.248 15.9727 18.4846 16.2093 18.4846 16.5001C18.4846 16.791 18.2479 17.0276 17.9571 17.0276Z" fill="#405161"/>
<path d="M19.5393 5.62312C19.5393 4.75075 18.8295 4.04102 17.9571 4.04102C17.0847 4.04102 16.375 4.75075 16.375 5.62312V12.3194C16.375 13.1918 17.0847 13.9015 17.9571 13.9015C18.8295 13.9015 19.5393 13.1918 19.5393 12.3194V5.62312ZM18.4846 12.3194C18.4846 12.6102 18.248 12.8468 17.9571 12.8468C17.6663 12.8468 17.4297 12.6102 17.4297 12.3194V5.62312C17.4297 5.3323 17.6663 5.0957 17.9571 5.0957C18.248 5.0957 18.4846 5.3323 18.4846 5.62312V12.3194Z" fill="#405161"/>
</g>
<defs>
<clipPath id="clip0_391_1403">
<rect width="36" height="36" fill="white"/>
</clipPath>
</defs>
</svg>
