<svg width="21" height="21" viewBox="0 0 21 21" fill="none" xmlns="http://www.w3.org/2000/svg">
<g clip-path="url(#clip0_383_880)">
<path d="M20.4288 15.4119L17.4982 12.4813C16.4516 11.4346 14.6723 11.8533 14.2536 13.2139C13.9396 14.1559 12.893 14.6793 11.951 14.4699C9.85771 13.9466 7.03176 11.2253 6.50844 9.02733C6.19444 8.08531 6.82243 7.03866 7.76441 6.72471C9.12506 6.30605 9.54371 4.52675 8.49707 3.4801L5.56645 0.54949C4.72914 -0.183163 3.47316 -0.183163 2.74051 0.54949L0.751877 2.53812C-1.23675 4.63141 0.961206 10.1786 5.88045 15.0979C10.7997 20.0171 16.3469 22.3198 18.4402 20.2265L20.4288 18.2378C21.1615 17.4005 21.1615 16.1445 20.4288 15.4119Z" fill="#CBEAA6"/>
</g>
<defs>
<clipPath id="clip0_383_880">
<rect width="21" height="21" fill="white"/>
</clipPath>
</defs>
</svg>
