<svg width="62" height="58" viewBox="0 0 62 58" fill="none" xmlns="http://www.w3.org/2000/svg">
<path d="M22.096 0.0479889L12.368 43.568L11.088 35.888C14.3307 35.888 16.976 36.912 19.024 38.96C21.072 40.8373 22.096 43.3973 22.096 46.64C22.096 49.712 21.072 52.272 19.024 54.32C16.976 56.368 14.5013 57.392 11.6 57.392C8.35733 57.392 5.712 56.368 3.664 54.32C1.78667 52.1013 0.848001 49.5413 0.848001 46.64C0.848001 45.2747 0.848001 44.08 0.848001 43.056C1.01867 42.032 1.27467 40.9227 1.616 39.728C2.128 38.3627 2.64 36.7413 3.152 34.864L13.136 0.0479889H22.096ZM61.264 0.0479889L51.536 43.568L50.256 35.888C53.4987 35.888 56.144 36.912 58.192 38.96C60.24 40.8373 61.264 43.3973 61.264 46.64C61.264 49.712 60.24 52.272 58.192 54.32C56.144 56.368 53.6693 57.392 50.768 57.392C47.5253 57.392 44.88 56.368 42.832 54.32C40.9547 52.1013 40.016 49.5413 40.016 46.64C40.016 45.2747 40.016 44.08 40.016 43.056C40.1867 42.032 40.4427 40.9227 40.784 39.728C41.296 38.3627 41.808 36.7413 42.32 34.864L52.304 0.0479889H61.264Z" fill="#CBEAA6"/>
</svg>
