<svg width="47" height="47" viewBox="0 0 47 47" fill="none" xmlns="http://www.w3.org/2000/svg">
<g clip-path="url(#clip0_395_2366)">
<path d="M40.5703 8.41786L38.4659 6.31342V0L31.9187 6.78113L31.4511 12.1592L24.6699 18.9404C24.2022 18.9404 23.9684 18.9404 23.5008 18.9404C20.9287 18.9404 18.8242 21.0448 18.8242 23.6169C18.8242 26.1891 20.9287 28.2935 23.5008 28.2935C26.073 28.2935 28.1774 26.1891 28.1774 23.6169C28.1774 23.1493 28.1774 22.9154 27.9436 22.4478L34.7247 15.6667L40.1028 15.199L46.884 8.41786H40.5703Z" fill="#405161"/>
<path d="M36.1274 17.7719H35.8936L32.6199 21.2794C32.8538 21.9809 32.8538 22.9162 32.8538 23.6178C32.8538 28.7621 28.6448 32.971 23.5005 32.971C18.3562 32.971 14.1472 28.7621 14.1472 23.6178C14.1472 18.4735 18.3563 14.2645 23.5006 14.2645C24.4359 14.2645 25.1374 14.4983 25.8389 14.4983L29.3464 10.9908V10.757C27.4757 10.0555 25.6051 9.58789 23.5006 9.58789C15.7841 9.58789 9.4707 15.9013 9.4707 23.6178C9.4707 31.3342 15.7841 37.6475 23.5006 37.6475C31.217 37.6475 37.5304 31.3341 37.5304 23.6177C37.5304 21.5132 37.0627 19.6426 36.1274 17.7719Z" fill="#405161"/>
<path d="M44.7788 14.0304L41.2714 17.3041C41.7391 19.1747 42.2067 21.2793 42.2067 23.6175C42.2067 33.9061 33.7888 42.324 23.5002 42.324C13.2116 42.324 4.79378 33.906 4.79378 23.6175C4.79378 13.329 13.2116 4.91106 23.5002 4.91106C25.6047 4.91106 27.7092 5.37876 29.8137 6.08018V5.84638L33.3211 2.33891C30.2814 0.935887 27.0077 0.234375 23.5002 0.234375C10.6395 0.234375 0.117188 10.7568 0.117188 23.6175C0.117188 36.4783 10.6395 47.0006 23.5002 47.0006C36.361 47.0006 46.8833 36.4782 46.8833 23.6175C46.8833 20.1101 46.1819 16.8364 44.7788 14.0304Z" fill="#405161"/>
</g>
<defs>
<clipPath id="clip0_395_2366">
<rect width="47" height="47" fill="white"/>
</clipPath>
</defs>
</svg>
