<svg width="46" height="46" viewBox="0 0 46 46" fill="none" xmlns="http://www.w3.org/2000/svg">
<path d="M40.5513 37.5267L38.5805 35.9009L34.1939 24.9759C36.4975 24.6805 38.3706 22.8649 38.5855 20.6008C38.7199 19.2029 38.2757 17.8638 37.337 16.831C36.4113 15.8125 35.0902 15.2282 33.7138 15.2282H31.3297C31.9371 13.7497 32.1239 12.1469 31.8702 10.5283C31.2679 6.69807 28.0328 3.6175 24.1774 3.20278C21.6453 2.92678 19.2238 3.70878 17.3479 5.39497C15.4964 7.05672 14.4348 9.43722 14.4348 11.9234C14.4348 13.4169 14.81 14.8652 15.528 16.1604C14.0977 16.813 12.8356 17.7848 11.8408 19.0038L6.2015 25.9203C2.69184 30.2249 3.01959 36.4543 6.94684 40.1027C8.86806 41.8873 11.3118 42.8483 13.8943 42.8483C14.1351 42.8483 14.3766 42.8397 14.6188 42.8232C17.4269 42.6291 20.0576 41.2671 21.8365 39.0864L25.745 34.293L27.9458 39.7742C28.6948 41.6415 30.4794 42.8476 32.4912 42.8476H38.6387C39.9217 42.8476 41.0314 42.067 41.4662 40.8595C41.8997 39.6528 41.541 38.3446 40.5513 37.5267ZM22.1276 15.2282H28.2722C28.6696 15.2282 28.9909 15.5495 28.9909 15.9469C28.9909 16.3444 28.6696 16.6657 28.2722 16.6657H22.1276C21.7301 16.6657 21.4088 16.3444 21.4088 15.9469C21.4088 15.5495 21.7301 15.2282 22.1276 15.2282ZM31.2737 25.0183H26.2352C25.1628 25.0183 24.1609 25.497 23.4882 26.3314L19.3805 31.4252C19.2389 31.6013 19.0305 31.6926 18.8206 31.6926C18.6625 31.6926 18.5036 31.6408 18.3699 31.533C18.0609 31.2836 18.0127 30.8308 18.2621 30.5225L22.3698 25.4287C23.3171 24.2543 24.7266 23.5808 26.2359 23.5808H31.2744C31.6718 23.5808 31.9931 23.9021 31.9931 24.2995C31.9931 24.697 31.6704 25.0183 31.2737 25.0183ZM3.79297 16.2172C3.3955 16.2172 3.07422 15.8959 3.07422 15.4984V4.48935C3.07422 4.09188 3.3955 3.7706 3.79297 3.7706C4.19044 3.7706 4.51172 4.09188 4.51172 4.48935V15.4984C4.51172 15.8959 4.19044 16.2172 3.79297 16.2172ZM7.48375 13.0015C7.08628 13.0015 6.765 12.6802 6.765 12.2828V4.48935C6.765 4.09188 7.08628 3.7706 7.48375 3.7706C7.88122 3.7706 8.2025 4.09188 8.2025 4.48935V12.2828C8.2025 12.6802 7.88122 13.0015 7.48375 13.0015ZM11.1752 9.7851C10.7778 9.7851 10.4565 9.46381 10.4565 9.06635V4.48935C10.4565 4.09188 10.7778 3.7706 11.1752 3.7706C11.5727 3.7706 11.894 4.09188 11.894 4.48935V9.06635C11.894 9.46381 11.5727 9.7851 11.1752 9.7851ZM42.2058 16.2172C41.8084 16.2172 41.4871 15.8959 41.4871 15.4984V4.48935C41.4871 4.09188 41.8084 3.7706 42.2058 3.7706C42.6033 3.7706 42.9246 4.09188 42.9246 4.48935V15.4984C42.9246 15.8959 42.6026 16.2172 42.2058 16.2172ZM38.5151 13.0015C38.1176 13.0015 37.7963 12.6802 37.7963 12.2828V4.48935C37.7963 4.09188 38.1176 3.7706 38.5151 3.7706C38.9125 3.7706 39.2338 4.09188 39.2338 4.48935V12.2828C39.2338 12.6802 38.9125 13.0015 38.5151 13.0015ZM34.8236 9.7851C34.4261 9.7851 34.1048 9.46381 34.1048 9.06635V4.48935C34.1048 4.09188 34.4261 3.7706 34.8236 3.7706C35.221 3.7706 35.5423 4.09188 35.5423 4.48935V9.06635C35.5423 9.46381 35.221 9.7851 34.8236 9.7851Z" fill="#405161"/>
</svg>
