<svg width="37" height="37" viewBox="0 0 37 37" fill="none" xmlns="http://www.w3.org/2000/svg">
<g clip-path="url(#clip0_383_956)">
<path d="M18.5 21.6797C18.9574 21.6797 19.4045 21.5441 19.7848 21.29C20.165 21.0359 20.4614 20.6747 20.6365 20.2521C20.8115 19.8296 20.8573 19.3646 20.7681 18.916C20.6788 18.4675 20.4586 18.0554 20.1352 17.732C19.8118 17.4086 19.3997 17.1884 18.9511 17.0991C18.5026 17.0099 18.0376 17.0557 17.615 17.2307C17.1925 17.4057 16.8313 17.7021 16.5772 18.0824C16.3231 18.4627 16.1875 18.9098 16.1875 19.3672C16.1881 19.9803 16.432 20.5681 16.8655 21.0017C17.2991 21.4352 17.8869 21.679 18.5 21.6797ZM18.5 18.2109C18.7287 18.2109 18.9522 18.2788 19.1424 18.4058C19.3325 18.5329 19.4807 18.7134 19.5682 18.9247C19.6557 19.136 19.6786 19.3685 19.634 19.5928C19.5894 19.8171 19.4793 20.0231 19.3176 20.1848C19.1559 20.3465 18.9499 20.4566 18.7256 20.5012C18.5013 20.5458 18.2688 20.5229 18.0575 20.4354C17.8462 20.3479 17.6657 20.1997 17.5386 20.0096C17.4116 19.8194 17.3438 19.5959 17.3438 19.3672C17.3441 19.0606 17.466 18.7667 17.6828 18.55C17.8996 18.3332 18.1935 18.2113 18.5 18.2109Z" fill="#C0D88D"/>
<path d="M32.9531 15.8984V13.5859C32.9511 11.7466 32.2195 9.98324 30.9189 8.68265C29.6183 7.38206 27.855 6.65049 26.0156 6.64844H24.5703V6.35938C24.5703 4.74943 23.9308 3.20542 22.7924 2.06702C21.654 0.928612 20.11 0.289063 18.5 0.289062C16.8901 0.289063 15.3461 0.928612 14.2077 2.06702C13.0693 3.20542 12.4297 4.74943 12.4297 6.35938V6.64844H10.9844C9.14509 6.65049 7.3817 7.38206 6.08111 8.68265C4.78052 9.98324 4.04895 11.7466 4.0469 13.5859V15.8984C2.97398 15.8997 1.94536 16.3264 1.1867 17.0851C0.428028 17.8438 0.00126423 18.8724 2.48613e-05 19.9453C-0.00265702 20.7337 0.211687 21.5076 0.619578 22.1823C1.02747 22.857 1.61317 23.4064 2.31252 23.7703V33.8203C2.31343 34.5867 2.61826 35.3214 3.16017 35.8633C3.70207 36.4052 4.43679 36.71 5.20315 36.7109H31.7969C32.5633 36.71 33.298 36.4052 33.8399 35.8633C34.3818 35.3214 34.6866 34.5867 34.6875 33.8203V23.7703C35.3869 23.4064 35.9726 22.857 36.3805 22.1823C36.7884 21.5076 37.0027 20.7337 37 19.9453C36.9988 18.8724 36.572 17.8438 35.8134 17.0851C35.0547 16.3264 34.0261 15.8997 32.9531 15.8984ZM26.0156 7.80469C27.5484 7.80643 29.0179 8.41609 30.1017 9.4999C31.1855 10.5837 31.7952 12.0532 31.7969 13.5859V16.0689C30.9625 16.3186 30.2307 16.8305 29.7101 17.5287C29.1894 18.227 28.9076 19.0743 28.9063 19.9453V23.9922H26.5938C26.5918 23.898 26.5662 23.8058 26.5194 23.7241L26.9686 23.3497C27.4854 22.9185 27.8356 22.3206 27.959 21.659C28.0824 20.9973 27.9713 20.3134 27.6447 19.7249L26.2816 17.2723L26.4264 16.1136C26.4803 15.6959 26.379 15.2731 26.1419 14.9251C25.9048 14.5771 25.5483 14.3282 25.14 14.2256C25.0008 13.8109 24.8094 13.4157 24.5703 13.0494V7.80469H26.0156ZM14.3317 29.1953C14.1894 29.1953 14.0521 29.1429 13.946 29.0479C13.84 28.953 13.7727 28.8223 13.757 28.6808L13.5571 26.8828H23.443L23.2432 28.6808C23.2276 28.8223 23.1603 28.953 23.0543 29.0479C22.9482 29.1429 22.8109 29.1953 22.6685 29.1953H14.3317ZM7.51565 25.1484H10.4063V26.3047C10.4063 26.458 10.4672 26.6051 10.5756 26.7135C10.684 26.8219 10.8311 26.8828 10.9844 26.8828H12.3943L12.5869 28.6172H7.51565C7.36236 28.6171 7.2154 28.5561 7.10701 28.4477C6.99862 28.3393 6.93766 28.1923 6.93752 28.0391V25.7266C6.93766 25.5733 6.99862 25.4263 7.10701 25.3179C7.2154 25.2095 7.36236 25.1486 7.51565 25.1484ZM16.0981 11.9209C16.7918 12.4388 17.6343 12.7185 18.5 12.7185C19.3657 12.7185 20.2082 12.4388 20.902 11.9209C21.5408 12.0298 22.1443 12.2904 22.6616 12.6807C23.179 13.071 23.5952 13.5797 23.8754 14.1641H13.1247C13.4048 13.5797 13.8211 13.071 14.3384 12.6807C14.8558 12.2904 15.4592 12.0298 16.0981 11.9209ZM21.3906 8.67188C21.3906 9.43852 21.0861 10.1738 20.544 10.7159C20.0019 11.258 19.2667 11.5625 18.5 11.5625C17.7334 11.5625 16.9981 11.258 16.456 10.7159C15.9139 10.1738 15.6094 9.43852 15.6094 8.67188V7.59749C16.4835 7.65891 17.3595 7.50694 18.1618 7.15465C18.9642 6.80236 19.6689 6.26032 20.2152 5.57521L20.2824 5.49051L21.3906 6.59878V8.67188ZM11.8609 15.5157C11.9148 15.4539 11.9815 15.4044 12.0562 15.3707C12.131 15.337 12.2122 15.3198 12.2942 15.3203H24.7059C24.7878 15.3203 24.8688 15.3378 24.9436 15.3715C25.0183 15.4052 25.085 15.4544 25.1392 15.5158C25.1935 15.5773 25.234 15.6496 25.2582 15.7279C25.2824 15.8062 25.2896 15.8888 25.2795 15.9701L24.3491 23.4141H12.651L11.7206 15.9701C11.71 15.8887 11.717 15.806 11.7412 15.7276C11.7654 15.6492 11.8062 15.5769 11.8609 15.5157ZM11.5625 25.7266V24.5703H25.4375V25.7266H11.5625ZM26.2285 22.4611L25.5641 23.0147L26.039 19.2153L26.6342 20.2864C26.8301 20.6395 26.8968 21.0498 26.8227 21.4468C26.7487 21.8437 26.5385 22.2024 26.2285 22.4611ZM11.4359 23.0147L10.7715 22.4611C10.4616 22.2023 10.2515 21.8437 10.1774 21.4467C10.1034 21.0498 10.17 20.6395 10.3658 20.2864L10.9613 19.2153L11.4359 23.0147ZM24.6058 26.8828H26.0156C26.169 26.8828 26.316 26.8219 26.4244 26.7135C26.5329 26.6051 26.5938 26.458 26.5938 26.3047V25.1484H29.4844C29.6377 25.1486 29.7847 25.2095 29.893 25.3179C30.0014 25.4263 30.0624 25.5733 30.0625 25.7266V28.0391C30.0624 28.1923 30.0014 28.3393 29.893 28.4477C29.7847 28.5561 29.6377 28.6171 29.4844 28.6172H24.4131L24.6058 26.8828ZM18.5 1.44531C19.8028 1.44684 21.0519 1.96506 21.9731 2.8863C22.8943 3.80753 23.4126 5.05655 23.4141 6.35938V11.8074C22.9394 11.4367 22.4039 11.1514 21.8315 10.964C22.2978 10.2906 22.5474 9.49094 22.5469 8.67188V6.35938C22.5469 6.28346 22.5319 6.20828 22.5029 6.13815C22.4738 6.06802 22.4312 6.0043 22.3775 5.95064L20.6431 4.21627C20.5856 4.15877 20.5166 4.11406 20.4406 4.08505C20.3647 4.05604 20.2834 4.04338 20.2022 4.04791C20.121 4.05244 20.0417 4.07405 19.9694 4.11133C19.8971 4.14861 19.8335 4.20072 19.7828 4.26425L19.3122 4.85255C18.8248 5.46497 18.1777 5.93085 17.4424 6.19879C16.707 6.46673 15.9119 6.5263 15.1448 6.37094C15.0609 6.35415 14.9744 6.35618 14.8914 6.37687C14.8084 6.39756 14.7311 6.4364 14.6649 6.49059C14.5988 6.54479 14.5455 6.61298 14.5088 6.69026C14.4722 6.76754 14.4532 6.85198 14.4532 6.9375V8.67188C14.4527 9.49094 14.7022 10.2906 15.1685 10.964C14.5961 11.1514 14.0606 11.4367 13.586 11.8074V6.35938C13.5875 5.05655 14.1057 3.80753 15.0269 2.8863C15.9482 1.96506 17.1972 1.44684 18.5 1.44531ZM5.20315 13.5859C5.20489 12.0532 5.81455 10.5837 6.89837 9.4999C7.98218 8.41609 9.45165 7.80643 10.9844 7.80469H12.4297V13.0494C12.1906 13.4157 11.9991 13.8109 11.8599 14.2256C11.4515 14.3282 11.095 14.5771 10.8579 14.9251C10.6208 15.2731 10.5196 15.6959 10.5734 16.1136L10.7179 17.2723L9.35501 19.7251C9.02844 20.3136 8.91732 20.9976 9.04078 21.6593C9.16425 22.3209 9.51457 22.9188 10.0314 23.3499L10.4804 23.7242C10.4337 23.806 10.4082 23.8981 10.4063 23.9922H8.09377V19.9453C8.09248 19.0743 7.81061 18.227 7.28996 17.5287C6.7693 16.8305 6.03755 16.3186 5.20315 16.0689V13.5859ZM3.46877 33.8203V23.4141C3.46876 23.3067 3.43883 23.2014 3.38234 23.1101C3.32585 23.0187 3.24504 22.9449 3.14896 22.8969L2.90505 22.7749C2.37834 22.5137 1.93534 22.1102 1.62626 21.6101C1.31717 21.1099 1.15436 20.5332 1.15627 19.9453C1.15627 19.1787 1.46082 18.4434 2.00292 17.9013C2.54502 17.3592 3.28026 17.0547 4.0469 17.0547C4.81354 17.0547 5.54878 17.3592 6.09088 17.9013C6.63298 18.4434 6.93752 19.1787 6.93752 19.9453V24.0987C6.60033 24.2175 6.30816 24.4377 6.10113 24.7292C5.8941 25.0207 5.78237 25.3691 5.78127 25.7266V28.0391C5.78178 28.4989 5.96467 28.9397 6.28982 29.2649C6.61497 29.59 7.05582 29.7729 7.51565 29.7734H13.0474C13.2209 29.9683 13.4362 30.1215 13.6772 30.2214L14.3728 35.5547H5.20315C4.74332 35.5542 4.30247 35.3713 3.97732 35.0461C3.65217 34.721 3.46928 34.2801 3.46877 33.8203ZM15.5388 35.5547L14.8603 30.3516H17.9219V35.5547H15.5388ZM21.4612 35.5547H19.0781V30.3516H22.1398L21.4612 35.5547ZM34.0953 22.7749L33.8511 22.8969C33.755 22.9449 33.6742 23.0187 33.6177 23.1101C33.5612 23.2014 33.5313 23.3067 33.5313 23.4141V33.8203C33.5308 34.2801 33.3479 34.721 33.0227 35.0461C32.6976 35.3713 32.2567 35.5542 31.7969 35.5547H22.6272L23.3229 30.2214C23.5639 30.1215 23.7792 29.9683 23.9526 29.7734H29.4844C29.9442 29.7729 30.3851 29.59 30.7102 29.2649C31.0354 28.9397 31.2183 28.4989 31.2188 28.0391V25.7266C31.2177 25.3691 31.1059 25.0207 30.8989 24.7292C30.6919 24.4377 30.3997 24.2175 30.0625 24.0987V19.9453C30.0625 19.1787 30.3671 18.4434 30.9092 17.9013C31.4513 17.3592 32.1865 17.0547 32.9531 17.0547C33.7198 17.0547 34.455 17.3592 34.9971 17.9013C35.5392 18.4434 35.8438 19.1787 35.8438 19.9453C35.8457 20.5332 35.6829 21.1099 35.3739 21.61C35.0648 22.1101 34.6219 22.5137 34.0953 22.7749Z" fill="#C0D88D"/>
</g>
<defs>
<clipPath id="clip0_383_956">
<rect width="37" height="37" fill="white"/>
</clipPath>
</defs>
</svg>
