<svg width="33" height="32" viewBox="0 0 33 32" fill="none" xmlns="http://www.w3.org/2000/svg">
<path d="M28.875 8.25C28.875 12.1687 22.9625 15.125 15.125 15.125C7.2875 15.125 1.375 12.1687 1.375 8.25C1.375 4.33125 7.2875 1.375 15.125 1.375C22.9625 1.375 28.875 4.33125 28.875 8.25ZM17.875 28.875C12.0312 28.875 7.04 27.3625 4.125 24.8187C4.2075 28.71 10.0787 31.625 17.875 31.625C25.6712 31.625 31.5012 28.7238 31.625 24.8738C28.7512 27.3625 23.8837 28.875 17.875 28.875ZM15.125 23.375C11.5873 23.4492 8.07215 22.7939 4.79875 21.45C6.55875 24.2275 11.5912 26.125 17.875 26.125C25.7125 26.125 31.625 23.1688 31.625 19.25C31.6138 18.3997 31.34 17.5737 30.8413 16.885C28.7925 20.8175 22.8663 23.375 15.125 23.375ZM16.5 17.875H15.125H13.75C8.36 17.6688 3.97375 16.1975 1.375 13.9012C1.49875 17.7237 7.37 20.625 15.125 20.625C22.88 20.625 28.7512 17.7238 28.875 13.8738C26.2213 16.17 21.835 17.6413 16.5 17.875Z" fill="#405161"/>
</svg>
