<svg width="36" height="36" viewBox="0 0 36 36" fill="none" xmlns="http://www.w3.org/2000/svg">
<path d="M31.5 9C31.5 13.275 25.05 16.5 16.5 16.5C7.95 16.5 1.5 13.275 1.5 9C1.5 4.725 7.95 1.5 16.5 1.5C25.05 1.5 31.5 4.725 31.5 9ZM19.5 31.5C13.125 31.5 7.68 29.85 4.5 27.075C4.59 31.32 10.995 34.5 19.5 34.5C28.005 34.5 34.365 31.335 34.5 27.135C31.365 29.85 26.055 31.5 19.5 31.5ZM16.5 25.5C12.6406 25.5809 8.80598 24.8661 5.235 23.4C7.155 26.43 12.645 28.5 19.5 28.5C28.05 28.5 34.5 25.275 34.5 21C34.4877 20.0724 34.1891 19.1713 33.645 18.42C31.41 22.71 24.945 25.5 16.5 25.5ZM18 19.5H16.5H15C9.12 19.275 4.335 17.67 1.5 15.165C1.635 19.335 8.04 22.5 16.5 22.5C24.96 22.5 31.365 19.335 31.5 15.135C28.605 17.64 23.82 19.245 18 19.5Z" fill="white"/>
</svg>
