<svg width="31" height="31" viewBox="0 0 31 31" fill="none" xmlns="http://www.w3.org/2000/svg">
<g clip-path="url(#clip0_391_1308)">
<path d="M6.65041 30.0429L5.73888 28.759C5.54537 28.4863 5.16738 28.4221 4.89468 28.6157C4.62203 28.8093 4.55785 29.1872 4.75148 29.4599L5.66301 30.7439C5.78108 30.9102 5.96768 30.9989 6.15725 30.9989C6.27847 30.9989 6.40083 30.9626 6.50721 30.8871C6.77986 30.6936 6.84404 30.3156 6.65041 30.0429Z" fill="#C0D88D"/>
<path d="M13.6354 30.2701L12.6434 25.5422C12.161 23.2431 10.8217 21.2551 8.87238 19.9443L6.7544 18.5201C5.90511 17.9492 4.76357 18.072 4.05372 18.7958V11.5002C4.05372 10.5426 3.40084 9.72895 2.466 9.52145C1.86266 9.3874 1.24036 9.53259 0.758347 9.91931C0.276395 10.306 0 10.8822 0 11.5002V20.8881C0 22.1179 0.376358 23.2982 1.08833 24.3011L2.16805 25.8221C2.28612 25.9884 2.47272 26.0771 2.6623 26.0771C2.78351 26.0771 2.90588 26.0408 3.01226 25.9653C3.2849 25.7717 3.34908 25.3938 3.15545 25.1211L2.07572 23.6001C1.50997 22.8031 1.21093 21.8653 1.21093 20.888V11.5002C1.21093 11.2515 1.32222 11.0195 1.51621 10.8638C1.71014 10.7081 1.96062 10.6497 2.20366 10.7036C2.57995 10.7871 2.84279 11.1147 2.84279 11.5002V18.9484C2.84279 20.0027 3.23016 21.0073 3.9339 21.7888C3.96405 21.825 3.99505 21.8607 4.0278 21.8954C4.42989 22.3215 4.90264 22.8235 5.3479 23.2968L5.97123 23.9602C5.97323 23.9623 5.97541 23.9641 5.97747 23.9662C6.5107 24.5333 6.90395 24.9521 6.91219 24.9608C7.14099 25.2045 7.52425 25.2167 7.76801 24.9877C8.01177 24.7588 8.02382 24.3757 7.79483 24.1319C7.78381 24.1202 7.07506 23.3654 6.26567 22.5051L4.87739 21.0276C4.87388 21.0239 4.87067 21.0199 4.86716 21.0162C4.54166 20.6269 4.54572 20.0624 4.8869 19.6772C5.18873 19.3365 5.70119 19.2712 6.07882 19.525L8.19668 20.9492C9.88278 22.0829 11.0411 23.8023 11.4583 25.7908L12.4503 30.5188C12.5102 30.8042 12.7619 31.0001 13.0423 31.0001C13.0835 31.0001 13.1253 30.9958 13.1672 30.9871C13.4945 30.9184 13.7041 30.5974 13.6354 30.2701Z" fill="#C0D88D"/>
<path d="M4.48604 26.9956L4.48216 26.9902C4.28781 26.718 3.90975 26.6548 3.6376 26.849C3.36544 27.0432 3.30223 27.4213 3.4964 27.6935L3.50028 27.6989C3.61846 27.8645 3.80465 27.9528 3.99367 27.9528C4.11537 27.9528 4.23822 27.9162 4.34484 27.8401C4.61694 27.6459 4.68021 27.2678 4.48604 26.9956Z" fill="#C0D88D"/>
<path d="M30.2416 9.9192C29.7597 9.53249 29.1371 9.38754 28.534 9.52135C27.5992 9.72879 26.9463 10.5425 26.9463 11.5001V18.7957C26.2365 18.0719 25.0948 17.9491 24.2456 18.52L22.1276 19.9442C20.1782 21.2549 18.839 23.2429 18.3566 25.542L17.3646 30.27C17.2959 30.5973 17.5055 30.9182 17.8328 30.9869C17.8747 30.9957 17.9166 30.9999 17.9577 30.9999C18.2382 30.9999 18.4898 30.804 18.5497 30.5186L19.5417 25.7906C19.9589 23.8022 21.1171 22.0827 22.8032 20.949L24.9212 19.5249C25.2987 19.271 25.8112 19.3364 26.1132 19.677C26.4539 20.0617 26.4585 20.6253 26.1342 21.0146C26.1303 21.0189 26.1266 21.0232 26.1227 21.0275C26.1227 21.0275 23.2162 24.1201 23.2052 24.1317C22.9763 24.3755 22.9883 24.7586 23.232 24.9876C23.4758 25.2165 23.8589 25.2044 24.0879 24.9607C24.0961 24.952 26.5702 22.3214 26.9722 21.8953C27.005 21.8606 27.036 21.8249 27.0662 21.7887C27.7698 21.0072 28.1573 20.0026 28.1573 18.9483V11.5C28.1573 11.1145 28.4201 10.787 28.7965 10.7035C29.0394 10.6496 29.2899 10.708 29.4839 10.8636C29.6779 11.0193 29.7892 11.2512 29.7892 11.5V20.8879C29.7892 21.8652 29.4901 22.803 28.9244 23.6L24.35 30.0438C24.1565 30.3165 24.2206 30.6945 24.4932 30.888C24.5997 30.9635 24.722 30.9998 24.8432 30.9998C25.0327 30.9998 25.2194 30.9111 25.3374 30.7448L29.9118 24.301C30.6238 23.2981 31.0001 22.1178 31.0001 20.888V11.5C30.9999 10.8821 30.7236 10.3059 30.2416 9.9192Z" fill="#C0D88D"/>
<path d="M23.1685 11.6044L22.0913 11.3471V11.1539C22.7914 10.6635 23.2505 9.85137 23.2505 8.93361V7.53323C23.2505 6.03899 22.0349 4.8234 20.5407 4.8234C19.8701 4.8234 19.2562 5.06874 18.7825 5.47367C18.2551 4.18221 16.9862 3.26953 15.5074 3.26953C14.0268 3.26953 12.7565 4.18457 12.2304 5.47851C11.756 5.07067 11.1398 4.82328 10.4665 4.82328C8.97231 4.82328 7.75672 6.03887 7.75672 7.5331V7.62616V8.93349C7.75672 9.85125 8.21578 10.6634 8.91588 11.1538V11.3469L7.8387 11.6043C6.55257 11.9115 5.6543 13.0496 5.6543 14.372V15.5027C5.6543 15.8371 5.92542 16.1082 6.25976 16.1082H9.042C9.0377 16.1816 9.03474 16.2555 9.03474 16.3299V18.507C9.03474 18.8414 9.30586 19.1125 9.6402 19.1125H13.2797C13.614 19.1125 13.8851 18.8414 13.8851 18.507C13.8851 18.1726 13.614 17.9015 13.2797 17.9015H12.6541V16.6503C12.6541 16.3159 12.383 16.0449 12.0486 16.0449C11.7143 16.0449 11.4432 16.3159 11.4432 16.6503V17.9017H10.2457V16.33C10.2457 15.1622 11.0389 14.1566 12.1744 13.8845L13.8359 13.4864L14.9478 16.0161C15.0445 16.236 15.262 16.3779 15.502 16.3779H15.5021C15.7422 16.3779 15.9597 16.236 16.0563 16.0162L17.1671 13.4902L18.8234 13.8858C19.96 14.1574 20.7538 15.1631 20.7538 16.3317V17.9017H19.5563V16.6503C19.5563 16.3159 19.2852 16.0449 18.9509 16.0449C18.6165 16.0449 18.3454 16.3159 18.3454 16.6503V17.9017H17.6592C17.3249 17.9017 17.0538 18.1727 17.0538 18.5071C17.0538 18.8415 17.3249 19.1126 17.6592 19.1126H21.3593C21.6936 19.1126 21.9648 18.8415 21.9648 18.5071V16.3317C21.9648 16.2567 21.9617 16.1824 21.9574 16.1083H24.7475C25.0818 16.1083 25.353 15.8373 25.353 15.5029V14.3721C25.353 13.0498 24.4547 11.9116 23.1685 11.6044ZM20.5407 6.03421C21.3339 6.03421 21.9852 6.65366 22.0363 7.43423H21.1945C20.4868 7.43423 19.7904 7.26385 19.1644 6.93944C19.3947 6.40736 19.925 6.03421 20.5407 6.03421ZM19.0418 8.84509C19.0425 8.8156 19.044 8.78624 19.044 8.75657V8.21734C19.7234 8.49852 20.454 8.64516 21.1945 8.64516H22.0395V8.93355C22.0395 9.76001 21.3672 10.4324 20.5407 10.4324C19.7141 10.4324 19.0418 9.76001 19.0418 8.93349V8.84509ZM13.1818 6.80606C13.1818 5.52374 14.225 4.48046 15.5074 4.48046C16.664 4.48046 17.6261 5.32921 17.8037 6.43648L16.7844 5.83762C16.5294 5.68782 16.2036 5.74407 16.0136 5.97082C15.5155 6.56527 14.785 6.9062 14.0094 6.9062H13.1818V6.80606ZM10.4666 6.03421C11.0823 6.03421 11.6125 6.40742 11.8428 6.93938C11.2168 7.26379 10.5204 7.43417 9.81276 7.43417H8.97098C9.02208 6.65366 9.67338 6.03421 10.4666 6.03421ZM8.96771 8.6451H9.81276C10.554 8.6451 11.2854 8.49816 11.9655 8.21637V8.93343C11.9655 9.75989 11.2931 10.4323 10.4666 10.4323C9.64008 10.4323 8.96771 9.76001 8.96771 8.93349V8.6451ZM11.8922 12.7069C10.701 12.9923 9.76487 13.8228 9.31931 14.8973H6.86523V14.372C6.86523 13.6124 7.38121 12.9586 8.12006 12.7821L9.66206 12.4137C9.93458 12.3486 10.1269 12.105 10.1269 11.8248V11.6213C10.2383 11.6353 10.3515 11.6433 10.4666 11.6433C10.5809 11.6433 10.6933 11.6354 10.8038 11.6216V11.7943C10.8034 11.8033 10.8032 11.8124 10.8032 11.8214C10.8031 12.02 10.9007 12.2146 11.0801 12.3306C11.1476 12.3744 11.2207 12.4029 11.2952 12.4171L12.1984 12.6335L11.8922 12.7069ZM13.5811 11.7669C13.4256 11.6983 13.2634 11.6435 13.0963 11.6035L12.0147 11.3443V11.1556C12.2099 11.0192 12.3864 10.858 12.5395 10.6762C12.8099 11.0928 13.1652 11.449 13.5811 11.7203V11.7669ZM16.2108 12.6566L15.5023 14.268L14.7921 12.6524V12.2204C15.0232 12.268 15.2624 12.2932 15.5074 12.2932C15.7482 12.2932 15.9834 12.2688 16.2108 12.2227V12.6566ZM15.5074 11.0822C14.225 11.0822 13.1818 10.0389 13.1818 8.75657V8.11708H14.0094C14.9696 8.11708 15.8825 7.76003 16.5822 7.1232L17.8308 7.85679V8.84515C17.784 10.0865 16.7601 11.0822 15.5074 11.0822ZM17.4217 11.7689V11.7279C17.8411 11.4568 18.1995 11.0997 18.472 10.6813C18.6241 10.861 18.799 11.0205 18.9924 11.1556V11.3443L17.9107 11.6035C17.7421 11.6439 17.5786 11.6994 17.4217 11.7689ZM24.142 14.8973H21.6795C21.2336 13.8228 20.2967 12.9928 19.1048 12.708L18.8008 12.6354L19.7088 12.4178C19.7844 12.4038 19.8586 12.375 19.9271 12.3306C20.1061 12.2148 20.2035 12.0202 20.2035 11.8216C20.2035 11.8168 20.2034 11.8121 20.2033 11.8073V11.6216C20.3139 11.6354 20.4263 11.6433 20.5405 11.6433C20.6556 11.6433 20.7689 11.6353 20.8803 11.6213V11.8248C20.8803 12.105 21.0726 12.3486 21.3451 12.4137L22.8871 12.7821C23.6259 12.9586 24.142 13.6124 24.142 14.372V14.8973Z" fill="#C0D88D"/>
<path d="M15.928 18.0791C15.8148 17.9665 15.6592 17.9023 15.5 17.9023C15.3401 17.9023 15.1845 17.9665 15.0719 18.0791C14.9587 18.1924 14.8945 18.348 14.8945 18.5078C14.8945 18.667 14.9587 18.8227 15.0719 18.9359C15.1845 19.0485 15.3402 19.1133 15.5 19.1133C15.6592 19.1133 15.8148 19.0485 15.928 18.9359C16.0406 18.8227 16.1055 18.667 16.1055 18.5078C16.1055 18.348 16.0407 18.1924 15.928 18.0791Z" fill="#C0D88D"/>
<path d="M15.5 0C15.1657 0 14.8945 0.271067 14.8945 0.605466V1.51143C14.8945 1.84582 15.1657 2.11689 15.5 2.11689C15.8343 2.11689 16.1055 1.84582 16.1055 1.51143V0.605466C16.1055 0.271067 15.8344 0 15.5 0Z" fill="#C0D88D"/>
<path d="M13.2691 1.97576L12.634 1.34123C12.3974 1.10486 12.0141 1.10504 11.7777 1.34159C11.5413 1.57815 11.5416 1.96153 11.7781 2.19784L12.4133 2.83237C12.5315 2.9505 12.6864 3.00953 12.8412 3.00953C12.9963 3.00953 13.1513 2.95032 13.2695 2.83201C13.5058 2.59545 13.5057 2.21207 13.2691 1.97576Z" fill="#C0D88D"/>
<path d="M19.2066 1.35682C18.97 1.12051 18.5866 1.12063 18.3503 1.35725L17.7201 1.98808C17.4838 2.22464 17.484 2.60802 17.7205 2.84433C17.8388 2.96246 17.9936 3.02149 18.1485 3.02149C18.3035 3.02149 18.4586 2.96228 18.5768 2.84391L19.207 2.21307C19.4433 1.97652 19.4431 1.59314 19.2066 1.35682Z" fill="#C0D88D"/>
</g>
<defs>
<clipPath id="clip0_391_1308">
<rect width="31" height="31" fill="white"/>
</clipPath>
</defs>
</svg>
