<svg width="29" height="29" viewBox="0 0 29 29" fill="none" xmlns="http://www.w3.org/2000/svg">
<g clip-path="url(#clip0_391_1338)">
<path d="M28.0211 18.0002C27.8978 16.9898 27.4971 16.198 26.5944 15.6465C25.9404 15.2461 25.4109 15.1838 22.9064 14.5602V14.4293H25.4063C26.0125 14.4293 26.5066 13.94 26.514 13.3355C26.8296 7.98464 26.8772 7.37161 26.8556 7.11871C26.8556 6.88405 26.6655 6.69391 26.4308 6.69391C26.1962 6.69391 26.006 6.88405 26.006 7.11871V7.52171C25.6497 13.5649 25.6645 13.297 25.6645 13.3214C25.6645 13.4614 25.5463 13.5797 25.4063 13.5797H22.9064V13.4697C23.0434 13.3781 24.0587 12.9305 24.7959 11.7362C25.6124 10.4187 25.4986 9.30505 25.5001 8.22666C25.5001 7.79455 25.163 7.44315 24.7327 7.42667H24.7326C21.5823 7.30625 19.9657 5.52054 19.5452 4.97605C19.4162 4.80885 19.2209 4.70882 19.0097 4.70157C18.7993 4.69517 18.5961 4.78087 18.4556 4.93907C17.7945 5.68327 17.0467 5.91872 16.6598 5.99281C16.3092 6.05999 16.0548 6.36822 16.0548 6.7258C16.0563 9.3959 16.0515 9.2488 16.0586 9.43662C16.07 11.0949 17.186 12.7616 18.6319 13.4614V13.5795H16.096C15.956 13.5795 15.8378 13.4612 15.8378 13.3213C15.8378 13.2965 15.852 13.5539 15.4956 7.50903C15.4951 7.50127 15.4944 7.49334 15.4936 7.48569C15.4885 7.44157 15.0192 3.06528 17.4763 2.52532C17.6 2.49819 17.7051 2.41719 17.763 2.30459C17.7732 2.28477 18.8212 0.328 22.2018 0.986335C23.5474 1.24292 25.5608 2.84523 25.9389 5.20341C25.976 5.43501 26.1936 5.5923 26.4256 5.5556C26.6573 5.5185 26.815 5.30055 26.7778 5.06889C26.6142 3.95187 26.0582 2.77273 25.2174 1.87792L25.1872 1.84563C24.3436 0.952181 23.0881 0.293336 22.3639 0.152357C21.2244 -0.0694484 19.5786 -0.153163 18.2084 0.707832C17.6183 1.07849 17.2743 1.50618 17.1151 1.74062C15.8616 2.09655 15.0404 3.2143 14.735 4.98647C14.5167 6.25285 14.6328 7.42814 14.6482 7.5702C15.0461 13.715 14.9096 13.4851 15.14 13.8787C13.9328 13.6846 12.7041 14.0297 11.773 14.9099L11.4017 14.8174C11.3914 14.8125 10.4566 14.365 10.3685 14.3229V13.4607C12.4726 12.4168 12.8092 10.3285 12.8296 10.2901C12.9033 9.95794 12.9437 9.6066 12.9437 9.2539V9.24977C13.7108 9.08262 14.2811 8.47396 14.2811 7.75048C14.2811 7.4508 14.1829 7.17099 14.0138 6.93384C14.0207 5.8166 14.0523 5.1594 13.8131 4.27829C13.7519 4.12236 13.5513 3.13551 12.6621 2.0748C12.6608 2.0731 12.6593 2.07134 12.658 2.0697C11.0146 0.115144 8.18028 -0.630928 5.63796 0.607918C3.70894 1.56979 2.4279 3.55369 2.4279 5.79417C2.42796 6.16704 2.42779 6.8887 2.42807 6.9339C1.79653 7.81902 2.33574 8.99669 3.49841 9.24988C3.53721 11.1761 4.57328 12.696 6.09397 13.4707V14.3132L5.01836 14.8281C3.84652 15.1561 2.93733 15.2419 2.24138 15.758C1.3984 16.4016 1.10302 16.9847 0.978859 18.0044C-0.0288925 27.1198 -0.00538657 26.5664 0.0015236 26.9722C-0.0107674 28.0548 0.745953 28.9993 1.99805 28.9993L5.7117 28.9992C5.94637 28.9992 6.13651 28.8091 6.13651 28.5744C6.13651 28.3397 5.94637 28.1496 5.7117 28.1496H4.11551L4.53675 20.182C4.54915 19.9477 4.36926 19.7478 4.13494 19.7354C3.90152 19.7224 3.70067 19.9029 3.68833 20.1372L3.59974 21.813L1.43283 21.5857L1.43992 21.5226C1.87724 18.0595 1.72006 17.5348 2.30454 16.8398L2.30941 16.834C3.0211 15.9936 4.14949 15.975 5.02318 15.7023L6.32909 17.374C6.64135 17.7739 7.23438 17.8097 7.59251 17.449L7.79619 17.2437V19.2994C7.79619 19.5341 7.98634 19.7242 8.221 19.7242C8.45566 19.7242 8.64581 19.5341 8.64581 19.2994V17.2438L8.84943 17.449C9.00825 17.609 9.22405 17.6982 9.44812 17.6982C9.46472 17.6982 9.48143 17.6977 9.49808 17.6968C9.73976 17.6824 9.96384 17.5649 10.1129 17.3741L10.7098 16.61C10.4623 17.4073 10.5492 18.0063 10.5309 18.345C9.71654 19.1079 10.1318 20.3595 11.2819 20.6147C11.4457 21.5731 12.0274 22.4326 12.9469 22.936V23.4527C11.4483 23.8563 10.2698 23.8729 9.73642 25.1437C9.71354 25.1983 9.69813 25.2438 9.68193 25.2961C9.66018 25.365 9.63979 25.446 9.62864 25.4997C9.56322 25.8164 9.56067 26.0167 9.31111 28.1496H7.69413C7.45947 28.1496 7.26932 28.3397 7.26932 28.5744C7.26932 28.8091 7.45947 28.9992 7.69413 28.9992H9.69026H9.69547C9.69581 28.9992 9.69615 28.9993 9.69643 28.9993C9.69683 28.9993 9.69723 28.9992 9.69762 28.9992H19.303C19.303 28.9992 19.3038 28.9993 19.3042 28.9993C19.3042 28.9993 19.3049 28.9992 19.3052 28.9992H19.3103H21.1031C21.3378 28.9992 21.5279 28.8091 21.5279 28.5744C21.5279 28.3397 21.3378 28.1496 21.1031 28.1496H19.6894C19.4588 26.4554 19.4807 25.7275 19.2884 25.2056C19.0327 24.5082 18.4104 24.0418 17.7364 23.8715L16.0537 23.4525V22.9286C16.9385 22.4434 17.5438 21.5828 17.7052 20.6146C17.711 20.6113 18.6942 20.4317 18.8601 19.5042C18.9073 19.2457 18.8714 18.9726 18.7412 18.7202C19.55 18.5557 20.3408 17.9579 20.7682 17.5874C22.9332 19.4654 24.8776 19.2302 25.0363 15.9659C25.3479 16.0626 26.8197 16.288 27.1139 17.7111C27.136 17.8178 27.1614 17.9692 27.1772 18.0987L27.5673 21.5845L25.4174 21.81L25.3289 20.137C25.3166 19.9027 25.1139 19.7217 24.8823 19.7352C24.648 19.7476 24.4681 19.9476 24.4805 20.1818L24.9017 28.1494H23.0855C22.8508 28.1494 22.6606 28.3396 22.6606 28.5742C22.6606 28.8089 22.8508 28.999 23.0855 28.999L27.0021 28.9991C27.5743 28.9991 28.0656 28.8077 28.4228 28.4456C28.7901 28.0734 29.0053 27.5222 28.9987 26.9708C29.0042 26.6129 29.0334 27.117 28.0211 18.0002ZM3.52877 22.6598L3.25299 28.1496H1.998C1.25917 28.1496 0.867334 27.666 0.851021 26.9641C0.845924 26.6633 0.862066 26.7651 1.33836 22.43L3.52877 22.6598ZM12.9436 8.36305V7.1382C13.5924 7.40583 13.5925 8.09537 12.9436 8.36305ZM3.4983 8.36317C2.84914 8.09548 2.84908 7.40577 3.4983 7.13809V8.36317ZM3.8655 6.20691C3.65853 6.2128 3.46063 6.25007 3.27751 6.31345C3.28289 5.86888 3.2501 5.46611 3.36536 4.86294C3.41458 4.73125 3.60178 3.28595 4.93833 2.09819H4.93827C5.1172 1.95965 5.41111 1.65056 6.16891 1.29548C7.80186 0.549748 9.79952 0.667164 11.5034 2.09825C12.6558 3.12197 12.9079 4.28311 12.9925 4.49829C13.2296 5.37265 13.1465 5.99037 13.1643 6.31351C12.9813 6.25007 12.7834 6.21286 12.5766 6.20697C12.4688 6.14608 12.3691 6.06174 12.2907 5.97536C11.7115 5.30802 12.2028 4.79123 11.5815 4.27274C11.1434 3.90718 10.724 4.04686 9.94871 4.14825C6.33815 4.53754 5.61366 3.64426 4.86051 4.27274C4.63836 4.45813 4.49851 4.72621 4.489 5.05875C4.45496 5.96075 3.90231 6.16539 3.8655 6.20691ZM4.34791 9.25401C4.34791 8.78123 4.34791 7.72035 4.34791 6.90824C4.66946 6.67652 4.90593 6.4887 5.11748 6.03982C5.23887 5.7833 5.32751 5.45982 5.33946 5.05869C5.34224 4.94869 5.44566 4.86464 5.55832 4.88265C10.0442 5.47987 11.0888 4.51675 11.1025 5.05846C11.1294 6.00822 11.6515 6.53056 11.6599 6.5446C11.8158 6.71679 11.9158 6.77983 12.0939 6.90818C12.0939 7.34998 12.0938 8.82717 12.094 8.87407C12.0659 8.99675 12.3958 11.408 9.9972 12.6965H9.99725C9.99125 12.699 9.37239 13.0546 8.47741 13.1175C8.25255 13.1323 8.0312 13.1226 8.03692 13.1227C5.93509 13.0246 4.34791 11.2815 4.34791 9.25401ZM6.99445 16.8456L5.85059 15.3814L6.426 15.106L7.61234 16.223L6.99445 16.8456ZM8.221 15.6291L6.94352 14.4263V13.801C7.79059 14.0392 8.68121 14.0293 9.50867 13.7981V14.4166L8.221 15.6291ZM9.44756 16.8456L8.82972 16.223L10.0229 15.0995L10.597 15.3743L9.44756 16.8456ZM11.2362 19.6971C10.8486 19.4757 10.8817 19.0748 11.2362 18.8733V19.6971ZM17.9526 11.9036C16.6084 10.4101 16.9055 9.06279 16.9043 6.81019C17.3913 6.7041 18.2233 6.41433 18.9775 5.6264C19.5812 6.3548 21.3816 8.13185 24.6504 8.27385C24.6486 9.40298 24.6536 9.20145 24.6466 9.42943L24.6464 9.42813C24.6083 9.58072 24.6864 10.9838 23.2581 12.228C23.2523 12.2327 23.2032 12.2727 23.2091 12.268C21.8797 13.3419 20.0312 13.3886 18.6782 12.5088C18.5927 12.4534 18.0486 11.9955 17.9526 11.9036ZM16.4271 24.4212L16.4452 24.4257C17.3033 24.66 17.592 24.6605 17.9617 24.8819C18.7357 25.3456 18.5174 25.9178 18.8298 28.1496H17.699L17.6487 27.2327C17.6359 26.9984 17.4356 26.8186 17.2013 26.8319C16.9671 26.8448 16.7876 27.0451 16.8005 27.2793L16.8482 28.1496H12.164L12.2117 27.2793C12.2247 27.045 12.0452 26.8447 11.8109 26.8319C11.5753 26.8192 11.3763 26.9985 11.3635 27.2327L11.3132 28.1496H10.171C10.4524 25.7351 10.3333 25.3046 11.0389 24.8819C11.3915 24.6704 11.6207 24.6737 12.5734 24.4212C13.0588 24.9703 13.7594 25.2907 14.5003 25.2907C15.2412 25.2907 15.9418 24.9703 16.4271 24.4212ZM13.7964 23.2513C13.9643 23.2879 14.1475 23.3135 14.3382 23.3224C14.3485 23.3229 14.3586 23.3232 14.3689 23.3235L14.3992 23.3245C14.7062 23.3327 15.0044 23.2982 15.2041 23.2482C15.2251 23.4115 15.1109 23.8862 15.4661 24.1437C14.8822 24.5398 14.1194 24.5406 13.5344 24.1437C13.8885 23.887 13.7762 23.4073 13.7964 23.2513ZM16.8967 20.2071C16.895 20.2382 16.8929 20.2675 16.8904 20.2958C16.8095 21.164 16.2663 21.8977 15.5155 22.2494C15.4963 22.2518 14.2155 22.9372 12.9823 21.9428C12.9687 21.9238 12.2388 21.4128 12.1059 20.3818C12.0699 20.105 12.093 19.884 12.0858 18.7034C13.9511 19.0893 15.2511 18.3402 15.82 17.5973C16.1971 18.1527 16.6265 18.3913 16.9011 18.4925C16.9003 20.3111 16.9037 20.0808 16.8967 20.2071ZM17.6065 17.9366C17.4637 17.761 17.2955 17.7283 17.2281 17.7069C17.0409 17.647 16.6814 17.4592 16.3762 16.8736C16.1377 16.416 15.4818 16.4331 15.2629 16.8937C15.0144 17.4162 13.8805 18.3251 11.9616 17.8003C11.7758 17.7497 11.5752 17.792 11.4226 17.9313C11.4084 17.9332 11.3944 17.9357 11.3804 17.9379C11.3815 17.659 11.3837 17.6483 11.3835 17.654C11.4925 15.0614 14.5901 13.719 16.5557 15.4569C16.5554 15.4591 16.5606 15.4588 16.5604 15.461C17.0626 15.9075 17.4058 16.4848 17.5511 17.2026C17.6225 17.5763 17.6034 17.8781 17.6065 17.9366ZM17.2167 14.9126C17.0029 14.71 16.8324 14.5786 16.5944 14.4294H18.6319V14.5603L17.2167 14.9126ZM17.7507 19.6978V18.8733C17.9021 18.9599 18.0304 19.1098 18.0304 19.2855C18.0304 19.5061 17.8631 19.6135 17.7507 19.6978ZM18.4561 17.9096C18.4475 17.8452 18.5024 17.2532 18.2365 16.4861C18.6834 16.869 19.2034 17.1452 19.7639 17.2954C19.3586 17.5865 18.8695 17.8644 18.4561 17.9096ZM18.4494 15.4813L19.0006 15.3441C19.0256 15.3379 19.0499 15.3294 19.0734 15.3188C19.3212 15.2064 19.4813 14.9206 19.4813 14.5906L19.4814 13.7958C20.25 14.014 21.062 14.0563 22.0567 13.8005V14.5906C22.0567 14.9206 22.2169 15.2065 22.4648 15.3188C22.4883 15.3294 22.5126 15.3379 22.5376 15.3441L23.0874 15.481C21.8409 16.9394 19.6985 16.9425 18.4494 15.4813ZM23.4732 17.8648C22.9808 18.0701 22.2049 17.6088 21.7671 17.2923C22.6691 17.0422 23.4361 16.495 23.9873 15.705L24.1945 15.7566C24.1591 16.9403 23.9065 17.6841 23.4732 17.8648ZM27.8181 27.8491C27.3677 28.3055 26.7563 28.0953 25.7525 28.1496L25.4623 22.6597L27.6617 22.4289L28.1404 26.7062C28.1762 27.1286 28.1182 27.5449 27.8181 27.8491Z" fill="#C0D88D"/>
</g>
<defs>
<clipPath id="clip0_391_1338">
<rect width="29" height="29" fill="white"/>
</clipPath>
</defs>
</svg>
