<svg width="300" height="300" viewBox="0 0 300 300" fill="none" xmlns="http://www.w3.org/2000/svg">
<path d="M43.7343 174.885C43.7313 174.882 43.7269 174.878 43.7224 174.873C42.903 174.042 42.9135 172.704 43.7448 171.884C43.7448 171.884 44.5702 171.071 46.1506 169.667C47.0253 168.891 48.3754 168.964 49.135 169.846C49.911 170.721 49.8317 172.056 48.9555 172.831C47.5022 174.119 46.7322 174.875 46.7098 174.897C45.8844 175.71 44.5552 175.706 43.7343 174.885Z" fill="#C0D88D"/>
<path d="M45.9773 172.641C45.1998 171.774 45.2745 170.443 46.1418 169.665C47.0239 168.903 48.3696 168.963 49.1336 169.846C49.9111 170.714 49.8364 172.044 48.9677 172.82L48.9527 172.835C48.1169 173.584 46.8445 173.538 46.052 172.746C46.0221 172.716 45.9922 172.686 45.9773 172.641Z" fill="#C0D88D"/>
<path d="M50.8663 168.679C50.8065 168.619 50.7631 168.576 50.7033 168.516C50.3579 168.081 50.195 167.529 50.2548 166.961C50.3131 166.391 50.5987 165.9 51.0158 165.539C52.8101 164.104 54.395 162.878 55.9799 161.712C56.0098 161.682 56.0397 161.652 56.0696 161.622L56.1458 161.578C57.0728 160.95 58.3722 161.173 59.0316 162.072C59.658 162.908 59.5848 164.06 58.8506 164.822C58.7759 164.896 58.6862 164.956 58.6114 165.031C56.9682 166.229 55.322 167.513 53.7371 168.799L53.6922 168.844C52.84 169.516 51.6274 169.44 50.8663 168.679ZM60.9738 161.143C60.8826 161.052 60.8093 160.949 60.7346 160.844C60.1365 160.007 60.2561 158.871 60.9738 158.153C61.0785 158.048 61.1831 157.974 61.2728 157.914C63.1418 156.613 64.8927 155.463 66.5823 154.372C67.5377 153.772 68.8684 154.056 69.4964 155.013C70.0347 155.85 69.93 156.942 69.2273 157.645C69.1077 157.764 68.988 157.854 68.8684 157.944C67.134 159.05 65.3846 160.201 63.6637 161.381C62.8264 161.979 61.69 161.86 60.9738 161.143ZM71.5897 154.355C71.4701 154.236 71.3654 154.101 71.2607 153.937C70.7823 153.099 70.9168 152.038 71.5897 151.365C71.7242 151.23 71.8738 151.141 72.0233 151.051C73.8474 149.974 75.7014 148.928 77.5704 147.896C78.5722 147.373 79.8865 147.76 80.4412 148.763C80.8748 149.586 80.7402 150.587 80.0824 151.245C79.9328 151.395 79.7684 151.529 79.5889 151.619C77.7932 152.604 75.9556 153.637 74.1614 154.684C73.3391 155.178 72.2775 155.043 71.5897 154.355ZM82.684 148.374C82.5195 148.21 82.3835 148.014 82.2803 147.821C81.8766 146.999 82.0261 146.012 82.684 145.384C82.8186 145.249 82.9831 145.115 83.1475 145.04L83.2372 144.98C83.2522 144.965 83.297 144.95 83.312 144.935L83.3569 144.921C85.3455 143.949 87.1696 143.081 88.919 142.319C88.9489 142.289 88.9937 142.274 89.0087 142.259L89.0401 142.261C90.0269 141.812 91.3576 142.305 91.8047 143.321C92.165 144.13 91.9856 145.057 91.386 145.683C91.1917 145.877 90.9808 146.025 90.7281 146.132C88.8891 146.954 86.9902 147.836 85.1062 148.763C84.2988 149.182 83.312 149.002 82.684 148.374ZM94.1671 143.231C93.9712 143.035 93.8217 142.796 93.7021 142.527C93.3881 141.734 93.584 140.824 94.1955 140.239C94.3899 140.045 94.6141 139.88 94.8982 139.776C96.842 138.998 98.8605 138.236 100.863 137.516C101.924 137.143 103.182 137.742 103.555 138.834C103.825 139.581 103.644 140.447 103.06 141.03C102.851 141.239 102.567 141.404 102.268 141.523C100.384 142.181 98.4837 142.883 96.4518 143.691C95.6623 144.008 94.7652 143.829 94.1671 143.231ZM106.052 139.058C105.815 138.82 105.62 138.506 105.529 138.176C105.29 137.428 105.499 136.621 106.037 136.082C106.172 135.948 106.308 135.845 106.471 135.739L106.202 135.739L107.024 135.514C109.043 134.901 111.091 134.318 113.095 133.81C114.171 133.541 115.382 134.243 115.652 135.35C115.846 136.053 115.62 136.814 115.112 137.352C114.843 137.621 114.499 137.815 114.125 137.92C112.151 138.428 110.149 138.968 108.189 139.58L108.159 139.58C107.413 139.82 106.606 139.611 106.052 139.058ZM118.24 135.934C117.957 135.652 117.761 135.277 117.672 134.888C117.522 134.17 117.746 133.437 118.255 132.929C118.554 132.66 118.914 132.452 119.316 132.376C121.365 131.942 123.473 131.568 125.598 131.241C126.704 131.062 127.84 131.869 128.02 132.975C128.139 133.663 127.9 134.351 127.422 134.829C127.093 135.128 126.704 135.338 126.255 135.398C124.237 135.742 122.188 136.115 120.17 136.519C119.466 136.652 118.747 136.441 118.24 135.934ZM130.678 133.989C130.321 133.632 130.112 133.213 130.065 132.718C129.992 132.077 130.215 131.432 130.693 130.984C131.037 130.64 131.456 130.431 131.951 130.387C134.029 130.163 136.137 129.998 138.201 129.879L138.365 129.864C139.471 129.834 140.473 130.746 140.548 131.867C140.578 132.466 140.352 133.047 139.933 133.466C139.56 133.84 139.066 134.064 138.558 134.094C136.524 134.213 134.448 134.379 132.384 134.589C131.74 134.662 131.128 134.439 130.678 133.989ZM143.223 133.286C142.819 132.883 142.595 132.359 142.595 131.791C142.596 131.225 142.819 130.7 143.223 130.296C143.612 129.907 144.136 129.684 144.703 129.683C146.901 129.668 149.039 129.713 151.104 129.804C152.224 129.877 153.167 130.911 153.123 132.032C153.078 132.555 152.868 133.064 152.51 133.422C152.076 133.856 151.508 134.065 150.91 134.036C148.846 133.946 146.768 133.901 144.735 133.901C144.166 133.901 143.628 133.692 143.223 133.286ZM155.784 133.886C155.335 133.437 155.096 132.809 155.156 132.181C155.216 131.703 155.44 131.239 155.784 130.896C156.233 130.447 156.861 130.238 157.489 130.298C159.657 130.522 161.795 130.776 163.828 131.105C164.936 131.286 165.757 132.406 165.592 133.527C165.533 133.976 165.307 134.378 164.978 134.707C164.514 135.17 163.828 135.381 163.185 135.277C161.241 134.977 159.192 134.722 157.115 134.499L157.055 134.499C156.561 134.454 156.128 134.23 155.784 133.886ZM168.194 135.83C167.686 135.321 167.461 134.589 167.626 133.886C167.701 133.482 167.895 133.138 168.179 132.854C168.688 132.316 169.405 132.107 170.123 132.256C172.186 132.675 174.28 133.183 176.343 133.722C177.419 134.021 178.122 135.232 177.838 136.323C177.748 136.682 177.569 137.011 177.315 137.265C176.776 137.803 175.999 138.013 175.266 137.818C173.278 137.295 171.274 136.817 169.256 136.383C168.85 136.307 168.478 136.114 168.194 135.83ZM180.334 139.028C179.78 138.475 179.586 137.652 179.81 136.89C179.915 136.576 180.094 136.277 180.334 136.038C180.902 135.469 181.724 135.275 182.472 135.514C184.46 136.157 186.449 136.86 188.393 137.578C188.424 137.579 188.467 137.593 188.514 137.609L188.662 137.667L188.647 137.682C189.634 138.131 190.127 139.342 189.755 140.345C189.65 140.629 189.486 140.883 189.276 141.093C188.678 141.691 187.811 141.87 187.019 141.586C185.103 140.867 183.145 140.164 181.186 139.551C180.873 139.448 180.574 139.269 180.334 139.028ZM192.102 143.44C191.489 142.827 191.31 141.9 191.654 141.108C191.773 140.869 191.908 140.644 192.102 140.45C192.715 139.837 193.627 139.672 194.435 140.001C196.349 140.839 198.292 141.736 200.221 142.678C201.253 143.171 201.703 144.488 201.209 145.49C201.105 145.714 200.97 145.909 200.821 146.058C200.178 146.701 199.191 146.881 198.384 146.492C196.501 145.566 194.601 144.683 192.762 143.89C192.506 143.784 192.295 143.633 192.102 143.44ZM203.391 148.958C202.735 148.301 202.584 147.253 203.032 146.446C203.122 146.266 203.241 146.117 203.376 145.982C204.034 145.294 205.08 145.145 205.903 145.608C207.772 146.61 209.626 147.687 211.45 148.763C212.423 149.348 212.751 150.692 212.168 151.664C212.079 151.815 211.958 151.963 211.839 152.082C211.136 152.755 210.089 152.875 209.252 152.396C207.637 151.41 206.021 150.481 204.453 149.63L203.869 149.316C203.705 149.212 203.539 149.106 203.391 148.958ZM214.17 155.4C213.467 154.698 213.347 153.591 213.887 152.755C213.977 152.636 214.065 152.515 214.155 152.425C214.873 151.707 215.994 151.603 216.833 152.142C218.582 153.294 220.346 154.52 222.081 155.746C223.023 156.419 223.247 157.749 222.573 158.69C222.498 158.794 222.425 158.901 222.319 158.974C221.601 159.692 220.465 159.781 219.627 159.183C217.909 157.974 216.19 156.792 214.514 155.684C214.381 155.611 214.276 155.506 214.17 155.4ZM224.413 162.713C223.666 161.966 223.591 160.755 224.219 159.917C224.279 159.857 224.354 159.783 224.413 159.723C225.146 158.96 226.357 158.886 227.194 159.544C228.839 160.799 230.514 162.145 232.158 163.491C233.056 164.238 233.19 165.569 232.443 166.466C232.413 166.526 232.353 166.586 232.308 166.631C231.53 167.408 230.319 167.453 229.467 166.75C227.882 165.435 226.252 164.134 224.623 162.893C224.548 162.818 224.473 162.773 224.413 162.713ZM234.102 170.698C233.31 169.905 233.28 168.649 234.012 167.797C234.027 167.782 234.057 167.752 234.087 167.722C234.88 166.93 236.166 166.87 237.003 167.618C238.556 168.992 240.141 170.427 241.698 171.894L241.741 171.937C242.565 172.761 242.593 174.045 241.801 174.868L241.756 174.913C240.965 175.736 239.633 175.75 238.811 174.987C237.227 173.494 235.671 172.087 234.207 170.802C234.162 170.757 234.132 170.728 234.102 170.698ZM243.357 179.355L243.298 179.295C242.475 178.473 242.46 177.142 243.283 176.32C243.686 175.916 244.21 175.692 244.778 175.692C245.345 175.69 245.868 175.914 246.273 176.29L246.333 176.349C247.155 177.172 247.155 178.517 246.333 179.34C245.929 179.744 245.404 179.966 244.838 179.968C244.269 179.968 243.746 179.744 243.357 179.355Z" fill="#C0D88D"/>
<path d="M245.585 181.613C245.58 181.608 245.574 181.602 245.568 181.596C244.83 180.843 244.097 180.101 243.355 179.366C243.354 179.364 243.352 179.363 243.351 179.361C242.527 178.537 242.526 177.202 243.347 176.375C244.169 175.547 245.507 175.542 246.337 176.366C247.089 177.115 247.841 177.87 248.592 178.639C249.408 179.473 249.395 180.811 248.559 181.629C247.73 182.44 246.404 182.432 245.585 181.613Z" fill="#C0D88D"/>
<path d="M231.504 179.812C231.026 179.334 230.784 178.631 230.921 177.916C231.141 176.77 232.252 176.02 233.399 176.24L245.749 178.618L243.572 166.022C243.373 164.872 244.143 163.776 245.296 163.577C246.449 163.379 247.543 164.15 247.74 165.301L250.961 183.928L232.602 180.395C232.167 180.31 231.794 180.102 231.504 179.812Z" fill="#C0D88D"/>
</svg>
