<svg width="21" height="21" viewBox="0 0 21 21" fill="none" xmlns="http://www.w3.org/2000/svg">
<path d="M13.6067 11.3711L11.8479 13.1358C11.1347 13.8516 9.87977 13.867 9.15113 13.1358L7.39226 11.3711L1.0752 17.7087C1.31034 17.8174 1.5696 17.8823 1.84522 17.8823H19.1538C19.4294 17.8823 19.6886 17.8175 19.9237 17.7087L13.6067 11.3711Z" fill="#CBEAA6"/>
<path d="M19.1547 3.11719H1.84612C1.57049 3.11719 1.31123 3.18207 1.07617 3.29081L7.8264 10.0634C7.82685 10.0639 7.82738 10.064 7.82784 10.0644C7.82829 10.0649 7.82837 10.0655 7.82837 10.0655L10.0232 12.2676C10.2564 12.5007 10.7445 12.5007 10.9777 12.2676L13.1721 10.0658C13.1721 10.0658 13.1726 10.0649 13.1731 10.0644C13.1731 10.0644 13.1741 10.0639 13.1745 10.0634L19.9246 3.29077C19.6895 3.18199 19.4303 3.11719 19.1547 3.11719Z" fill="#CBEAA6"/>
<path d="M0.196301 4.15039C0.0746484 4.3964 0 4.66948 0 4.96201V16.0362C0 16.3287 0.0745664 16.6018 0.19626 16.8478L6.52427 10.4993L0.196301 4.15039Z" fill="#CBEAA6"/>
<path d="M20.8035 4.15039L14.4756 10.4994L20.8035 16.848C20.9252 16.602 20.9998 16.3289 20.9998 16.0363V4.96209C20.9998 4.66948 20.9252 4.3964 20.8035 4.15039Z" fill="#CBEAA6"/>
</svg>
