<svg width="34" height="34" viewBox="0 0 34 34" fill="none" xmlns="http://www.w3.org/2000/svg">
<path d="M11.6875 12.75C11.9809 12.75 12.2188 12.5122 12.2188 12.2188C12.2188 11.9253 11.9809 11.6875 11.6875 11.6875C11.3941 11.6875 11.1562 11.9253 11.1562 12.2188C11.1562 12.5122 11.3941 12.75 11.6875 12.75Z" fill="#405161"/>
<path d="M10.3879 11.198C10.7512 11.3797 11.146 11.4695 11.5396 11.4695C12.0411 11.4695 12.541 11.3239 12.9708 11.0376L13.5764 10.6338C13.8208 10.4712 13.8867 10.1413 13.7236 9.89696C13.561 9.65312 13.2311 9.58618 12.9867 9.74981L12.3811 10.1536C11.9301 10.4542 11.3484 10.4914 10.8628 10.2481C10.6004 10.1164 10.2816 10.2232 10.1499 10.4856C10.0187 10.7475 10.1254 11.0668 10.3879 11.198Z" fill="#405161"/>
<path d="M17 12.75C17.2934 12.75 17.5312 12.5122 17.5312 12.2188C17.5312 11.9253 17.2934 11.6875 17 11.6875C16.7066 11.6875 16.4688 11.9253 16.4688 12.2188C16.4688 12.5122 16.7066 12.75 17 12.75Z" fill="#405161"/>
<path d="M15.7169 11.0381C16.1472 11.325 16.6466 11.47 17.1481 11.47C17.5417 11.47 17.9365 11.3802 18.2998 11.1985C18.5623 11.0673 18.6685 10.748 18.5373 10.4856C18.4055 10.2232 18.0868 10.1164 17.8244 10.2481C17.3399 10.4914 16.7565 10.4542 16.306 10.1536L15.7004 9.74981C15.455 9.58618 15.1261 9.65312 14.9636 9.89696C14.8005 10.1408 14.8664 10.4712 15.1107 10.6338L15.7169 11.0381Z" fill="#405161"/>
<path d="M13.437 14.7193L13.9682 15.2505C14.0718 15.3541 14.2078 15.4062 14.3438 15.4062C14.4798 15.4062 14.6158 15.3541 14.7194 15.2505C14.9271 15.0428 14.9271 14.707 14.7194 14.4993L14.4591 14.239L14.8193 13.5192C14.9505 13.2567 14.8442 12.9374 14.5818 12.8062C14.3194 12.675 14.0001 12.7813 13.8689 13.0437L13.3376 14.1062C13.2351 14.3107 13.2749 14.5578 13.437 14.7193Z" fill="#405161"/>
<path d="M17.687 12.9038C17.3083 13.2826 16.692 13.2826 16.3132 12.9038C16.1055 12.6961 15.7698 12.6961 15.562 12.9038C15.3543 13.1116 15.3543 13.4473 15.562 13.655C15.9584 14.0519 16.4795 14.25 17.0001 14.25C17.5208 14.25 18.0419 14.0519 18.4382 13.655C18.6459 13.4473 18.6459 13.1116 18.4382 12.9038C18.2305 12.6961 17.8948 12.6961 17.687 12.9038Z" fill="#405161"/>
<path d="M11.6876 14.25C12.2083 14.25 12.7294 14.0519 13.1257 13.655C13.3334 13.4473 13.3334 13.1116 13.1257 12.9038C12.918 12.6961 12.5823 12.6961 12.3745 12.9038C11.9958 13.2826 11.3795 13.2826 11.0007 12.9038C10.793 12.6961 10.4573 12.6961 10.2495 12.9038C10.0418 13.1116 10.0418 13.4473 10.2495 13.655C10.6459 14.0519 11.167 14.25 11.6876 14.25Z" fill="#405161"/>
<path d="M9.5625 4.78125V5.84375C9.5625 6.137 9.79997 6.375 10.0938 6.375C10.3875 6.375 10.625 6.137 10.625 5.84375V4.78125C10.625 4.488 10.3875 4.25 10.0938 4.25C9.79997 4.25 9.5625 4.488 9.5625 4.78125Z" fill="#405161"/>
<path d="M4.7809 21.2483H5.8434C6.07237 21.2483 6.27477 21.1022 6.34702 20.8849L6.6849 19.8724L7.19968 20.1295C7.46265 20.2607 7.78087 20.1545 7.91262 19.892C8.04384 19.6296 7.93759 19.3103 7.67515 19.1791L6.61265 18.6478C6.47505 18.5788 6.31409 18.5735 6.17171 18.6324C6.02934 18.6914 5.91937 18.8093 5.87155 18.9549L5.46037 20.1858H4.24965C3.95587 20.1858 3.7184 20.4238 3.7184 20.717V22.459L2.48802 22.8691C2.21018 22.9621 2.0593 23.2628 2.15227 23.5412L2.5794 24.8236L1.74959 25.654C1.58755 25.8155 1.54771 26.0625 1.64971 26.267L2.18096 27.3295C2.27393 27.516 2.46146 27.6233 2.65643 27.6233C2.73612 27.6233 2.8174 27.6052 2.89337 27.5675C3.1558 27.4363 3.26205 27.117 3.13084 26.8546L2.77065 26.1347L3.56221 25.3432C3.70459 25.2008 3.75399 24.9904 3.69024 24.7997L3.32687 23.7101L4.41699 23.3467C4.6348 23.2734 4.7809 23.071 4.7809 22.842V21.2483Z" fill="#405161"/>
<path d="M26.1086 24.8235L26.5358 23.541C26.6287 23.2627 26.4784 22.962 26.2 22.869L24.9691 22.4589V20.7169C24.9691 20.4237 24.7316 20.1857 24.4379 20.1857H23.2271L22.817 18.9553C22.7687 18.8092 22.6587 18.6913 22.5169 18.6328C22.374 18.5733 22.2141 18.5786 22.0759 18.6482L21.0134 19.1795C20.751 19.3107 20.6447 19.63 20.776 19.8924C20.9072 20.1548 21.2265 20.2611 21.4889 20.1299L22.0037 19.8728L22.3416 20.8853C22.4122 21.1021 22.6151 21.2482 22.8441 21.2482H23.9066V22.8419C23.9066 23.0709 24.0527 23.2733 24.27 23.3461L25.3601 23.7094L24.9967 24.799C24.933 24.9898 24.9829 25.2007 25.1248 25.3425L25.9163 26.1341L25.5561 26.8539C25.4249 27.1163 25.5312 27.4356 25.7936 27.5668C25.8701 27.6051 25.9514 27.6232 26.0311 27.6232C26.2261 27.6232 26.4136 27.5158 26.5071 27.3294L27.0383 26.2669C27.1403 26.0623 27.1005 25.8153 26.9385 25.6538L26.1086 24.8235Z" fill="#405161"/>
<path d="M25.3443 28.3101C25.1366 28.1024 24.8009 28.1024 24.5932 28.3101C24.3854 28.5178 24.3854 28.8536 24.5932 29.0613L25.1977 29.6658L24.1432 30.3687C23.995 30.4675 23.9062 30.6332 23.9062 30.8107V32.4044C23.9062 32.6977 24.1437 32.9357 24.4375 32.9357C24.7313 32.9357 24.9688 32.6977 24.9688 32.4044V31.0949L26.3261 30.1902C26.4584 30.102 26.5444 29.9586 26.5598 29.8008C26.5752 29.6425 26.5195 29.4852 26.4068 29.3726L25.3443 28.3101Z" fill="#405161"/>
<path d="M21.0237 22.1489C20.8 22.3385 20.7719 22.6738 20.9615 22.8974C21.8328 23.9264 22.3125 25.2349 22.3125 26.5827V29.2188C22.3125 30.6834 21.1209 31.875 19.6562 31.875C17.8983 31.875 16.4688 30.4454 16.4688 28.6875V22.3125H19.125V28.6875C19.125 28.8888 19.2387 29.0727 19.4188 29.163L20.4813 29.6942C20.7443 29.826 21.0625 29.7187 21.1942 29.4568C21.3254 29.1943 21.2192 28.875 20.9568 28.7438L20.1875 28.3592V21.7812C20.1875 21.488 19.95 21.25 19.6562 21.25H19.3508L19.3131 21.0402C19.3056 20.9993 19.3046 20.953 19.3093 20.8983C19.3216 20.7427 19.3997 20.6003 19.5218 20.5089C19.9208 20.2109 20.1551 19.754 20.1657 19.2552L20.1875 18.1337C20.1955 17.7119 20.0159 17.3129 19.6945 17.0393C19.6547 17.0053 19.6074 16.9846 19.5649 16.9554C19.9713 16.1463 20.1875 15.2559 20.1875 14.3438V14.3305C21.6745 14.1955 22.8438 12.9434 22.8438 11.4219C22.8438 10.5618 22.2535 9.84247 21.4588 9.63156L22.0655 7.61016C22.4012 6.49187 22.1659 5.27903 21.4359 4.36688C20.7682 3.53228 19.5888 3.27356 18.6347 3.75169C18.428 3.85475 18.182 3.83934 17.9902 3.71184L17.3294 3.27091C16.2047 2.52131 14.8957 2.125 13.5442 2.125C13.2504 2.125 13.013 2.363 13.013 2.65625C13.013 2.9495 13.2504 3.1875 13.5442 3.1875C14.3778 3.1875 15.1911 3.36759 15.9391 3.71025C15.9391 3.71344 15.9375 3.71609 15.9375 3.71875V6.375C15.9375 6.66825 16.175 6.90625 16.4688 6.90625C16.7625 6.90625 17 6.66825 17 6.375V4.32809L17.4006 4.59531C17.9074 4.93319 18.5629 4.97463 19.1096 4.70156C19.6212 4.44603 20.2497 4.58469 20.6061 5.03041C21.1182 5.67056 21.2824 6.52056 21.0471 7.30469L20.3325 9.68681C20.272 9.70966 20.2146 9.73675 20.1572 9.76544C20.0892 9.05781 19.8592 8.37728 19.4613 7.78069L19.0358 7.14266C18.9476 7.00984 18.8041 6.92431 18.6463 6.90891C18.4859 6.89297 18.3308 6.94981 18.2182 7.06191C17.4006 7.8795 16.1792 8.13131 15.1045 7.701L14.875 7.60909V4.78125C14.875 4.488 14.6375 4.25 14.3438 4.25C14.05 4.25 13.8125 4.488 13.8125 4.78125V7.18409L13.6154 7.10547C13.3344 6.99284 13.0433 6.92166 12.75 6.88022V4.78125C12.75 4.488 12.5125 4.25 12.2188 4.25C11.925 4.25 11.6875 4.488 11.6875 4.78125V6.87969C11.0436 6.97425 10.4242 7.23669 9.89984 7.65584C9.28041 8.1515 8.85063 8.81822 8.64344 9.56091C8.55259 9.50725 8.45803 9.45944 8.35816 9.42172L8.01019 8.79591C7.23934 7.40722 7.42369 5.67162 8.46972 4.47631C9.18584 3.65712 10.2212 3.1875 11.3098 3.1875H11.6875C11.9813 3.1875 12.2188 2.9495 12.2188 2.65625C12.2188 2.363 11.9813 2.125 11.6875 2.125H11.3098C9.91472 2.125 8.58819 2.72691 7.66913 3.77666C6.64913 4.94222 6.273 6.50887 6.58537 7.97566C6.08122 7.64256 5.48994 7.45078 4.85616 7.43803C4.60487 7.43591 4.35041 7.45397 4.09806 7.49859C2.33909 7.81362 1.0625 9.39675 1.0625 11.2636C1.0625 12.0923 1.21656 12.9067 1.51991 13.685C1.62669 13.9586 1.93534 14.0925 2.20788 13.9867C2.48147 13.88 2.61694 13.5718 2.50962 13.2988C2.25462 12.6443 2.125 11.9595 2.125 11.2636C2.125 9.93437 3.05362 8.76509 4.28506 8.54462C4.46941 8.51169 4.65641 8.49469 4.83491 8.50053C5.65516 8.517 6.37766 8.97281 6.76813 9.71975C7.17984 10.5081 7.13309 11.4516 6.66984 12.1486C5.98612 13.0172 5.69341 14.1419 5.86713 15.2336C5.95212 15.7664 6.14444 16.2722 6.42706 16.7211C5.30559 16.4507 4.28347 15.8339 3.51634 14.9584C3.32297 14.7369 2.98775 14.7151 2.76675 14.9085C2.54628 15.1018 2.52397 15.4376 2.71734 15.6581C3.73256 16.8183 5.12603 17.5961 6.64062 17.8484L7.88109 18.0551C7.91084 18.0604 7.94006 18.0625 7.96928 18.0625C8.18391 18.0625 8.38153 17.9318 8.46281 17.7268C8.55525 17.4941 8.47238 17.2284 8.26359 17.0892L8.17806 17.0324C7.49434 16.5766 7.0465 15.8785 6.91741 15.0668C6.834 14.5419 6.89403 14.0213 7.089 13.5341C7.5055 13.8316 7.99 14.0154 8.5 14.0632V14.3438C8.5 15.2973 8.73428 16.2254 9.17575 17.0616C8.86975 17.3342 8.69656 17.722 8.70453 18.1337L8.72631 19.2546C8.73428 19.6706 8.91544 20.0637 9.20869 20.3559C8.63334 20.4999 8.09041 20.7379 7.61494 21.0779C5.84003 22.3454 4.78125 24.403 4.78125 26.5832V28.6875C4.78125 31.0308 6.68791 32.9375 9.03125 32.9375H9.23578C11.5791 32.9375 13.4858 31.0308 13.4858 28.6875V24.8869C13.7695 24.9395 14.0563 24.9688 14.3438 24.9688C14.7034 24.9688 15.0583 24.9236 15.4062 24.8434V28.6875C15.4062 31.0308 17.3129 32.9375 19.6562 32.9375C21.7063 32.9375 23.375 31.2694 23.375 29.2188V26.5832C23.375 24.9847 22.806 23.4318 21.7728 22.2116C21.5836 21.9874 21.2489 21.9587 21.0237 22.1489ZM16.652 21.25L16.4608 20.1886C16.4273 20.0021 16.2972 19.848 16.1192 19.7832C15.9375 19.7173 15.8089 19.567 15.776 19.3821L15.6458 18.6575C15.5316 18.0242 15.699 17.3873 16.0932 16.9538C16.4624 16.5474 16.9208 16.3843 17.3549 16.5097C17.7469 16.6223 18.0359 16.9416 18.1082 17.3432C18.1602 17.6317 18.436 17.8229 18.725 17.7719C18.8642 17.7453 18.9598 17.8091 19.0055 17.8479C19.0512 17.8867 19.1271 17.9733 19.125 18.113L19.1032 19.2339C19.1 19.4002 19.0187 19.559 18.8865 19.6578C18.5204 19.9314 18.2883 20.3517 18.2506 20.8101C18.2383 20.9568 18.2431 21.0933 18.267 21.2277L18.2707 21.25H16.652ZM21.7812 11.4219C21.7812 12.3569 21.0874 13.133 20.1875 13.2621V11.4219C20.1875 10.9825 20.545 10.625 20.9844 10.625C21.4237 10.625 21.7812 10.9825 21.7812 11.4219ZM9.5625 10.5687C9.5625 9.75428 9.92747 8.99512 10.5639 8.48566C10.8965 8.2195 11.2832 8.04737 11.6875 7.96344V8.5C11.6875 8.79325 11.925 9.03125 12.2188 9.03125C12.5125 9.03125 12.75 8.79325 12.75 8.5V7.95812C12.9094 7.98947 13.0672 8.03038 13.2212 8.092L13.8125 8.32841V9.03125C13.8125 9.3245 14.05 9.5625 14.3438 9.5625C14.6375 9.5625 14.875 9.3245 14.875 9.03125V8.74119C16.1001 9.16991 17.4441 8.97441 18.4822 8.22747L18.5773 8.36984C18.9359 8.908 19.125 9.53328 19.125 10.1798V14.3438C19.125 14.9956 18.9853 15.632 18.7292 16.2249C18.4593 15.8801 18.0901 15.6156 17.6481 15.4881C16.8247 15.2517 15.9492 15.5322 15.3069 16.2387C14.6917 16.9145 14.4277 17.8893 14.5998 18.8456L14.6476 19.1123C14.5159 19.1218 14.3809 19.1245 14.2423 19.1197L14.2917 18.845C14.4633 17.8882 14.1993 16.9139 13.5851 16.2382C12.9418 15.5311 12.0663 15.2506 11.2434 15.4875C10.7265 15.6363 10.3078 15.9699 10.0358 16.4061C9.72666 15.7648 9.5625 15.0636 9.5625 14.3438V10.5687ZM13.2462 18.658L13.116 19.3821C13.0831 19.5675 12.954 19.7173 12.7728 19.7838C12.5949 19.8486 12.4653 20.0026 12.4312 20.1886L12.24 21.25H10.6208L10.625 21.2272C10.7328 20.6247 10.4954 20.0233 10.0061 19.6584C9.87328 19.5585 9.792 19.4007 9.78881 19.2344L9.76703 18.1135C9.76437 17.9733 9.84088 17.8872 9.88656 17.8479C9.93225 17.8091 10.0305 17.7475 10.1671 17.7719C10.4555 17.8234 10.7318 17.6317 10.7838 17.3432C10.8561 16.9416 11.1451 16.6223 11.5372 16.5097C11.9712 16.3843 12.4297 16.5479 12.7994 16.9538C13.1931 17.3873 13.3599 18.0242 13.2462 18.658ZM7.62397 12.6082C8.01019 11.9531 8.16584 11.2003 8.08191 10.4598C8.32947 10.5947 8.5 10.8545 8.5 11.1562V12.996C8.18072 12.9482 7.88003 12.8127 7.62397 12.6082ZM12.4233 28.6875C12.4233 30.4454 10.9937 31.875 9.23578 31.875H9.03125C7.27334 31.875 5.84375 30.4454 5.84375 28.6875V26.5832C5.84375 24.7456 6.73678 23.0111 8.23172 21.9433C8.38631 21.8328 8.54994 21.735 8.72047 21.6506C8.70984 21.6925 8.70453 21.7366 8.70453 21.7818V28.3597L7.93581 28.7443C7.67337 28.8756 7.56713 29.1948 7.69834 29.4573C7.82956 29.7197 8.14884 29.8265 8.41128 29.6947L9.47378 29.1635C9.65388 29.0737 9.76756 28.8894 9.76756 28.688V22.3125H12.4238V28.6875H12.4233ZM13.4858 23.8021V21.7812C13.4858 21.6197 13.4098 21.48 13.2961 21.3823L13.43 20.6396C13.6255 20.5185 13.7907 20.3564 13.9177 20.1678C14.0654 20.1801 14.2067 20.1875 14.3438 20.1875C14.5472 20.1875 14.7539 20.1716 14.9642 20.1482C15.0923 20.3453 15.2602 20.5148 15.4626 20.6401L15.5964 21.3828C15.4822 21.48 15.4062 21.6197 15.4062 21.7812V23.749C14.7836 23.9355 14.1249 23.9557 13.4858 23.8021Z" fill="#405161"/>
<path d="M4.0139 30.3687L2.95937 29.6658L3.56393 29.0613C3.77165 28.8536 3.77165 28.5178 3.56393 28.3101C3.35621 28.1024 3.02046 28.1024 2.81275 28.3101L1.75025 29.3726C1.63762 29.4852 1.58184 29.6419 1.59725 29.8008C1.61265 29.9591 1.69871 30.102 1.831 30.1902L3.18781 31.0949V32.4044C3.18781 32.6977 3.42528 32.9357 3.71906 32.9357C4.01284 32.9357 4.25031 32.6977 4.25031 32.4044V30.8107C4.25031 30.6332 4.16159 30.4675 4.0139 30.3687Z" fill="#405161"/>
<path d="M32.2804 3.91865C32.1428 3.6594 31.8209 3.56059 31.5621 3.69818C31.3029 3.83578 31.2041 4.15718 31.3422 4.41643C31.6907 5.07359 31.875 5.80724 31.875 6.53824C31.875 11.1176 28.7964 15.0308 24.4386 16.156L24.9449 15.6492C26.5864 14.0087 26.843 11.4162 25.5553 9.48456L24.607 8.06134C23.8218 6.88409 23.7464 5.36471 24.4089 4.09609C25.04 2.88856 26.2098 2.15171 27.5384 2.12515C27.6638 2.12303 27.7849 2.12515 27.9087 2.13365C28.7061 2.18518 29.4695 2.47312 30.1177 2.96559C30.3509 3.14303 30.685 3.0984 30.8619 2.86465C31.0394 2.6309 30.9942 2.29781 30.761 2.12037C29.9461 1.5004 28.9834 1.13862 27.9773 1.07381C27.8221 1.06371 27.6681 1.06106 27.5172 1.06318C25.7949 1.09771 24.2808 2.04812 23.4675 3.60468C22.6249 5.21756 22.7232 7.15131 23.723 8.65103L24.6713 10.0742C25.6785 11.5857 25.4783 13.6145 24.1937 14.8985L22.4682 16.6246C22.3046 16.7882 22.2658 17.0379 22.3715 17.2435C22.4634 17.4209 22.6472 17.5303 22.8438 17.5303C22.873 17.5303 22.9017 17.5282 22.9309 17.5229L23.7464 17.3869C29.0722 16.4997 32.9375 11.9368 32.9375 6.53771C32.9375 5.63406 32.7102 4.72828 32.2804 3.91865Z" fill="#405161"/>
<path d="M26.0312 6.375C26.3247 6.375 26.5625 6.13715 26.5625 5.84375C26.5625 5.55035 26.3247 5.3125 26.0312 5.3125C25.7378 5.3125 25.5 5.55035 25.5 5.84375C25.5 6.13715 25.7378 6.375 26.0312 6.375Z" fill="#405161"/>
<path d="M29.2188 5.84375C29.5122 5.84375 29.75 5.6059 29.75 5.3125C29.75 5.0191 29.5122 4.78125 29.2188 4.78125C28.9253 4.78125 28.6875 5.0191 28.6875 5.3125C28.6875 5.6059 28.9253 5.84375 29.2188 5.84375Z" fill="#405161"/>
<path d="M26.5625 9.56146C26.8563 9.56146 27.0938 9.32346 27.0938 9.03021V8.82727L27.3875 8.9739C27.6505 9.10565 27.9687 8.99833 28.1005 8.73643L28.3943 8.1494L28.9813 8.44318C29.2437 8.57386 29.5625 8.46815 29.6942 8.20571L29.8961 7.80249L29.9062 7.81258C30.1139 8.0203 30.4497 8.0203 30.6574 7.81258C30.8651 7.60486 30.8651 7.26911 30.6574 7.0614L30.1261 6.53015C30.0055 6.40955 29.8366 6.35536 29.6655 6.3814C29.4971 6.40902 29.3516 6.51527 29.2756 6.66827L28.9818 7.2553L28.3948 6.96152C28.1323 6.8303 27.8131 6.93655 27.6818 7.19899L27.3881 7.78602L26.801 7.49224C26.6358 7.41043 26.4403 7.4184 26.2841 7.51561C26.1269 7.61283 26.0312 7.78336 26.0312 7.96771V9.03021C26.0312 9.32346 26.2687 9.56146 26.5625 9.56146Z" fill="#405161"/>
<path d="M5.3125 11.6875C5.6059 11.6875 5.84375 11.4497 5.84375 11.1562C5.84375 10.8628 5.6059 10.625 5.3125 10.625C5.0191 10.625 4.78125 10.8628 4.78125 11.1562C4.78125 11.4497 5.0191 11.6875 5.3125 11.6875Z" fill="#405161"/>
<path d="M3.1875 11.6875C3.4809 11.6875 3.71875 11.4497 3.71875 11.1562C3.71875 10.8628 3.4809 10.625 3.1875 10.625C2.8941 10.625 2.65625 10.8628 2.65625 11.1562C2.65625 11.4497 2.8941 11.6875 3.1875 11.6875Z" fill="#405161"/>
</svg>
