<svg width="31" height="31" viewBox="0 0 31 31" fill="none" xmlns="http://www.w3.org/2000/svg">
<g clip-path="url(#clip0_391_1212)">
<path d="M16.9655 14.9161L17.5393 15.1732C17.6196 15.2092 17.7037 15.2262 17.7864 15.2262C18.0178 15.2262 18.2386 15.0929 18.3393 14.8681C18.476 14.5629 18.3394 14.2047 18.0343 14.068L17.4605 13.811C17.1553 13.674 16.7972 13.8109 16.6605 14.116C16.5238 14.4212 16.6604 14.7794 16.9655 14.9161Z" fill="#405161"/>
<path d="M13.2134 15.2261C13.2961 15.2261 13.3802 15.209 13.4605 15.173L14.0343 14.916C14.3394 14.7793 14.476 14.4211 14.3393 14.1159C14.2026 13.8107 13.8444 13.6741 13.5393 13.8109L12.9655 14.0679C12.6604 14.2046 12.5238 14.5628 12.6605 14.868C12.7612 15.0927 12.982 15.2261 13.2134 15.2261Z" fill="#405161"/>
<path d="M29.4987 23.4545C29.3324 23.1644 28.9623 23.0642 28.6723 23.2305C28.3822 23.3968 28.282 23.7668 28.4483 24.0569L29.4331 25.7744C29.8106 26.4326 29.8922 27.1934 29.663 27.9168C29.4338 28.6401 28.9288 29.2151 28.2411 29.5357C27.5536 29.8564 26.7884 29.8737 26.087 29.5843C25.3855 29.2949 24.8551 28.7434 24.5935 28.0311L20.6237 17.2232L23.7056 15.7861L25.7376 19.3297C25.904 19.6198 26.274 19.7203 26.564 19.5538C26.8541 19.3874 26.9544 19.0174 26.7881 18.7274L24.4792 14.701C24.3528 14.4805 24.107 14.3682 23.8668 14.4032L24.0695 12.0869C24.1633 11.0146 23.7718 9.97189 22.9956 9.22626L22.6235 8.8688C21.8775 5.5617 18.9101 3.17969 15.5001 3.17969C12.095 3.17969 9.12247 5.56358 8.37666 8.8688L8.0046 9.2262C7.2284 9.97183 6.83697 11.0145 6.93075 12.0869L7.1334 14.4032C6.89333 14.3682 6.64752 14.4806 6.52104 14.701L0.516721 25.172C-0.0234125 26.1139 -0.14505 27.2477 0.182929 28.2827C0.510969 29.3176 1.26344 30.1744 2.24744 30.6332C2.76662 30.8754 3.3291 30.9968 3.89218 30.9968H3.89351L3.89218 30.9983H27.1081L27.1072 30.9968H27.1081C27.6711 30.9968 28.2337 30.8753 28.7528 30.6332C29.7368 30.1744 30.4893 29.3176 30.8174 28.2827C31.1453 27.2476 31.0237 26.1139 30.4836 25.172L29.4987 23.4545ZM24.2906 29.7874H6.7097C7.07255 29.4059 7.35881 28.9515 7.54348 28.4487L9.36459 23.4906L11.1328 23.2146C11.3373 23.1827 11.533 23.1289 11.7181 23.0562C12.7376 24.0139 14.0914 24.5554 15.5001 24.5554C16.9088 24.5554 18.2625 24.0139 19.2821 23.0562C19.4672 23.129 19.6629 23.1828 19.8674 23.2146L21.6356 23.4906L23.4567 28.4487C23.6415 28.9515 23.9277 29.4059 24.2906 29.7874ZM11.4849 13.9408L11.374 12.6738L12.0935 10.7629C12.1502 10.6124 12.1879 10.4564 12.2081 10.2987C12.6817 9.99726 13.19 9.76361 13.7257 9.60256C15.364 10.9909 17.3292 11.8813 19.4462 12.1954L19.6263 12.6738L19.5154 13.9408C19.4464 14.7298 19.5385 15.5279 19.7817 16.2797L19.6076 16.3609C19.3225 16.4939 19.1867 16.8231 19.2952 17.1184L19.6323 18.0365C18.6864 19.3879 17.1607 20.1874 15.5002 20.1874C13.8392 20.1874 12.3139 19.388 11.368 18.0365L11.7052 17.1185C11.8137 16.8232 11.6779 16.4939 11.3928 16.361L11.2187 16.2798C11.4618 15.5279 11.5539 14.7298 11.4849 13.9408ZM18.7766 20.476C19.2705 20.1722 19.7226 19.7987 20.1194 19.3627L21.158 22.1905L20.054 22.0182C19.838 21.9845 19.6401 21.9061 19.467 21.7948C19.4662 21.7942 19.4653 21.7937 19.4645 21.7932C19.0474 21.5234 18.7766 21.0039 18.7766 20.476ZM13.3855 21.0338C14.0524 21.2719 14.7655 21.3983 15.5001 21.3983C16.2347 21.3983 16.9478 21.2719 17.6147 21.0337C17.7068 21.531 17.9333 21.9814 18.2585 22.3445C17.4887 22.9852 16.5128 23.3446 15.5001 23.3446C14.4874 23.3446 13.5115 22.9852 12.7416 22.3445C13.0669 21.9814 13.2934 21.531 13.3855 21.0338ZM12.2236 20.4761C12.2236 21.2238 11.6848 21.9029 10.9461 22.0182L9.84212 22.1905L10.8808 19.3627C11.2776 19.7987 11.7298 20.1724 12.2236 20.4761ZM22.8632 11.9814L22.6021 14.9645L20.8893 15.7633C20.7289 15.2077 20.6711 14.6239 20.7217 14.0463L20.8445 12.6422C20.8525 12.5518 20.84 12.4609 20.808 12.376L20.04 10.3364C19.9572 10.1165 19.9685 9.8692 20.0709 9.65778C20.1924 9.40705 20.4194 9.2351 20.6937 9.186C20.7456 9.17674 20.7975 9.17213 20.8488 9.17213C21.0686 9.17213 21.2786 9.25599 21.4415 9.4125L22.1566 10.0995C22.6674 10.59 22.9248 11.2759 22.8632 11.9814ZM15.5001 4.39061C17.9258 4.39061 20.0823 5.83537 21.0509 7.9709C20.8638 7.95297 20.6724 7.95969 20.4804 7.99409C19.8202 8.11227 19.2738 8.52623 18.9813 9.12981C18.7347 9.63858 18.7076 10.2338 18.9068 10.7631L18.9489 10.8748C17.2177 10.4988 15.6205 9.68224 14.2836 8.48251C14.1344 8.3487 13.9286 8.29724 13.7343 8.34525C13.1153 8.49783 12.5243 8.72857 11.9688 9.03342C11.6665 8.48239 11.1443 8.10585 10.5199 7.99403C10.3279 7.9597 10.1365 7.95297 9.94941 7.9709C10.9188 5.83628 13.0781 4.39061 15.5001 4.39061ZM8.84353 10.0995L9.5587 9.4125C9.75959 9.21948 10.0322 9.13702 10.3064 9.186C10.5807 9.2351 10.8077 9.40705 10.9292 9.65778C11.0316 9.86914 11.0429 10.1165 10.9602 10.3363L10.1922 12.3759C10.1602 12.4608 10.1478 12.5518 10.1556 12.6421L10.2785 14.0462C10.329 14.6238 10.2713 15.2076 10.1109 15.7632L8.39803 14.9645L8.13696 11.9813C8.07544 11.2759 8.33282 10.59 8.84353 10.0995ZM2.75923 29.5358C2.07155 29.2151 1.56659 28.6402 1.33737 27.9168C1.10814 27.1935 1.18975 26.4327 1.5672 25.7744L7.29482 15.7861L10.3767 17.2233L6.40691 28.0312C6.14529 28.7434 5.6149 29.295 4.91341 29.5843C4.21198 29.8738 3.44692 29.8565 2.75923 29.5358Z" fill="#405161"/>
<path d="M14.108 17.8196C14.3445 18.0561 14.7279 18.0561 14.9643 17.8196C15.1074 17.6765 15.2977 17.5977 15.5001 17.5977C15.7026 17.5977 15.8928 17.6765 16.036 17.8196C16.1543 17.9379 16.3092 17.997 16.4642 17.997C16.6191 17.997 16.774 17.9378 16.8923 17.8196C17.1287 17.5832 17.1287 17.1998 16.8923 16.9634C16.5204 16.5915 16.026 16.3867 15.5001 16.3867C14.9742 16.3867 14.4799 16.5915 14.108 16.9634C13.8715 17.1998 13.8715 17.5831 14.108 17.8196Z" fill="#405161"/>
<path d="M27.0874 8.37347L28.0679 8.93958L25.8704 10.1908C25.5799 10.3562 25.4784 10.7259 25.6439 11.0165C25.7555 11.2126 25.9601 11.3225 26.1706 11.3225C26.2722 11.3225 26.3751 11.2969 26.4696 11.2431L29.5847 9.46943C29.7732 9.36208 29.89 9.16203 29.8906 8.94509C29.8913 8.72815 29.7758 8.52744 29.5879 8.41894L28.6902 7.9006L30.6549 6.96472C30.9567 6.82092 31.085 6.45964 30.9412 6.15769C30.7974 5.85581 30.436 5.72775 30.1342 5.87143L27.1298 7.30245C26.9267 7.39915 26.794 7.60047 26.7852 7.82516C26.7763 8.04984 26.8927 8.26103 27.0874 8.37347Z" fill="#405161"/>
<path d="M23.4718 6.64137C23.5832 6.72995 23.7161 6.77299 23.8482 6.77299C24.0264 6.77299 24.203 6.69471 24.3225 6.54437L26.5538 3.73884C26.6888 3.56901 26.7227 3.33996 26.6426 3.13834C26.5625 2.93672 26.3806 2.79341 26.1658 2.76265L25.1397 2.61564L26.615 1.01589C26.8417 0.770072 26.8261 0.387056 26.5804 0.160371C26.3345 -0.0663144 25.9515 -0.0508145 25.7248 0.195003L23.4688 2.64132C23.3163 2.80661 23.2681 3.0428 23.3435 3.25471C23.4188 3.46662 23.6054 3.61926 23.8281 3.65111L24.9488 3.81161L23.3749 5.79069C23.1666 6.05237 23.2101 6.43321 23.4718 6.64137Z" fill="#405161"/>
<path d="M0.345306 6.96478L2.30999 7.90065L1.41226 8.41899C1.22433 8.52749 1.10886 8.7282 1.10953 8.94514C1.11019 9.16208 1.22687 9.36213 1.41541 9.46948L4.53055 11.2431C4.62512 11.297 4.72805 11.3226 4.82959 11.3226C5.04011 11.3226 5.24464 11.2126 5.35629 11.0166C5.5217 10.726 5.42028 10.3563 5.12972 10.1908L2.93223 8.93963L3.91273 8.37352C4.10751 8.26108 4.22388 8.04996 4.21498 7.82521C4.20614 7.60052 4.07336 7.3992 3.87035 7.30251L0.865949 5.87148C0.564123 5.72768 0.202779 5.85586 0.05898 6.15775C-0.0848189 6.45963 0.0433589 6.82098 0.345306 6.96478Z" fill="#405161"/>
<path d="M5.86037 2.61573L4.83423 2.76274C4.61948 2.79349 4.43753 2.93681 4.35743 3.13843C4.27733 3.34005 4.31117 3.56915 4.44625 3.73892L6.67757 6.54446C6.79708 6.69473 6.97364 6.77308 7.15182 6.77308C7.28388 6.77308 7.4169 6.73009 7.5283 6.64145C7.78998 6.43329 7.83345 6.0524 7.6253 5.79072L6.05121 3.81164L7.17199 3.65113C7.39462 3.61922 7.58122 3.46659 7.6566 3.25474C7.73192 3.04282 7.68366 2.80669 7.53127 2.64134L5.27519 0.19503C5.04857 -0.0507277 4.66549 -0.0664092 4.41961 0.160397C4.1738 0.387082 4.15829 0.770098 4.38498 1.01592L5.86037 2.61573Z" fill="#405161"/>
<path d="M27.624 21.9941C27.9584 21.9941 28.2295 21.7231 28.2295 21.3887C28.2295 21.0543 27.9584 20.7832 27.624 20.7832C27.2896 20.7832 27.0186 21.0543 27.0186 21.3887C27.0186 21.7231 27.2896 21.9941 27.624 21.9941Z" fill="#405161"/>
</g>
<defs>
<clipPath id="clip0_391_1212">
<rect width="31" height="31" fill="white"/>
</clipPath>
</defs>
</svg>
