<svg width="32" height="32" viewBox="0 0 32 32" fill="none" xmlns="http://www.w3.org/2000/svg">
<g clip-path="url(#clip0_391_1412)">
<path d="M5 9.5C5.89002 9.5 6.76005 9.23608 7.50007 8.74162C8.24009 8.24715 8.81686 7.54434 9.15746 6.72208C9.49805 5.89981 9.58717 4.99501 9.41353 4.1221C9.2399 3.24918 8.81132 2.44736 8.18198 1.81802C7.55264 1.18869 6.75082 0.760102 5.87791 0.586468C5.00499 0.412835 4.10019 0.50195 3.27792 0.842544C2.45566 1.18314 1.75285 1.75991 1.25839 2.49994C0.76392 3.23996 0.5 4.10999 0.5 5C0.501323 6.19307 0.975854 7.33689 1.81948 8.18052C2.66311 9.02415 3.80693 9.49868 5 9.5V9.5ZM5 1.5C5.69223 1.5 6.36892 1.70527 6.9445 2.08986C7.52007 2.47444 7.96867 3.02107 8.23358 3.66061C8.49849 4.30015 8.5678 5.00388 8.43275 5.68282C8.2977 6.36175 7.96436 6.98539 7.47487 7.47488C6.98539 7.96436 6.36175 8.2977 5.68282 8.43275C5.00388 8.5678 4.30015 8.49849 3.66061 8.23358C3.02107 7.96867 2.47444 7.52007 2.08986 6.9445C1.70527 6.36893 1.5 5.69224 1.5 5C1.50106 4.07207 1.87015 3.18245 2.5263 2.5263C3.18244 1.87015 4.07207 1.50106 5 1.5V1.5Z" fill="#405161"/>
<path d="M3.25 3.125H4.25V4.125H3.25V3.125Z" fill="#405161"/>
<path d="M5.75 3.125H6.75V4.125H5.75V3.125Z" fill="#405161"/>
<path d="M5 7.5C5.59653 7.49934 6.16845 7.26207 6.59026 6.84026C7.01207 6.41845 7.24934 5.84653 7.25 5.25H6.25C6.25 5.58152 6.1183 5.89946 5.88388 6.13388C5.64946 6.3683 5.33152 6.5 5 6.5C4.66848 6.5 4.35054 6.3683 4.11612 6.13388C3.8817 5.89946 3.75 5.58152 3.75 5.25H2.75C2.75066 5.84653 2.98793 6.41845 3.40974 6.84026C3.83155 7.26207 4.40347 7.49934 5 7.5V7.5Z" fill="#405161"/>
<path d="M27 22.5C26.11 22.5 25.24 22.7639 24.4999 23.2584C23.7599 23.7529 23.1831 24.4557 22.8425 25.2779C22.502 26.1002 22.4128 27.005 22.5865 27.8779C22.7601 28.7508 23.1887 29.5526 23.818 30.182C24.4474 30.8113 25.2492 31.2399 26.1221 31.4135C26.995 31.5872 27.8998 31.4981 28.7221 31.1575C29.5443 30.8169 30.2471 30.2401 30.7416 29.5001C31.2361 28.76 31.5 27.89 31.5 27C31.4987 25.8069 31.0241 24.6631 30.1805 23.8195C29.3369 22.9759 28.1931 22.5013 27 22.5V22.5ZM27 30.5C26.3078 30.5 25.6311 30.2947 25.0555 29.9101C24.4799 29.5256 24.0313 28.9789 23.7664 28.3394C23.5015 27.6999 23.4322 26.9961 23.5673 26.3172C23.7023 25.6383 24.0356 25.0146 24.5251 24.5251C25.0146 24.0356 25.6383 23.7023 26.3172 23.5673C26.9961 23.4322 27.6999 23.5015 28.3394 23.7664C28.9789 24.0313 29.5256 24.4799 29.9101 25.0555C30.2947 25.6311 30.5 26.3078 30.5 27C30.4989 27.9279 30.1299 28.8176 29.4737 29.4737C28.8176 30.1299 27.9279 30.4989 27 30.5V30.5Z" fill="#405161"/>
<path d="M25.25 25.125H26.25V26.125H25.25V25.125Z" fill="#405161"/>
<path d="M27.75 25.125H28.75V26.125H27.75V25.125Z" fill="#405161"/>
<path d="M27 28.5C26.6685 28.5 26.3505 28.3683 26.1161 28.1339C25.8817 27.8995 25.75 27.5815 25.75 27.25H24.75C24.75 27.8467 24.9871 28.419 25.409 28.841C25.831 29.2629 26.4033 29.5 27 29.5C27.5967 29.5 28.169 29.2629 28.591 28.841C29.0129 28.419 29.25 27.8467 29.25 27.25H28.25C28.25 27.5815 28.1183 27.8995 27.8839 28.1339C27.6495 28.3683 27.3315 28.5 27 28.5Z" fill="#405161"/>
<path d="M27 0.5C26.11 0.5 25.24 0.76392 24.4999 1.25839C23.7599 1.75285 23.1831 2.45566 22.8425 3.27792C22.502 4.10019 22.4128 5.00499 22.5865 5.87791C22.7601 6.75082 23.1887 7.55264 23.818 8.18198C24.4474 8.81132 25.2492 9.2399 26.1221 9.41353C26.995 9.58717 27.8998 9.49805 28.7221 9.15746C29.5443 8.81686 30.2471 8.24009 30.7416 7.50007C31.2361 6.76005 31.5 5.89002 31.5 5C31.4987 3.80693 31.0241 2.66311 30.1805 1.81948C29.3369 0.975854 28.1931 0.501323 27 0.5V0.5ZM27 8.5C26.3078 8.5 25.6311 8.29473 25.0555 7.91014C24.4799 7.52556 24.0313 6.97893 23.7664 6.33939C23.5015 5.69985 23.4322 4.99612 23.5673 4.31718C23.7023 3.63825 24.0356 3.01461 24.5251 2.52513C25.0146 2.03564 25.6383 1.7023 26.3172 1.56725C26.9961 1.4322 27.6999 1.50151 28.3394 1.76642C28.9789 2.03133 29.5256 2.47993 29.9101 3.0555C30.2947 3.63108 30.5 4.30777 30.5 5C30.4989 5.92793 30.1299 6.81756 29.4737 7.4737C28.8176 8.12985 27.9279 8.49894 27 8.5V8.5Z" fill="#405161"/>
<path d="M25.25 3.125H26.25V4.125H25.25V3.125Z" fill="#405161"/>
<path d="M27.75 3.125H28.75V4.125H27.75V3.125Z" fill="#405161"/>
<path d="M27 4.75C26.4035 4.75066 25.8316 4.98793 25.4097 5.40974C24.9879 5.83155 24.7507 6.40347 24.75 7H25.75C25.75 6.66848 25.8817 6.35054 26.1161 6.11612C26.3505 5.8817 26.6685 5.75 27 5.75C27.3315 5.75 27.6495 5.8817 27.8839 6.11612C28.1183 6.35054 28.25 6.66848 28.25 7H29.25C29.2493 6.40347 29.0121 5.83155 28.5903 5.40974C28.1684 4.98793 27.5965 4.75066 27 4.75V4.75Z" fill="#405161"/>
<path d="M5 31.5C5.89002 31.5 6.76005 31.2361 7.50007 30.7416C8.24009 30.2471 8.81686 29.5443 9.15746 28.7221C9.49805 27.8998 9.58717 26.995 9.41353 26.1221C9.2399 25.2492 8.81132 24.4474 8.18198 23.818C7.55264 23.1887 6.75082 22.7601 5.87791 22.5865C5.00499 22.4128 4.10019 22.502 3.27792 22.8425C2.45566 23.1831 1.75285 23.7599 1.25839 24.4999C0.76392 25.24 0.5 26.11 0.5 27C0.501323 28.1931 0.975854 29.3369 1.81948 30.1805C2.66311 31.0241 3.80693 31.4987 5 31.5ZM5 23.5C5.69223 23.5 6.36892 23.7053 6.9445 24.0899C7.52007 24.4744 7.96867 25.0211 8.23358 25.6606C8.49849 26.3002 8.5678 27.0039 8.43275 27.6828C8.2977 28.3618 7.96436 28.9854 7.47487 29.4749C6.98539 29.9644 6.36175 30.2977 5.68282 30.4328C5.00388 30.5678 4.30015 30.4985 3.66061 30.2336C3.02107 29.9687 2.47444 29.5201 2.08986 28.9445C1.70527 28.3689 1.5 27.6922 1.5 27C1.50106 26.0721 1.87015 25.1824 2.5263 24.5263C3.18244 23.8701 4.07207 23.5011 5 23.5Z" fill="#405161"/>
<path d="M3.25 25.125H4.25V26.125H3.25V25.125Z" fill="#405161"/>
<path d="M5.75 25.125H6.75V26.125H5.75V25.125Z" fill="#405161"/>
<path d="M5 27.75C5.33152 27.75 5.64946 27.8817 5.88388 28.1161C6.1183 28.3505 6.25 28.6685 6.25 29H7.25C7.25 28.4033 7.01295 27.831 6.59099 27.409C6.16903 26.9871 5.59674 26.75 5 26.75C4.40326 26.75 3.83097 26.9871 3.40901 27.409C2.98705 27.831 2.75 28.4033 2.75 29H3.75C3.75 28.6685 3.8817 28.3505 4.11612 28.1161C4.35054 27.8817 4.66848 27.75 5 27.75V27.75Z" fill="#405161"/>
<path d="M11.5 15.7498V21.4998C11.5 21.6324 11.5527 21.7596 11.6464 21.8534C11.7402 21.9471 11.8674 21.9998 12 21.9998H20C20.1326 21.9998 20.2598 21.9471 20.3536 21.8534C20.4473 21.7596 20.5 21.6324 20.5 21.4998V15.7498C20.4992 15.0207 20.2092 14.3217 19.6937 13.8061C19.1781 13.2906 18.4791 13.0006 17.75 12.9998H17.4845C17.908 12.6873 18.2221 12.249 18.3819 11.7475C18.5418 11.246 18.5393 10.7069 18.3747 10.2069C18.2102 9.7069 17.8921 9.27159 17.4657 8.963C17.0393 8.65441 16.5264 8.48828 16 8.48828C15.4736 8.48828 14.9607 8.65441 14.5343 8.963C14.1079 9.27159 13.7898 9.7069 13.6253 10.2069C13.4607 10.7069 13.4582 11.246 13.6181 11.7475C13.7779 12.249 14.092 12.6873 14.5155 12.9998H14.25C13.5209 13.0006 12.8219 13.2906 12.3063 13.8061C11.7908 14.3217 11.5008 15.0207 11.5 15.7498V15.7498ZM14.5 10.9998C14.5 10.7031 14.588 10.4131 14.7528 10.1665C14.9176 9.91978 15.1519 9.72753 15.426 9.61399C15.7001 9.50046 16.0017 9.47076 16.2926 9.52864C16.5836 9.58651 16.8509 9.72937 17.0607 9.93915C17.2704 10.1489 17.4133 10.4162 17.4712 10.7072C17.5291 10.9981 17.4993 11.2997 17.3858 11.5738C17.2723 11.8479 17.08 12.0822 16.8334 12.247C16.5867 12.4118 16.2967 12.4998 16 12.4998C15.6022 12.4998 15.2206 12.3418 14.9393 12.0605C14.658 11.7792 14.5 11.3976 14.5 10.9998ZM17.75 13.9998C18.2141 13.9998 18.6592 14.1842 18.9874 14.5124C19.3156 14.8406 19.5 15.2857 19.5 15.7498V20.9998H12.5V15.7498C12.5 15.2857 12.6844 14.8406 13.0126 14.5124C13.3408 14.1842 13.7859 13.9998 14.25 13.9998H17.75Z" fill="#405161"/>
<path d="M16.0001 28.5004C14.9886 28.4987 13.9812 28.3736 13.0001 28.1279L14.1501 27.6569L13.7706 26.7324L11.3106 27.7404C11.2446 27.7674 11.1852 27.8082 11.1363 27.8601C11.0874 27.9119 11.0501 27.9736 11.027 28.0411C11.0039 28.1085 10.9955 28.1801 11.0023 28.251C11.0091 28.322 11.031 28.3906 11.0666 28.4524L12.3926 30.7559L13.2596 30.2559L12.5676 29.0559C15.433 29.8106 18.4672 29.6022 21.2026 28.4629L20.8176 27.5399C19.2916 28.1774 17.6538 28.5039 16.0001 28.5004V28.5004Z" fill="#405161"/>
<path d="M11.1823 4.46114C12.7082 3.82332 14.346 3.49644 15.9998 3.49964C17.0123 3.50189 18.0207 3.62646 19.0033 3.87064L17.8533 4.34314L18.2328 5.26764L20.6893 4.25964C20.755 4.2326 20.8142 4.19187 20.8629 4.14016C20.9116 4.08846 20.9487 4.02698 20.9718 3.9598C20.9949 3.89262 21.0034 3.82129 20.9968 3.75057C20.9901 3.67985 20.9685 3.61135 20.9333 3.54964L19.6073 1.24414L18.7403 1.74414L19.4308 2.94414C16.5663 2.1925 13.5343 2.40117 10.7998 3.53814L11.1823 4.46114Z" fill="#405161"/>
<path d="M27.6569 17.3506L26.7314 17.7301L27.7399 20.1906C27.767 20.2565 27.8079 20.3158 27.8598 20.3646C27.9117 20.4134 27.9734 20.4505 28.0408 20.4736C28.1083 20.4966 28.1798 20.5049 28.2507 20.498C28.3216 20.4911 28.3902 20.4692 28.4519 20.4336L30.7554 19.1081L30.2554 18.2416L29.1904 18.8546C29.7766 16.1615 29.5236 13.3535 28.4654 10.8086L27.5419 11.1926C28.5271 13.5645 28.7584 16.1822 28.2044 18.6901L27.6569 17.3506Z" fill="#405161"/>
<path d="M4.34264 14.1508L5.26814 13.7713L4.25964 11.3108C4.2325 11.2452 4.1917 11.1861 4.13995 11.1375C4.08821 11.0889 4.0267 11.0519 3.95954 11.0289C3.89237 11.0059 3.82107 10.9975 3.7504 11.0042C3.67972 11.0109 3.61129 11.0326 3.54964 11.0678L1.24414 12.3933L1.74414 13.2598L2.94664 12.5678C2.19251 15.4295 2.39892 18.4597 3.53414 21.1928L4.45764 20.8088C3.42767 18.3369 3.22217 15.5987 3.87164 13.0008L4.34264 14.1508Z" fill="#405161"/>
</g>
<defs>
<clipPath id="clip0_391_1412">
<rect width="32" height="32" fill="white"/>
</clipPath>
</defs>
</svg>
