<svg width="188" height="187" viewBox="0 0 188 187" fill="none" xmlns="http://www.w3.org/2000/svg">
<path fill-rule="evenodd" clip-rule="evenodd" d="M94 30.2054C106.429 30.2054 116.523 40.2738 116.523 52.6696C116.523 65.0655 106.429 75.1339 94 75.1339C81.5715 75.1339 71.4765 65.0655 71.4765 52.6696C71.4765 40.2738 81.5715 30.2054 94 30.2054ZM36.4231 130.182C43.0686 139.997 51.7431 147.637 61.483 152.848C71.5273 158.211 82.7383 161.095 94 161.196C103.841 161.348 115.509 158.414 126.517 152.848C136.257 147.637 144.931 139.997 151.577 130.182C154.773 125.426 153.555 118.899 148.888 115.661C144.171 112.423 137.779 113.637 134.583 118.393C129.916 125.324 123.778 130.688 116.929 134.33C115.458 135.14 113.936 135.848 112.414 136.455C102.979 140.351 104.349 134.179 104.349 125.324V119.86C104.349 110.5 104.095 111.006 112.516 107.464C115.407 106.25 118.147 104.783 120.785 103.012C125.858 99.622 130.423 95.1696 134.076 89.756C137.271 85 136.054 78.4732 131.387 75.2351C126.669 71.997 120.277 73.2113 117.081 77.9673C115.002 81.0536 112.364 83.6339 109.421 85.6071C104.805 88.6935 99.428 90.3631 94.0507 90.4643C88.6735 90.3631 83.2963 88.6935 78.68 85.6071C75.7377 83.6339 73.0999 81.0536 71.02 77.9673C67.8241 73.2113 61.4323 71.997 56.7145 75.2351C51.9968 78.4732 50.83 85 54.0259 89.756C57.6784 95.1696 62.2439 99.622 67.3168 103.012C69.9547 104.783 72.7447 106.25 75.5855 107.464C84.0065 111.006 83.7528 110.449 83.7528 119.86V125.324C83.7528 134.179 85.1225 140.351 75.687 136.455C74.1651 135.848 72.6433 135.089 71.1722 134.33C64.3238 130.637 58.1857 125.274 53.5186 118.393C50.3227 113.637 43.9309 112.423 39.2132 115.661C34.4954 118.899 33.3287 125.426 36.5246 130.182H36.4231ZM188 93.1964C188 76.2976 183.688 60.7649 175.014 46.5982C166.339 32.4315 154.824 21.1488 140.417 12.6994C126.01 4.25 110.538 0 94 0C77.4625 0 60.7728 4.25 46.4166 12.6994C32.0097 21.1488 20.6972 32.4821 12.4285 46.5982C4.15974 60.7649 0 76.2976 0 93.1964C0 110.095 4.10901 125.729 12.4285 140.098C20.6972 154.467 32.0604 165.851 46.4166 174.301C60.8235 182.75 76.6508 187 94 187C111.349 187 126.01 182.75 140.417 174.301C154.824 165.851 166.339 154.467 175.014 140.098C183.688 125.729 188 110.146 188 93.1964Z" fill="#CBEAA6" fill-opacity="0.25"/>
</svg>
