<svg width="34" height="34" viewBox="0 0 34 34" fill="none" xmlns="http://www.w3.org/2000/svg">
<g clip-path="url(#clip0_383_959)">
<path d="M3.00148 8.75981C3.01908 7.84215 3.03564 6.97222 3.03564 6.13032C3.03564 5.61114 3.45656 5.19023 3.97573 5.19023C9.12095 5.19023 13.0609 3.70816 16.3435 0.516207L16.3435 0.516196C16.7084 0.161325 17.2892 0.161211 17.6542 0.516195L17.6542 0.516216C20.9371 3.70816 24.8777 5.19023 30.0232 5.19023C30.5426 5.19023 30.9633 5.61112 30.9633 6.13032C30.9633 6.96282 30.9797 7.82262 30.9969 8.72892L30.9975 8.75914C31.0792 13.0383 31.1721 18.0511 29.4866 22.6097C27.8085 27.1482 24.3599 31.2535 17.3066 33.6982L17.3065 33.6982C17.2069 33.7328 17.1028 33.7501 16.9988 33.7501C16.8948 33.7501 16.7908 33.7328 16.691 33.6982L16.6091 33.9344L16.6909 33.6982C9.63823 31.2536 6.18992 27.1484 4.51208 22.61C2.82683 18.0516 2.91977 13.0389 3.00148 8.75981ZM3.00148 8.75981L2.75153 8.75502M3.00148 8.75981L2.75153 8.75502M2.75153 8.75502C2.76914 7.8369 2.78564 6.96941 2.78564 6.13032C2.78564 5.47307 3.31848 4.94023 3.97573 4.94023C9.06502 4.94023 12.9395 3.47753 16.1692 0.336973L2.75153 8.75502ZM16.9136 31.7821L16.9989 31.8131L17.0843 31.7821C23.2592 29.539 26.3245 25.9462 27.8114 21.8142C29.2877 17.7116 29.1997 13.095 29.1181 8.81705L29.1177 8.79484C29.1079 8.27964 29.0984 7.78113 29.0917 7.29241L29.0885 7.056L28.8523 7.04603C24.1357 6.84712 20.3793 5.4205 17.1631 2.61908L16.9989 2.47604L16.8347 2.61909C13.6189 5.4205 9.86306 6.84696 5.14686 7.04603L4.91065 7.056L4.90743 7.29241C4.90078 7.78129 4.89127 8.28012 4.88143 8.79563L4.88101 8.81779C4.79935 13.0956 4.71123 17.7121 6.18739 21.8145C7.67412 25.9464 10.7392 29.5391 16.9136 31.7821Z" fill="#C0D88D" stroke="white" stroke-width="0.5"/>
<path d="M11.3955 16.3354C11.3955 16.3354 11.3955 16.3354 11.3955 16.3354C11.7625 15.9685 12.3577 15.9684 12.7249 16.3355L15.176 18.7865L15.3527 18.9633L15.5295 18.7865L21.2735 13.0429L21.097 12.8663L21.2735 13.0429C21.6406 12.6757 22.2359 12.6759 22.6029 13.043L22.6029 13.043C22.97 13.41 22.97 14.0052 22.6028 14.3724L22.6027 14.3724L16.0174 20.9575L16.1942 21.1343M11.3955 16.3354L11.2187 16.1587C10.7539 16.6236 10.7539 17.377 11.2187 17.8418L14.5113 21.1343C14.7436 21.3666 15.0482 21.4828 15.3527 21.4828C15.6572 21.4828 15.9619 21.3666 16.1942 21.1343M11.3955 16.3354C11.0283 16.7028 11.0284 17.2979 11.3955 17.665L14.688 20.9575C14.8716 21.1411 15.1118 21.2328 15.3527 21.2328C15.5937 21.2328 15.8339 21.1411 16.0174 20.9575L16.1942 21.1343M11.3955 16.3354L16.1942 21.1343" fill="#C0D88D" stroke="white" stroke-width="0.5"/>
</g>
<defs>
<clipPath id="clip0_383_959">
<rect width="34" height="34" fill="white"/>
</clipPath>
</defs>
</svg>
